<svg width="226" height="77" viewBox="0 0 226 77" fill="none" xmlns="http://www.w3.org/2000/svg">
<path d="M36.6404 35.0999C37.2804 35.2199 37.6804 35.5799 37.8404 36.1799C38.0404 36.8199 38.0204 37.4199 37.7804 37.9799C37.5404 38.5799 37.1204 38.9399 36.5204 39.0599C36.3204 39.0999 36.0604 39.1399 35.7404 39.1799C35.4604 39.2199 35.1404 39.2599 34.7804 39.2999C33.2604 39.4999 31.6004 39.7399 29.8004 40.0199C27.9204 40.3399 26.7404 40.7399 26.2604 41.2199C25.4204 42.2599 24.4804 43.5199 23.4404 44.9999C22.4404 46.4399 21.3604 48.1199 20.2004 50.0399C19.0004 51.9599 17.9404 53.6799 17.0204 55.1999C16.1004 56.6799 15.3004 57.9999 14.6204 59.1599C14.0204 59.8799 13.3404 60.1599 12.5804 59.9999C11.7004 59.8799 11.1404 59.5399 10.9004 58.9799C10.6604 58.4599 10.6004 57.9399 10.7204 57.4199C11.0004 56.7799 11.8404 55.3999 13.2404 53.2799C13.9204 52.2399 14.6204 51.1799 15.3404 50.0999C16.0604 49.0199 16.7804 47.9399 17.5004 46.8599C18.1804 45.6999 18.7604 44.7599 19.2404 44.0399C19.7604 43.2799 20.1804 42.6999 20.5004 42.2999C20.1804 42.3799 19.8804 42.4599 19.6004 42.5399C19.3604 42.6199 19.1204 42.6999 18.8804 42.7799C16.6404 43.2599 15.1404 43.6599 14.3804 43.9799C13.6604 44.2999 13.1004 44.7199 12.7004 45.2399C12.1804 45.7999 11.6004 46.6799 10.9604 47.8799C10.6404 48.3599 10.2804 48.9199 9.88037 49.5599C9.52037 50.1599 9.06038 50.8599 8.50038 51.6599C8.30037 51.9799 8.10038 52.2999 7.90038 52.6199C7.74038 52.9399 7.56038 53.2999 7.36038 53.6999C6.92038 54.4999 6.52037 55.1999 6.16037 55.7999C5.84037 56.3999 5.54037 56.9199 5.26037 57.3599C4.78037 58.1599 4.06037 58.4999 3.10037 58.3799C2.06037 58.1399 1.48038 57.7599 1.36038 57.2399C1.24038 56.6399 1.38037 55.9599 1.78037 55.1999C2.06037 54.6399 2.40037 53.9799 2.80037 53.2199C3.20037 52.4599 3.68037 51.6199 4.24037 50.6999C4.80037 49.7799 5.32037 48.8999 5.80037 48.0599C6.28037 47.2199 6.74038 46.3999 7.18038 45.5999C6.94038 45.68 6.66037 45.7599 6.34037 45.8399C6.06037 45.9199 5.76037 45.9999 5.44037 46.0799C5.08037 46.1599 4.74037 46.2399 4.42037 46.32C4.10037 46.3999 3.78037 46.4799 3.46037 46.5599C2.78037 46.7599 2.34037 46.8599 2.14037 46.8599C1.58037 46.8599 1.16037 46.5799 0.880373 46.0199C0.720373 45.7399 0.580374 45.4799 0.460375 45.2399C0.380374 44.9999 0.320374 44.7599 0.280374 44.5199C0.160374 44.0799 0.420373 43.6999 1.06037 43.3799C3.58037 42.4599 5.48037 41.8999 6.76037 41.6999C7.20037 41.6199 7.62037 41.54 8.02037 41.4599C8.46037 41.34 8.88037 41.2199 9.28037 41.0999C10.1204 40.7799 10.7604 40.2199 11.2004 39.4199C11.4804 38.9799 11.8204 38.4399 12.2204 37.7999C12.6204 37.1199 13.1004 36.3199 13.6604 35.3999L6.88037 37.1999C6.16037 37.3199 5.60037 37.1399 5.20037 36.6599C4.76037 36.2599 4.54038 35.7399 4.54038 35.0999C4.54038 34.4999 4.86038 34.0399 5.50038 33.7199C8.34038 32.6799 11.3604 31.8199 14.5604 31.1399L16.1804 30.7799C17.1404 30.4199 18.2804 29.3199 19.6004 27.4799C20.2804 26.5599 20.9404 25.6399 21.5804 24.7199C22.2204 23.7599 22.8204 22.7999 23.3804 21.8399C23.8604 21.1199 24.2604 20.4999 24.5804 19.9799C24.9404 19.4199 25.2604 18.9799 25.5404 18.6599C25.8604 18.2999 26.4204 18.0799 27.2204 17.9999C28.1004 17.9999 28.7804 18.2199 29.2604 18.6599C29.8604 19.1399 30.1004 19.6399 29.9804 20.1599C29.8604 20.6799 27.8804 23.6399 24.0404 29.0399L32.0204 27.8399C32.2204 27.6799 32.7604 27.0999 33.6404 26.0999C34.0804 25.5799 34.5204 25.0399 34.9604 24.4799C35.4404 23.9199 35.9404 23.3399 36.4604 22.7399C36.7804 22.3799 37.0804 22.0599 37.3604 21.7799C37.6404 21.4599 37.8804 21.1599 38.0804 20.8799C38.2804 20.6399 38.4604 20.4399 38.6204 20.2799C38.7804 20.1199 38.9004 19.9999 38.9804 19.9199C39.6604 19.3599 40.3804 19.1399 41.1404 19.2599C41.9004 19.3399 42.5004 19.6199 42.9404 20.0999C43.4204 20.4999 43.4404 21.0399 43.0004 21.7199L38.1404 27.3599C38.7004 27.2799 39.2604 27.2199 39.8204 27.1799C40.3804 27.0999 40.9604 27.0199 41.5604 26.9399C42.8004 26.8199 43.7004 26.7599 44.2604 26.7599C44.7004 26.7599 44.9204 26.9799 44.9204 27.4199C44.8404 27.9399 44.6604 28.4599 44.3804 28.9799C44.0204 29.5799 43.7004 29.9399 43.4204 30.0599C43.3004 30.1399 43.1804 30.1999 43.0604 30.2399C42.9404 30.2399 42.8404 30.2599 42.7604 30.2999C41.6804 30.3799 40.6804 30.4599 39.7604 30.5399C38.8804 30.6199 38.0804 30.7399 37.3604 30.8999C35.9604 31.1799 34.8004 31.6599 33.8804 32.3399C33.0804 32.9399 31.9804 34.1399 30.5804 35.9399C30.5004 36.0199 30.4604 36.0599 30.4604 36.0599C30.5004 36.0599 30.5804 36.0599 30.7004 36.0599C30.8204 36.0199 30.9804 35.9799 31.1804 35.9399C31.8204 35.7799 32.7604 35.5999 34.0004 35.3999C34.6404 35.3199 35.1604 35.2599 35.5604 35.2199C36.0004 35.1399 36.3604 35.0999 36.6404 35.0999ZM27.5204 32.4599C27.1204 32.54 26.7604 32.6199 26.4404 32.6999C26.1204 32.7399 25.8204 32.7999 25.5404 32.8799C24.9804 32.9599 24.4204 33.0599 23.8604 33.1799C23.3404 33.2599 22.8004 33.3599 22.2404 33.4799C21.0804 33.6799 20.1604 34.1199 19.4804 34.7999C19.1604 35.1199 18.7004 35.6799 18.1004 36.4799C17.5004 37.2399 16.7404 38.1999 15.8204 39.3599C16.8604 39.0799 17.7004 38.8599 18.3404 38.6999C19.0204 38.5399 19.5204 38.4399 19.8404 38.3999C21.3604 38.1999 22.6604 37.8199 23.7404 37.2599L27.5204 32.4599Z" fill="white"/>
<path d="M94.4757 13.9799C94.9957 13.6599 95.4957 13.6399 95.9757 13.9199C96.4557 14.1999 96.8357 14.5999 97.1157 15.1199C97.3957 15.5999 97.5157 16.1399 97.4757 16.7399C97.4757 17.2999 97.2357 17.6999 96.7557 17.9399C93.6357 19.8199 90.4957 21.6799 87.3357 23.5199C84.1757 25.3599 81.2757 27.2399 78.6357 29.1599C80.5557 30.8799 81.9557 32.5799 82.8357 34.2599C83.7557 35.8999 84.2757 37.5199 84.3957 39.1199C84.5557 40.7199 84.3557 42.2799 83.7957 43.7999C83.2357 45.2799 82.4557 46.7399 81.4557 48.1799C80.4557 49.5799 79.2557 50.9599 77.8557 52.32C76.4957 53.6399 75.0557 54.9199 73.5357 56.1599C70.8957 58.3199 68.2357 60.0199 65.5557 61.2599C62.9157 62.5399 60.4357 63.3799 58.1157 63.7799C55.7957 64.2199 53.7557 64.2399 51.9957 63.8399C50.2357 63.4399 48.9357 62.6399 48.0957 61.4399C47.2957 60.2399 47.0357 58.6599 47.3157 56.6999C47.6357 54.6999 48.6957 52.3599 50.4957 49.6799C52.2957 46.9599 54.9557 43.8999 58.4757 40.4999C62.0357 37.0599 66.6157 33.2799 72.2157 29.1599C71.3757 28.4799 70.5157 27.7599 69.6357 26.9999C68.7957 26.2399 68.0157 25.4399 67.2957 24.5999C66.5757 23.7199 65.9957 22.7799 65.5557 21.7799C65.1157 20.7799 64.8957 19.6999 64.8957 18.5399C64.8957 17.0599 65.2557 15.6199 65.9757 14.2199C66.6957 12.7799 67.6557 11.4399 68.8557 10.1999C70.0557 8.95994 71.4157 7.81994 72.9357 6.77994C74.4957 5.69994 76.1157 4.73994 77.7957 3.89994C79.4757 3.05994 81.1557 2.35994 82.8357 1.79994C84.5157 1.23994 86.0957 0.819945 87.5757 0.539944C88.2157 0.419943 88.7557 0.63994 89.1957 1.19994C89.6357 1.75994 89.9157 2.41994 90.0357 3.17994C90.1957 3.89994 90.1557 4.59994 89.9157 5.27994C89.6757 5.91994 89.1957 6.29994 88.4757 6.41994C87.5157 6.53994 86.3757 6.79994 85.0557 7.19994C83.7757 7.55994 82.4357 8.03994 81.0357 8.63994C79.6757 9.23994 78.3157 9.93994 76.9557 10.7399C75.6357 11.5399 74.4757 12.4399 73.4757 13.4399C72.4757 14.3999 71.6957 15.4599 71.1357 16.6199C70.5757 17.7399 70.3957 18.9199 70.5957 20.1599C70.7557 21.2399 71.2557 22.2599 72.0957 23.2199C72.9757 24.1399 74.2157 25.2599 75.8157 26.5799C76.9757 25.7399 78.2757 24.8199 79.7157 23.8199C81.1557 22.8199 82.6757 21.7799 84.2757 20.6999C85.9157 19.6199 87.5957 18.5199 89.3157 17.3999C91.0357 16.2399 92.7557 15.0999 94.4757 13.9799ZM53.7957 53.7599C53.0757 55.2799 52.8357 56.4199 53.0757 57.1799C53.3557 57.9799 53.9557 58.4599 54.8757 58.6199C55.8357 58.7799 57.0557 58.6599 58.5357 58.2599C60.0157 57.8999 61.5957 57.3199 63.2757 56.5199C64.9557 55.7199 66.6757 54.7599 68.4357 53.6399C70.1957 52.4799 71.7957 51.2199 73.2357 49.8599C74.7157 48.4599 75.9757 46.9999 77.0157 45.4799C78.0957 43.9199 78.7957 42.3599 79.1157 40.7999C79.4357 39.1999 79.2957 37.6399 78.6957 36.1199C78.1357 34.5999 76.9557 33.1399 75.1557 31.7399C73.5157 32.8999 71.6757 34.2999 69.6357 35.9399C67.6357 37.5799 65.6357 39.3599 63.6357 41.2799C61.6357 43.1999 59.7557 45.2199 57.9957 47.3399C56.2757 49.4599 54.8757 51.5999 53.7957 53.7599Z" fill="white"/>
<path d="M105.276 39.7799C104.156 40.8599 102.876 42.1999 101.436 43.7999C99.9957 45.3599 98.4957 46.8599 96.9357 48.2999C95.4157 49.6999 93.8557 50.8199 92.2557 51.6599C90.6957 52.4999 89.1957 52.6999 87.7557 52.2599C86.7957 51.9799 86.1757 51.4199 85.8957 50.5799C85.5757 49.7399 85.5357 48.7599 85.7757 47.6399C85.9757 46.4799 86.4357 45.2399 87.1557 43.9199C87.8357 42.5999 88.6757 41.2999 89.6757 40.0199C90.6757 38.6999 91.7957 37.4799 93.0357 36.3599C94.3157 35.2399 95.6357 34.2999 96.9957 33.5399C98.5957 32.6199 100.076 32.3399 101.436 32.6999C102.836 33.0599 104.016 33.9399 104.976 35.3399C105.256 35.0599 105.596 34.6999 105.996 34.2599C106.396 33.8199 106.796 33.3599 107.196 32.8799C107.636 32.3999 108.056 31.9399 108.456 31.4999C108.896 31.0599 109.276 30.7199 109.596 30.4799C110.116 30.0399 110.676 29.8399 111.276 29.8799C111.876 29.8799 112.376 30.0399 112.776 30.3599C113.216 30.6399 113.496 31.0599 113.616 31.6199C113.776 32.1799 113.676 32.7799 113.316 33.4199C111.116 37.4599 109.656 40.5199 108.936 42.5999C108.256 44.6799 108.216 45.8799 108.816 46.1999C109.416 46.5199 110.656 45.9999 112.536 44.6399C114.416 43.2799 116.836 41.1999 119.796 38.3999C120.156 38.0799 120.496 37.9399 120.816 37.9799C121.136 37.9799 121.376 38.0999 121.536 38.3399C121.736 38.5799 121.816 38.8999 121.776 39.2999C121.736 39.6999 121.516 40.1399 121.116 40.6199C117.356 45.0199 114.236 47.9599 111.756 49.4399C109.276 50.8799 107.176 51.1599 105.456 50.2799C104.376 49.7199 103.756 48.6399 103.596 47.0399C103.436 45.4399 103.996 43.0199 105.276 39.7799ZM94.0557 45.5999C94.7357 45.1199 95.4957 44.5 96.3357 43.7399C97.2157 42.9799 98.0557 42.1999 98.8557 41.3999C99.6957 40.5999 100.436 39.8399 101.076 39.1199C101.716 38.3999 102.136 37.8599 102.336 37.4999C102.496 37.2199 102.416 36.9799 102.096 36.7799C101.776 36.5799 101.256 36.5599 100.536 36.7199C99.8557 36.8799 98.9757 37.2999 97.8957 37.9799C96.8557 38.6599 95.6757 39.7399 94.3557 41.2199C94.0757 41.5399 93.7157 41.9799 93.2757 42.5399C92.8757 43.0599 92.4957 43.5999 92.1357 44.1599C91.8157 44.6799 91.5357 45.1799 91.2957 45.6599C91.0957 46.1399 91.0157 46.4999 91.0557 46.7399C91.1357 46.9399 91.3957 46.9799 91.8357 46.8599C92.3157 46.6999 93.0557 46.2799 94.0557 45.5999Z" fill="white"/>
<path d="M143.093 30.1799C142.973 30.6199 142.693 31.3999 142.253 32.5199C141.813 33.5999 141.293 34.8599 140.693 36.2999C140.133 37.7399 139.513 39.2399 138.833 40.7999C138.193 42.3599 137.573 43.7999 136.973 45.1199C138.053 44.3999 139.493 43.4599 141.293 42.2999C143.133 41.0999 145.073 39.9599 147.113 38.8799C147.513 38.6799 147.893 38.66 148.253 38.82C148.653 38.9399 148.953 39.1599 149.153 39.4799C149.353 39.7599 149.413 40.0999 149.333 40.4999C149.293 40.8999 149.073 41.2399 148.673 41.5199C148.113 41.8799 147.373 42.36 146.453 42.9599C145.573 43.5599 144.613 44.1999 143.573 44.8799C142.533 45.5599 141.453 46.2599 140.333 46.9799C139.253 47.6999 138.253 48.36 137.333 48.9599C136.413 49.5599 135.633 50.0799 134.993 50.5199C134.353 50.9599 133.973 51.2399 133.853 51.3599C132.573 53.6799 131.333 55.8799 130.133 57.9599C128.973 60.04 127.773 61.9999 126.533 63.8399C125.293 65.7199 123.993 67.4599 122.633 69.0599C121.273 70.6999 119.793 72.1999 118.193 73.5599C116.793 74.7199 115.453 75.4799 114.173 75.8399C112.893 76.2399 111.753 76.3199 110.753 76.0799C109.713 75.88 108.873 75.4199 108.233 74.6999C107.553 73.9799 107.153 73.06 107.033 71.9399C106.873 70.8599 107.053 69.6399 107.573 68.2799C108.053 66.9599 108.933 65.5799 110.213 64.1399C111.853 62.3399 113.713 60.6199 115.793 58.9799C117.873 57.3399 119.853 55.8999 121.733 54.6599C123.653 53.3799 125.293 52.3199 126.653 51.4799C128.013 50.6399 128.793 50.1199 128.993 49.9199C129.353 49.3599 129.733 48.6999 130.133 47.9399C130.533 47.1799 130.933 46.3999 131.333 45.5999C131.773 44.7599 132.173 43.9399 132.533 43.1399C132.893 42.2999 133.233 41.5399 133.553 40.8599C132.833 41.6999 132.113 42.5799 131.393 43.4999C130.673 44.4199 129.913 45.2999 129.113 46.1399C128.353 46.9799 127.553 47.7799 126.713 48.5399C125.913 49.2599 125.053 49.8599 124.133 50.3399C123.133 50.8999 122.173 51.1999 121.253 51.2399C120.333 51.2399 119.513 51.0599 118.793 50.6999C118.113 50.2999 117.573 49.7599 117.173 49.0799C116.733 48.3999 116.513 47.6199 116.513 46.7399C116.473 45.8599 116.773 44.6399 117.413 43.0799C118.013 41.5199 118.733 39.9199 119.573 38.2799C120.413 36.5999 121.273 35.0399 122.153 33.5999C123.033 32.1199 123.713 31.0399 124.193 30.3599C124.593 29.7999 125.113 29.5799 125.753 29.6999C126.433 29.7799 127.053 30.0199 127.613 30.4199C128.173 30.8199 128.593 31.2999 128.873 31.8599C129.153 32.4199 129.093 32.8799 128.693 33.2399C128.493 33.3999 128.133 33.8999 127.613 34.7399C127.093 35.5399 126.513 36.4799 125.873 37.5599C125.273 38.6399 124.653 39.7799 124.013 40.9799C123.373 42.1799 122.853 43.2599 122.453 44.2199C122.093 45.1399 121.893 45.8599 121.853 46.3799C121.853 46.8999 122.133 47.0399 122.693 46.7999C123.813 46.3199 125.073 45.3399 126.473 43.8599C127.873 42.3399 129.273 40.6399 130.673 38.7599C132.073 36.8799 133.393 34.9599 134.633 32.9999C135.873 31.0399 136.913 29.3199 137.753 27.8399C138.113 27.2399 138.633 26.8999 139.313 26.8199C139.993 26.7399 140.633 26.8399 141.233 27.1199C141.873 27.3999 142.393 27.8199 142.793 28.3799C143.193 28.9399 143.293 29.5399 143.093 30.1799ZM126.293 55.7399C125.413 56.3399 124.473 56.9999 123.473 57.7199C122.473 58.4399 121.473 59.1799 120.473 59.9399C119.513 60.6999 118.573 61.4399 117.653 62.1599C116.733 62.9199 115.913 63.5999 115.193 64.1999C113.593 65.6399 112.473 66.92 111.833 68.04C111.153 69.2 110.873 70.0399 110.993 70.5599C111.073 71.1199 111.513 71.2999 112.313 71.1C113.073 70.9 114.113 70.1999 115.433 68.9999C116.433 68.0799 117.433 67.06 118.433 65.9399C119.433 64.8199 120.393 63.6799 121.313 62.5199C122.273 61.3599 123.173 60.1999 124.013 59.0399C124.853 57.8799 125.613 56.7799 126.293 55.7399Z" fill="white"/>
<path d="M166.974 8.09994C167.494 7.61994 168.094 7.49994 168.774 7.73994C169.494 7.93994 170.114 8.31994 170.634 8.87994C171.154 9.43994 171.474 10.0999 171.594 10.8599C171.714 11.5799 171.434 12.2199 170.754 12.7799C168.114 15.0199 165.654 17.5999 163.374 20.5199C161.094 23.4399 159.014 26.4599 157.134 29.5799C155.294 32.6999 153.654 35.8199 152.214 38.9399C150.814 42.0199 149.634 44.86 148.674 47.4599C147.714 50.02 146.994 52.2199 146.514 54.0599C146.074 55.8599 145.874 57.0599 145.914 57.6599C145.954 58.1399 145.634 58.5199 144.954 58.7999C144.234 59.1199 143.474 59.2599 142.674 59.2199C141.874 59.1799 141.174 58.9399 140.574 58.4999C139.974 58.0999 139.794 57.4199 140.034 56.4599C140.874 53.18 141.994 49.8399 143.394 46.4399C144.754 43.0399 146.254 39.7199 147.894 36.4799C149.534 33.1999 151.254 30.0599 153.054 27.0599C154.854 24.0199 156.614 21.2599 158.334 18.7799C160.054 16.2999 161.654 14.1399 163.134 12.2999C164.654 10.4599 165.934 9.05994 166.974 8.09994Z" fill="white"/>
<path d="M172.057 41.0399C171.937 41.8799 171.597 42.9199 171.037 44.1599C170.477 45.3999 169.737 46.5999 168.817 47.7599C167.897 48.8799 166.777 49.8199 165.457 50.5799C164.177 51.3399 162.697 51.6599 161.017 51.5399C160.297 51.4999 159.577 51.2999 158.857 50.9399C158.137 50.5399 157.517 50.0199 156.997 49.3799C156.477 48.7399 156.077 47.9999 155.797 47.1599C155.517 46.2799 155.457 45.2999 155.617 44.2199C155.897 42.2999 156.437 40.6599 157.237 39.2999C158.077 37.9399 158.977 36.7999 159.937 35.8799C160.417 35.4399 161.017 35.3199 161.737 35.5199C162.457 35.6799 163.097 36.0799 163.657 36.7199C162.617 35.3199 162.117 34.0199 162.157 32.8199C162.237 31.6199 162.617 30.6399 163.297 29.8799C163.977 29.1199 164.837 28.6399 165.877 28.4399C166.957 28.1999 167.997 28.3599 168.997 28.9199C170.037 29.4399 170.917 30.4199 171.637 31.8599C172.357 33.2599 172.697 35.1999 172.657 37.6799C173.257 37.8799 173.877 37.9999 174.517 38.0399C175.197 38.0799 175.857 38.0599 176.497 37.9799C177.177 37.8999 177.817 37.7999 178.417 37.6799C179.017 37.5199 179.537 37.3799 179.977 37.2599C180.337 37.1399 180.617 37.1999 180.817 37.4399C181.057 37.6799 181.197 37.9799 181.237 38.3399C181.317 38.6999 181.297 39.0599 181.177 39.4199C181.097 39.7799 180.937 40.0199 180.697 40.1399C178.977 40.8999 177.337 41.2999 175.777 41.3399C174.257 41.3799 173.017 41.2799 172.057 41.0399ZM164.377 37.7999C164.497 38.0399 164.537 38.2799 164.497 38.5199C164.457 38.7599 164.257 39.0399 163.897 39.3599C163.177 39.9999 162.537 40.7999 161.977 41.7599C161.417 42.6799 160.997 43.5599 160.717 44.3999C160.477 45.2399 160.417 45.9599 160.537 46.5599C160.657 47.1199 161.057 47.3799 161.737 47.3399C162.337 47.2999 162.957 46.9999 163.597 46.4399C164.277 45.8799 164.897 45.2399 165.457 44.5199C166.017 43.7599 166.497 42.9599 166.897 42.1199C167.337 41.2799 167.617 40.5399 167.737 39.8999C167.217 39.7399 166.617 39.4599 165.937 39.0599C165.257 38.6599 164.737 38.2399 164.377 37.7999ZM166.477 32.1599C166.277 32.2799 166.157 32.5199 166.117 32.8799C166.117 33.1999 166.197 33.5799 166.357 34.0199C166.517 34.4199 166.757 34.8199 167.077 35.2199C167.397 35.6199 167.797 35.9399 168.277 36.1799C168.317 35.6999 168.297 35.1999 168.217 34.6799C168.177 34.1199 168.077 33.6399 167.917 33.2399C167.757 32.7999 167.537 32.4799 167.257 32.2799C167.017 32.0399 166.757 31.9999 166.477 32.1599Z" fill="white"/>
<path d="M180.969 32.3999C181.249 31.7999 181.749 31.4599 182.469 31.3799C183.189 31.2999 183.869 31.3999 184.509 31.6799C185.189 31.9599 185.709 32.3799 186.069 32.9399C186.469 33.4599 186.469 34.0399 186.069 34.6799C185.829 35.0799 185.509 35.7199 185.109 36.5999C184.749 37.4399 184.349 38.3799 183.909 39.4199C183.509 40.4199 183.129 41.4599 182.769 42.5399C182.409 43.6199 182.109 44.6199 181.869 45.5399C181.629 46.4199 181.489 47.1399 181.449 47.6999C181.409 48.2599 181.529 48.5399 181.809 48.5399C182.209 48.4999 182.809 48.0799 183.609 47.2799C184.409 46.4399 185.229 45.4599 186.069 44.3399C186.949 43.2199 187.749 42.0799 188.469 40.9199C189.189 39.7599 189.669 38.8399 189.909 38.1599C190.109 36.0799 190.429 34.3399 190.869 32.9399C191.309 31.5399 191.809 30.4399 192.369 29.6399C192.969 28.7999 193.569 28.2399 194.169 27.9599C194.809 27.6799 195.429 27.5999 196.029 27.7199C197.109 27.9599 197.729 28.5399 197.889 29.4599C198.089 30.3799 198.049 31.3999 197.769 32.5199C197.529 33.5999 197.129 34.6999 196.569 35.8199C196.009 36.8999 195.529 37.7599 195.129 38.3999C195.049 39.7999 195.149 40.7999 195.429 41.3999C195.749 41.9999 196.169 42.3199 196.689 42.3599C197.209 42.3999 197.809 42.2399 198.489 41.8799C199.169 41.5199 199.849 41.0599 200.529 40.4999C201.209 39.9399 201.849 39.38 202.449 38.82C203.089 38.2199 203.629 37.7199 204.069 37.3199C204.349 37.0399 204.649 36.9399 204.969 37.0199C205.329 37.0999 205.629 37.2799 205.869 37.5599C206.109 37.8399 206.229 38.1999 206.229 38.6399C206.229 39.0399 206.049 39.4399 205.689 39.8399C204.609 40.9999 203.389 42.1399 202.029 43.2599C200.709 44.3399 199.389 45.1799 198.069 45.7799C196.749 46.3399 195.529 46.52 194.409 46.32C193.289 46.0799 192.409 45.1999 191.769 43.6799C191.529 43.9999 191.129 44.4999 190.569 45.1799C190.049 45.8599 189.429 46.5999 188.709 47.3999C188.029 48.1599 187.269 48.9199 186.429 49.6799C185.629 50.3999 184.849 50.9999 184.089 51.4799C183.129 52.0799 182.169 52.3999 181.209 52.4399C180.289 52.4799 179.449 52.32 178.689 51.9599C177.929 51.5999 177.329 51.0799 176.889 50.3999C176.409 49.7199 176.149 48.9399 176.109 48.0599C176.069 47.1799 176.229 46.0199 176.589 44.5799C176.949 43.1399 177.389 41.6599 177.909 40.1399C178.429 38.6199 178.969 37.1599 179.529 35.7599C180.089 34.3599 180.569 33.2399 180.969 32.3999Z" fill="white"/>
<path d="M206.084 47.6999C206.524 48.0199 207.184 48.0999 208.064 47.9399C208.944 47.7399 209.944 47.3999 211.064 46.9199C212.184 46.3999 213.364 45.7799 214.604 45.0599C215.844 44.3399 217.044 43.5799 218.204 42.7799C219.404 41.9799 220.504 41.1799 221.504 40.3799C222.504 39.5399 223.344 38.7999 224.024 38.1599C224.264 37.9599 224.544 37.9199 224.864 38.0399C225.184 38.1599 225.424 38.3799 225.584 38.6999C225.784 39.0199 225.844 39.3799 225.764 39.7799C225.724 40.1799 225.424 40.5399 224.864 40.8599C223.984 41.6599 222.944 42.5799 221.744 43.6199C220.584 44.6199 219.324 45.6199 217.964 46.6199C216.644 47.5799 215.264 48.4999 213.824 49.3799C212.384 50.2199 210.964 50.9199 209.564 51.4799C208.204 52.0399 206.884 52.3999 205.604 52.5599C204.324 52.7199 203.164 52.5599 202.124 52.0799C200.964 51.5599 200.164 50.8199 199.724 49.8599C199.284 48.8599 199.144 47.7399 199.304 46.4999C199.424 45.2599 199.804 43.9399 200.444 42.5399C201.044 41.1399 201.784 39.7599 202.664 38.3999C203.584 37.0399 204.604 35.7799 205.724 34.6199C206.884 33.4199 208.044 32.3999 209.204 31.5599C210.764 30.4799 212.204 29.8599 213.524 29.6999C214.884 29.4999 215.964 29.6799 216.764 30.2399C217.564 30.7999 218.004 31.6799 218.084 32.8799C218.164 34.0399 217.744 35.4199 216.824 37.0199C216.224 37.9799 215.484 38.9199 214.604 39.8399C213.764 40.7199 212.844 41.4999 211.844 42.1799C210.884 42.8199 209.884 43.3199 208.844 43.6799C207.844 43.9999 206.904 44.0799 206.024 43.9199C205.904 44.1199 205.784 44.3999 205.664 44.7599C205.544 45.0799 205.464 45.4399 205.424 45.8399C205.424 46.1999 205.464 46.5599 205.544 46.9199C205.624 47.2799 205.804 47.5399 206.084 47.6999ZM207.164 41.5799C208.004 41.4999 209.044 40.9999 210.284 40.0799C211.524 39.1599 212.604 37.7999 213.524 35.9999C213.844 35.3999 213.984 34.9999 213.944 34.7999C213.904 34.5999 213.744 34.5599 213.464 34.6799C213.224 34.7599 212.864 34.9799 212.384 35.3399C211.944 35.6999 211.484 36.1399 211.004 36.6599C210.164 37.5399 209.364 38.4799 208.604 39.4799C207.844 40.4399 207.364 41.1399 207.164 41.5799Z" fill="white"/>
</svg>
