<svg width="270" height="77" viewBox="0 0 270 77" fill="none" xmlns="http://www.w3.org/2000/svg">
<path d="M37.3708 35.1001C38.0108 35.2201 38.4108 35.5801 38.5708 36.1801C38.7708 36.8201 38.7508 37.4201 38.5108 37.9801C38.2708 38.5801 37.8508 38.9401 37.2508 39.0601C37.0508 39.1001 36.7908 39.1401 36.4708 39.1801C36.1908 39.2201 35.8708 39.2601 35.5108 39.3001C33.9908 39.5001 32.3308 39.7401 30.5308 40.0201C28.6508 40.3401 27.4708 40.7401 26.9908 41.2201C26.1508 42.2601 25.2108 43.5201 24.1708 45.0001C23.1708 46.4401 22.0908 48.1201 20.9308 50.0401C19.7308 51.9601 18.6708 53.6801 17.7508 55.2001C16.8308 56.6801 16.0308 58.0001 15.3508 59.1601C14.7508 59.8801 14.0708 60.1601 13.3108 60.0001C12.4308 59.8801 11.8708 59.5401 11.6308 58.9801C11.3908 58.4601 11.3308 57.9401 11.4508 57.4201C11.7308 56.7801 12.5708 55.4001 13.9708 53.2801C14.6508 52.2401 15.3508 51.1801 16.0708 50.1001C16.7908 49.0201 17.5108 47.9401 18.2308 46.8601C18.9108 45.7001 19.4908 44.7601 19.9708 44.0401C20.4908 43.2801 20.9108 42.7001 21.2308 42.3001C20.9108 42.3801 20.6108 42.4601 20.3308 42.5401C20.0908 42.6201 19.8508 42.7001 19.6108 42.7801C17.3708 43.2601 15.8708 43.6601 15.1108 43.9801C14.3908 44.3001 13.8308 44.7201 13.4308 45.2401C12.9108 45.8001 12.3308 46.6801 11.6908 47.8801C11.3708 48.3601 11.0108 48.9201 10.6108 49.5601C10.2508 50.1601 9.79084 50.8601 9.23084 51.6601C9.03084 51.9801 8.83084 52.3001 8.63084 52.6201C8.47084 52.9401 8.29084 53.3001 8.09084 53.7001C7.65084 54.5001 7.25084 55.2001 6.89084 55.8001C6.57084 56.4001 6.27084 56.9201 5.99084 57.3601C5.51084 58.1601 4.79084 58.5001 3.83084 58.3801C2.79084 58.1401 2.21084 57.7601 2.09084 57.2401C1.97084 56.6401 2.11084 55.9601 2.51084 55.2001C2.79084 54.6401 3.13084 53.9801 3.53084 53.2201C3.93084 52.4601 4.41084 51.6201 4.97084 50.7001C5.53084 49.7801 6.05084 48.9001 6.53084 48.0601C7.01084 47.2201 7.47084 46.4001 7.91084 45.6001C7.67084 45.6801 7.39084 45.7601 7.07084 45.8401C6.79084 45.9201 6.49084 46.0001 6.17084 46.0801C5.81084 46.1601 5.47084 46.2401 5.15084 46.3201C4.83084 46.4001 4.51084 46.4801 4.19084 46.5601C3.51084 46.7601 3.07084 46.8601 2.87084 46.8601C2.31084 46.8601 1.89084 46.5801 1.61084 46.0201C1.45084 45.7401 1.31084 45.4801 1.19084 45.2401C1.11084 45.0001 1.05084 44.7601 1.01084 44.5201C0.890843 44.0801 1.15084 43.7001 1.79084 43.3801C4.31084 42.4601 6.21084 41.9001 7.49084 41.7001C7.93084 41.6201 8.35084 41.5401 8.75084 41.4601C9.19084 41.3401 9.61084 41.2201 10.0108 41.1001C10.8508 40.7801 11.4908 40.2201 11.9308 39.4201C12.2108 38.9801 12.5508 38.4401 12.9508 37.8001C13.3508 37.1201 13.8308 36.3201 14.3908 35.4001L7.61084 37.2001C6.89084 37.3201 6.33084 37.1401 5.93084 36.6601C5.49084 36.2601 5.27084 35.7401 5.27084 35.1001C5.27084 34.5001 5.59084 34.0401 6.23084 33.7201C9.07084 32.6801 12.0908 31.8201 15.2908 31.1401L16.9108 30.7801C17.8708 30.4201 19.0108 29.3201 20.3308 27.4801C21.0108 26.5601 21.6708 25.6401 22.3108 24.7201C22.9508 23.7601 23.5508 22.8001 24.1108 21.8401C24.5908 21.1201 24.9908 20.5001 25.3108 19.9801C25.6708 19.4201 25.9908 18.9801 26.2708 18.6601C26.5908 18.3001 27.1508 18.0801 27.9508 18.0001C28.8308 18.0001 29.5108 18.2201 29.9908 18.6601C30.5908 19.1401 30.8308 19.6401 30.7108 20.1601C30.5908 20.6801 28.6108 23.6401 24.7708 29.0401L32.7508 27.8401C32.9508 27.6801 33.4908 27.1001 34.3708 26.1001C34.8108 25.5801 35.2508 25.0401 35.6908 24.4801C36.1708 23.9201 36.6708 23.3401 37.1908 22.7401C37.5108 22.3801 37.8108 22.0601 38.0908 21.7801C38.3708 21.4601 38.6108 21.1601 38.8108 20.8801C39.0108 20.6401 39.1908 20.4401 39.3508 20.2801C39.5108 20.1201 39.6308 20.0001 39.7108 19.9201C40.3908 19.3601 41.1108 19.1401 41.8708 19.2601C42.6308 19.3401 43.2308 19.6201 43.6708 20.1001C44.1508 20.5001 44.1708 21.0401 43.7308 21.7201L38.8708 27.3601C39.4308 27.2801 39.9908 27.2201 40.5508 27.1801C41.1108 27.1001 41.6908 27.0201 42.2908 26.9401C43.5308 26.8201 44.4308 26.7601 44.9908 26.7601C45.4308 26.7601 45.6508 26.9801 45.6508 27.4201C45.5708 27.9401 45.3908 28.4601 45.1108 28.9801C44.7508 29.5801 44.4308 29.9401 44.1508 30.0601C44.0308 30.1401 43.9108 30.2001 43.7908 30.2401C43.6708 30.2401 43.5708 30.2601 43.4908 30.3001C42.4108 30.3801 41.4108 30.4601 40.4908 30.5401C39.6108 30.6201 38.8108 30.7401 38.0908 30.9001C36.6908 31.1801 35.5308 31.6601 34.6108 32.3401C33.8108 32.9401 32.7108 34.1401 31.3108 35.9401C31.2308 36.0201 31.1908 36.0601 31.1908 36.0601C31.2308 36.0601 31.3108 36.0601 31.4308 36.0601C31.5508 36.0201 31.7108 35.9801 31.9108 35.9401C32.5508 35.7801 33.4908 35.6001 34.7308 35.4001C35.3708 35.3201 35.8908 35.2601 36.2908 35.2201C36.7308 35.1401 37.0908 35.1001 37.3708 35.1001ZM28.2508 32.4601C27.8508 32.5401 27.4908 32.6201 27.1708 32.7001C26.8508 32.7401 26.5508 32.8001 26.2708 32.8801C25.7108 32.9601 25.1508 33.0601 24.5908 33.1801C24.0708 33.2601 23.5308 33.3601 22.9708 33.4801C21.8108 33.6801 20.8908 34.1201 20.2108 34.8001C19.8908 35.1201 19.4308 35.6801 18.8308 36.4801C18.2308 37.2401 17.4708 38.2001 16.5508 39.3601C17.5908 39.0801 18.4308 38.8601 19.0708 38.7001C19.7508 38.5401 20.2508 38.4401 20.5708 38.4001C22.0908 38.2001 23.3908 37.8201 24.4708 37.2601L28.2508 32.4601Z" fill="white"/>
<path d="M95.2062 13.9801C95.7262 13.6601 96.2262 13.6401 96.7062 13.9201C97.1862 14.2001 97.5662 14.6001 97.8462 15.1201C98.1262 15.6001 98.2462 16.1401 98.2062 16.7401C98.2062 17.3001 97.9662 17.7001 97.4862 17.9401C94.3662 19.8201 91.2262 21.6801 88.0662 23.5201C84.9062 25.3601 82.0062 27.2401 79.3662 29.1601C81.2862 30.8801 82.6862 32.5801 83.5662 34.2601C84.4862 35.9001 85.0062 37.5201 85.1262 39.1201C85.2862 40.7201 85.0862 42.2801 84.5262 43.8001C83.9662 45.2801 83.1862 46.7401 82.1861 48.1801C81.1862 49.5801 79.9862 50.9601 78.5862 52.3201C77.2262 53.6401 75.7862 54.9201 74.2662 56.1601C71.6262 58.3201 68.9662 60.0201 66.2862 61.2601C63.6462 62.5401 61.1662 63.3801 58.8462 63.7801C56.5262 64.2201 54.4862 64.2401 52.7262 63.8401C50.9662 63.4401 49.6662 62.6401 48.8262 61.4401C48.0262 60.2401 47.7662 58.6601 48.0462 56.7001C48.3662 54.7001 49.4262 52.3601 51.2262 49.6801C53.0262 46.9601 55.6862 43.9001 59.2062 40.5001C62.7662 37.0601 67.3462 33.2801 72.9462 29.1601C72.1062 28.4801 71.2462 27.7601 70.3661 27.0001C69.5261 26.2401 68.7462 25.4401 68.0262 24.6001C67.3062 23.7201 66.7262 22.7801 66.2862 21.7801C65.8462 20.7801 65.6262 19.7001 65.6262 18.5401C65.6262 17.0601 65.9862 15.6201 66.7062 14.2201C67.4262 12.7801 68.3862 11.4401 69.5862 10.2001C70.7862 8.96006 72.1462 7.82006 73.6662 6.78006C75.2262 5.70006 76.8462 4.74006 78.5262 3.90006C80.2062 3.06006 81.8862 2.36006 83.5662 1.80006C85.2462 1.24006 86.8262 0.820067 88.3062 0.540066C88.9462 0.420065 89.4862 0.640062 89.9262 1.20006C90.3662 1.76006 90.6462 2.42006 90.7662 3.18007C90.9262 3.90006 90.8862 4.60006 90.6462 5.28006C90.4062 5.92007 89.9262 6.30007 89.2062 6.42006C88.2462 6.54006 87.1062 6.80006 85.7862 7.20006C84.5062 7.56006 83.1662 8.04006 81.7662 8.64006C80.4062 9.24007 79.0462 9.94006 77.6861 10.7401C76.3661 11.5401 75.2062 12.4401 74.2062 13.4401C73.2062 14.4001 72.4261 15.4601 71.8661 16.6201C71.3061 17.7401 71.1262 18.9201 71.3262 20.1601C71.4862 21.2401 71.9862 22.2601 72.8262 23.2201C73.7062 24.1401 74.9462 25.2601 76.5462 26.5801C77.7061 25.7401 79.0062 24.8201 80.4462 23.8201C81.8862 22.8201 83.4062 21.7801 85.0062 20.7001C86.6462 19.6201 88.3261 18.5201 90.0462 17.4001C91.7661 16.2401 93.4862 15.1001 95.2062 13.9801ZM54.5262 53.7601C53.8062 55.2801 53.5662 56.4201 53.8062 57.1801C54.0862 57.9801 54.6862 58.4601 55.6062 58.6201C56.5662 58.7801 57.7862 58.6601 59.2662 58.2601C60.7462 57.9001 62.3261 57.3201 64.0061 56.5201C65.6862 55.7201 67.4062 54.7601 69.1662 53.6401C70.9262 52.4801 72.5262 51.2201 73.9662 49.8601C75.4462 48.4601 76.7061 47.0001 77.7461 45.4801C78.8261 43.9201 79.5262 42.3601 79.8462 40.8001C80.1662 39.2001 80.0262 37.6401 79.4262 36.1201C78.8662 34.6001 77.6862 33.1401 75.8862 31.7401C74.2462 32.9001 72.4062 34.3001 70.3661 35.9401C68.3662 37.5801 66.3662 39.3601 64.3661 41.2801C62.3661 43.2001 60.4861 45.2201 58.7262 47.3401C57.0062 49.4601 55.6062 51.6001 54.5262 53.7601Z" fill="white"/>
<path d="M106.006 39.7801C104.886 40.8601 103.606 42.2001 102.166 43.8001C100.726 45.3601 99.2262 46.8601 97.6662 48.3001C96.1462 49.7001 94.5862 50.8201 92.9862 51.6601C91.4262 52.5001 89.9262 52.7001 88.4862 52.2601C87.5262 51.9801 86.9062 51.4201 86.6262 50.5801C86.3062 49.7401 86.2662 48.7601 86.5062 47.6401C86.7062 46.4801 87.1661 45.2401 87.8861 43.9201C88.5661 42.6001 89.4062 41.3001 90.4062 40.0201C91.4062 38.7001 92.5262 37.4801 93.7662 36.3601C95.0462 35.2401 96.3662 34.3001 97.7262 33.5401C99.3262 32.6201 100.806 32.3401 102.166 32.7001C103.566 33.0601 104.746 33.9401 105.706 35.3401C105.986 35.0601 106.326 34.7001 106.726 34.2601C107.126 33.8201 107.526 33.3601 107.926 32.8801C108.366 32.4001 108.786 31.9401 109.186 31.5001C109.626 31.0601 110.006 30.7201 110.326 30.4801C110.846 30.0401 111.406 29.8401 112.006 29.8801C112.606 29.8801 113.106 30.0401 113.506 30.3601C113.946 30.6401 114.226 31.0601 114.346 31.6201C114.506 32.1801 114.406 32.7801 114.046 33.4201C111.846 37.4601 110.386 40.5201 109.666 42.6001C108.986 44.6801 108.946 45.8801 109.546 46.2001C110.146 46.5201 111.386 46.0001 113.266 44.6401C115.146 43.2801 117.566 41.2001 120.526 38.4001C120.886 38.0801 121.226 37.9401 121.546 37.9801C121.866 37.9801 122.106 38.1001 122.266 38.3401C122.466 38.5801 122.546 38.9001 122.506 39.3001C122.466 39.7001 122.246 40.1401 121.846 40.6201C118.086 45.0201 114.966 47.9601 112.486 49.4401C110.006 50.8801 107.906 51.1601 106.186 50.2801C105.106 49.7201 104.486 48.6401 104.326 47.0401C104.166 45.4401 104.726 43.0201 106.006 39.7801ZM94.7862 45.6001C95.4662 45.1201 96.2262 44.5001 97.0662 43.7401C97.9462 42.9801 98.7862 42.2001 99.5862 41.4001C100.426 40.6001 101.166 39.8401 101.806 39.1201C102.446 38.4001 102.866 37.8601 103.066 37.5001C103.226 37.2201 103.146 36.9801 102.826 36.7801C102.506 36.5801 101.986 36.5601 101.266 36.7201C100.586 36.8801 99.7062 37.3001 98.6262 37.9801C97.5862 38.6601 96.4062 39.7401 95.0862 41.2201C94.8062 41.5401 94.4462 41.9801 94.0062 42.5401C93.6062 43.0601 93.2262 43.6001 92.8662 44.1601C92.5462 44.6801 92.2661 45.1801 92.0261 45.6601C91.8261 46.1401 91.7462 46.5001 91.7862 46.7401C91.8662 46.9401 92.1262 46.9801 92.5662 46.8601C93.0462 46.7001 93.7862 46.2801 94.7862 45.6001Z" fill="white"/>
<path d="M143.823 30.1801C143.703 30.6201 143.423 31.4001 142.983 32.5201C142.543 33.6001 142.023 34.8601 141.423 36.3001C140.863 37.7401 140.243 39.2401 139.563 40.8001C138.923 42.3601 138.303 43.8001 137.703 45.1201C138.783 44.4001 140.223 43.4601 142.023 42.3001C143.863 41.1001 145.803 39.9601 147.843 38.8801C148.243 38.6801 148.623 38.6601 148.983 38.8201C149.383 38.9401 149.683 39.1601 149.883 39.4801C150.083 39.7601 150.143 40.1001 150.063 40.5001C150.023 40.9001 149.803 41.2401 149.403 41.5201C148.843 41.8801 148.103 42.3601 147.183 42.9601C146.303 43.5601 145.343 44.2001 144.303 44.8801C143.263 45.5601 142.183 46.2601 141.063 46.9801C139.983 47.7001 138.983 48.3601 138.063 48.9601C137.143 49.5601 136.363 50.0801 135.723 50.5201C135.083 50.9601 134.703 51.2401 134.583 51.3601C133.303 53.6801 132.063 55.8801 130.863 57.9601C129.703 60.0401 128.503 62.0001 127.263 63.8401C126.023 65.7201 124.723 67.4601 123.363 69.0601C122.003 70.7001 120.523 72.2001 118.923 73.5601C117.523 74.7201 116.183 75.4801 114.903 75.8401C113.623 76.2401 112.483 76.3201 111.483 76.0801C110.443 75.8801 109.603 75.4201 108.963 74.7001C108.283 73.9801 107.883 73.0601 107.763 71.9401C107.603 70.8601 107.783 69.6401 108.303 68.2801C108.783 66.9601 109.663 65.5801 110.943 64.1401C112.583 62.3401 114.443 60.6201 116.523 58.9801C118.603 57.3401 120.583 55.9001 122.463 54.6601C124.383 53.3801 126.023 52.3201 127.383 51.4801C128.743 50.6401 129.523 50.1201 129.723 49.9201C130.083 49.3601 130.463 48.7001 130.863 47.9401C131.263 47.1801 131.663 46.4001 132.063 45.6001C132.503 44.7601 132.903 43.9401 133.263 43.1401C133.623 42.3001 133.963 41.5401 134.283 40.8601C133.563 41.7001 132.843 42.5801 132.123 43.5001C131.403 44.4201 130.643 45.3001 129.843 46.1401C129.083 46.9801 128.283 47.7801 127.443 48.5401C126.643 49.2601 125.783 49.8601 124.863 50.3401C123.863 50.9001 122.903 51.2001 121.983 51.2401C121.063 51.2401 120.243 51.0601 119.523 50.7001C118.843 50.3001 118.303 49.7601 117.903 49.0801C117.463 48.4001 117.243 47.6201 117.243 46.7401C117.203 45.8601 117.503 44.6401 118.143 43.0801C118.743 41.5201 119.463 39.9201 120.303 38.2801C121.143 36.6001 122.003 35.0401 122.883 33.6001C123.763 32.1201 124.443 31.0401 124.923 30.3601C125.323 29.8001 125.843 29.5801 126.483 29.7001C127.163 29.7801 127.783 30.0201 128.343 30.4201C128.903 30.8201 129.323 31.3001 129.603 31.8601C129.883 32.4201 129.823 32.8801 129.423 33.2401C129.223 33.4001 128.863 33.9001 128.343 34.7401C127.823 35.5401 127.243 36.4801 126.603 37.5601C126.003 38.6401 125.383 39.7801 124.743 40.9801C124.103 42.1801 123.583 43.2601 123.183 44.2201C122.823 45.1401 122.623 45.8601 122.583 46.3801C122.583 46.9001 122.863 47.0401 123.423 46.8001C124.543 46.3201 125.803 45.3401 127.203 43.8601C128.603 42.3401 130.003 40.6401 131.403 38.7601C132.803 36.8801 134.123 34.9601 135.363 33.0001C136.603 31.0401 137.643 29.3201 138.483 27.8401C138.843 27.2401 139.363 26.9001 140.043 26.8201C140.723 26.7401 141.363 26.8401 141.963 27.1201C142.603 27.4001 143.123 27.8201 143.523 28.3801C143.923 28.9401 144.023 29.5401 143.823 30.1801ZM127.023 55.7401C126.143 56.3401 125.203 57.0001 124.203 57.7201C123.203 58.4401 122.203 59.1801 121.203 59.9401C120.243 60.7001 119.303 61.4401 118.383 62.1601C117.463 62.9201 116.643 63.6001 115.923 64.2001C114.323 65.6401 113.203 66.9201 112.563 68.0401C111.883 69.2001 111.603 70.0401 111.723 70.5601C111.803 71.1201 112.243 71.3001 113.043 71.1001C113.803 70.9001 114.843 70.2001 116.163 69.0001C117.163 68.0801 118.163 67.0601 119.163 65.9401C120.163 64.8201 121.123 63.6801 122.043 62.5201C123.003 61.3601 123.903 60.2001 124.743 59.0401C125.583 57.8801 126.343 56.7801 127.023 55.7401Z" fill="white"/>
<path d="M167.705 8.10006C168.225 7.62007 168.825 7.50006 169.505 7.74006C170.225 7.94006 170.845 8.32006 171.365 8.88006C171.885 9.44006 172.205 10.1001 172.325 10.8601C172.445 11.5801 172.165 12.2201 171.485 12.7801C168.845 15.0201 166.385 17.6001 164.105 20.5201C161.825 23.4401 159.745 26.4601 157.865 29.5801C156.025 32.7001 154.385 35.8201 152.945 38.9401C151.545 42.0201 150.365 44.8601 149.405 47.4601C148.445 50.0201 147.725 52.2201 147.245 54.0601C146.805 55.8601 146.605 57.0601 146.645 57.6601C146.685 58.1401 146.365 58.5201 145.685 58.8001C144.965 59.1201 144.205 59.2601 143.405 59.2201C142.605 59.1801 141.905 58.9401 141.305 58.5001C140.705 58.1001 140.525 57.4201 140.765 56.4601C141.605 53.1801 142.725 49.8401 144.125 46.4401C145.485 43.0401 146.985 39.7201 148.625 36.4801C150.265 33.2001 151.985 30.0601 153.785 27.0601C155.585 24.0201 157.345 21.2601 159.065 18.7801C160.785 16.3001 162.385 14.1401 163.865 12.3001C165.385 10.4601 166.665 9.06007 167.705 8.10006Z" fill="white"/>
<path d="M219.828 20.1001C220.348 20.3001 220.568 20.8201 220.488 21.6601C220.448 22.5001 220.208 23.3201 219.768 24.1201C219.328 24.8401 218.748 25.1401 218.028 25.0201C213.708 23.6601 208.288 22.8401 201.768 22.5601C197.248 29.9601 193.788 37.0601 191.388 43.8601C189.068 50.7001 187.628 56.0201 187.068 59.8201C186.948 60.3001 186.548 60.6601 185.868 60.9001C185.148 61.1401 184.428 61.2401 183.708 61.2001C182.828 61.0801 182.208 60.8001 181.848 60.3601C181.368 59.8801 181.248 59.1601 181.488 58.2001C182.648 54.3601 184.048 50.4001 185.688 46.3201C187.328 42.2001 189.268 37.9201 191.508 33.4801C191.308 33.8001 191.068 34.1601 190.788 34.5601C190.508 34.9601 190.208 35.4001 189.888 35.8801C189.168 37.0401 188.368 38.2601 187.488 39.5401C186.608 40.8201 185.648 42.1801 184.608 43.6201C182.488 46.5001 180.328 48.8401 178.128 50.6401C175.848 52.4001 173.808 52.8201 172.008 51.9001C170.928 51.3001 170.328 50.0401 170.208 48.1201C170.128 46.2001 170.808 43.6201 172.248 40.3801C171.768 40.8201 171.248 41.3201 170.688 41.8801C170.168 42.4401 169.628 43.0201 169.068 43.6201C168.348 44.4201 167.608 45.2001 166.848 45.9601C166.128 46.7201 165.368 47.4801 164.568 48.2401C162.968 49.7601 161.368 50.9401 159.768 51.7801C158.128 52.6201 156.568 52.8401 155.088 52.4401C153.168 51.7201 152.488 50.1401 153.048 47.7001C153.568 45.3401 154.888 42.7801 157.008 40.0201C159.088 37.3401 161.548 35.1801 164.388 33.5401C167.668 31.8201 170.348 32.4401 172.428 35.4001C172.948 34.8801 173.608 34.1601 174.408 33.2401C175.488 31.9601 176.388 31.0201 177.108 30.4201C177.908 29.8601 178.668 29.6601 179.388 29.8201C180.188 30.0201 180.728 30.4401 181.008 31.0801C181.408 31.7601 181.368 32.5401 180.888 33.4201C176.008 42.1401 174.508 46.5001 176.388 46.5001C177.228 46.5001 178.708 45.3001 180.828 42.9001C181.868 41.7001 182.968 40.3401 184.128 38.8201C185.328 37.3001 186.588 35.6201 187.908 33.7801C189.228 31.9001 190.528 30.0401 191.808 28.2001C193.128 26.3201 194.448 24.4201 195.768 22.5001C189.888 22.5801 183.888 23.1801 177.768 24.3001C171.688 25.4201 165.788 27.2601 160.068 29.8201C159.388 30.0601 158.808 29.7801 158.328 28.9801C157.848 28.1401 157.608 27.2201 157.608 26.2201C157.688 25.1801 158.128 24.5201 158.928 24.2401C162.648 23.1201 166.248 22.1801 169.728 21.4201C173.248 20.6601 176.708 20.0601 180.108 19.6201C183.508 19.1801 186.728 18.8601 189.768 18.6601C192.848 18.4201 195.788 18.3001 198.588 18.3001C198.868 17.8601 199.128 17.4601 199.368 17.1001C199.648 16.7001 199.908 16.3001 200.148 15.9001C201.508 13.8601 202.668 12.1401 203.628 10.7401C204.588 9.34006 205.368 8.24006 205.968 7.44006C206.488 6.84006 207.228 6.72007 208.188 7.08007C209.108 7.36007 209.848 7.94006 210.408 8.82006C210.928 9.70007 210.828 10.5801 210.108 11.4601C209.108 12.5801 208.148 13.7201 207.228 14.8801C206.308 16.0001 205.428 17.1601 204.588 18.3601C208.468 18.5601 211.668 18.8001 214.188 19.0801C216.708 19.3601 218.588 19.7001 219.828 20.1001ZM169.788 37.5601C169.988 37.1201 169.788 36.8201 169.188 36.6601C168.548 36.5401 167.608 36.7801 166.368 37.3801C165.048 38.0201 163.508 39.3201 161.748 41.2801C161.508 41.5601 161.248 41.8801 160.968 42.2401C160.728 42.5601 160.448 42.9401 160.128 43.3801C159.448 44.3001 158.968 45.1001 158.688 45.7801C158.328 46.5801 158.328 47.0001 158.688 47.0401C159.048 47.1601 159.968 46.7201 161.448 45.7201C161.928 45.4001 162.428 45.0201 162.948 44.5801C163.468 44.1401 164.028 43.6401 164.628 43.0801C165.228 42.5201 165.788 41.9801 166.308 41.4601C166.868 40.9401 167.388 40.4201 167.868 39.9001C168.868 38.8201 169.508 38.0401 169.788 37.5601Z" fill="white"/>
<path d="M213.484 27.6001C213.204 27.9601 212.783 28.4801 212.223 29.1601C211.703 29.8001 211.124 30.4201 210.484 31.0201C209.844 31.6201 209.203 32.1001 208.563 32.4601C207.963 32.8201 207.463 32.8801 207.063 32.6401C206.623 32.3601 206.424 31.8601 206.464 31.1401C206.544 30.3801 206.723 29.5801 207.003 28.7401C207.323 27.8601 207.684 27.0201 208.084 26.2201C208.524 25.4201 208.883 24.8201 209.163 24.4201C209.563 23.9001 210.083 23.6601 210.723 23.7001C211.403 23.7401 212.024 23.9601 212.584 24.3601C213.144 24.7201 213.543 25.2001 213.783 25.8001C214.063 26.4001 213.964 27.0001 213.484 27.6001ZM216.604 38.5801C216.884 38.4201 217.163 38.4001 217.443 38.5201C217.723 38.6401 217.963 38.8201 218.163 39.0601C218.363 39.3001 218.464 39.5801 218.464 39.9001C218.504 40.2201 218.403 40.5001 218.163 40.7401C217.723 41.1401 217.124 41.7801 216.364 42.6601C215.604 43.5001 214.723 44.4201 213.723 45.4201C212.723 46.3801 211.644 47.3601 210.484 48.3601C209.324 49.3601 208.123 50.2201 206.883 50.9401C205.643 51.6201 204.403 52.1201 203.163 52.4401C201.963 52.7201 200.804 52.6401 199.684 52.2001C198.524 51.7601 197.784 50.9401 197.464 49.7401C197.144 48.5001 197.144 47.1001 197.464 45.5401C197.784 43.9401 198.384 42.2801 199.264 40.5601C200.144 38.8401 201.183 37.2201 202.383 35.7001C202.783 35.1801 203.324 34.9601 204.004 35.0401C204.684 35.0801 205.284 35.2801 205.804 35.6401C206.364 36.0001 206.763 36.4801 207.003 37.0801C207.243 37.6401 207.144 38.2001 206.704 38.7601C205.664 40.1201 204.824 41.3801 204.184 42.5401C203.584 43.6601 203.164 44.6401 202.924 45.4801C202.684 46.2801 202.584 46.9401 202.624 47.4601C202.704 47.9401 202.924 48.2001 203.284 48.2401C203.804 48.3201 204.563 48.1001 205.563 47.5801C206.603 47.0601 207.744 46.3401 208.984 45.4201C210.224 44.5001 211.504 43.4601 212.824 42.3001C214.184 41.1001 215.444 39.8601 216.604 38.5801Z" fill="white"/>
<path d="M229.58 49.9201C228.58 49.4001 228.06 48.5201 228.02 47.2801C228.02 46.0001 228.26 44.6201 228.74 43.1401C229.26 41.6201 229.88 40.1201 230.6 38.6401C231.36 37.1601 231.98 35.9401 232.46 34.9801C231.58 35.4601 230.62 36.2201 229.58 37.2601C228.58 38.3001 227.54 39.5001 226.46 40.8601C225.42 42.1801 224.34 43.5801 223.22 45.0601C222.14 46.5401 221.06 47.9601 219.98 49.3201C218.94 50.6001 217.86 51.6001 216.74 52.3201C215.62 53.0401 214.6 53.2001 213.68 52.8001C213.08 52.5201 212.74 51.9601 212.66 51.1201C212.54 50.2401 212.62 49.2001 212.9 48.0001C213.14 46.8001 213.52 45.5001 214.04 44.1001C214.56 42.7001 215.14 41.3601 215.78 40.0801C216.38 38.8001 216.98 37.6401 217.58 36.6001C218.22 35.5601 218.78 34.7801 219.26 34.2601C219.78 33.7401 220.36 33.5401 221 33.6601C221.64 33.7801 222.2 34.0601 222.68 34.5001C223.2 34.9401 223.56 35.4601 223.76 36.0601C223.96 36.6201 223.88 37.0801 223.52 37.4401C223.08 37.8801 222.58 38.5401 222.02 39.4201C221.46 40.3001 220.9 41.2201 220.34 42.1801C219.82 43.1401 219.34 44.0401 218.9 44.8801C218.46 45.7201 218.16 46.3401 218 46.7401C218.6 46.0601 219.38 45.1001 220.34 43.8601C221.3 42.5801 222.36 41.2401 223.52 39.8401C224.68 38.4001 225.88 36.9801 227.12 35.5801C228.4 34.1801 229.66 33.0001 230.9 32.0401C232.14 31.0401 233.32 30.3801 234.44 30.0601C235.56 29.7001 236.56 29.8601 237.44 30.5401C238.08 31.0201 238.36 31.7601 238.28 32.7601C238.2 33.7601 237.94 34.8601 237.5 36.0601C237.06 37.2601 236.54 38.4801 235.94 39.7201C235.34 40.9201 234.84 42.0001 234.44 42.9601C234.08 43.8801 233.9 44.6001 233.9 45.1201C233.9 45.6001 234.28 45.7201 235.04 45.4801C235.8 45.2001 237.04 44.4801 238.76 43.3201C240.48 42.1601 242.84 40.3801 245.84 37.9801C246.12 37.7801 246.42 37.7401 246.74 37.8601C247.06 37.9801 247.3 38.2001 247.46 38.5201C247.66 38.8001 247.74 39.1401 247.7 39.5401C247.7 39.9401 247.5 40.2801 247.1 40.5601C246.62 40.9201 245.94 41.4601 245.06 42.1801C244.22 42.9001 243.28 43.6801 242.24 44.5201C241.24 45.3201 240.16 46.1401 239 46.9801C237.84 47.7801 236.68 48.4801 235.52 49.0801C234.4 49.6401 233.32 50.0201 232.28 50.2201C231.28 50.4201 230.38 50.3201 229.58 49.9201Z" fill="white"/>
<path d="M259.916 41.0401C259.796 41.8801 259.456 42.9201 258.896 44.1601C258.336 45.4001 257.596 46.6001 256.676 47.7601C255.756 48.8801 254.636 49.8201 253.316 50.5801C252.036 51.3401 250.556 51.6601 248.876 51.5401C248.156 51.5001 247.436 51.3001 246.716 50.9401C245.996 50.5401 245.376 50.0201 244.856 49.3801C244.336 48.7401 243.936 48.0001 243.656 47.1601C243.376 46.2801 243.316 45.3001 243.476 44.2201C243.756 42.3001 244.296 40.6601 245.096 39.3001C245.936 37.9401 246.836 36.8001 247.796 35.8801C248.276 35.4401 248.876 35.3201 249.596 35.5201C250.316 35.6801 250.956 36.0801 251.516 36.7201C250.476 35.3201 249.976 34.0201 250.016 32.8201C250.096 31.6201 250.476 30.6401 251.156 29.8801C251.836 29.1201 252.696 28.6401 253.736 28.4401C254.816 28.2001 255.856 28.3601 256.856 28.9201C257.896 29.4401 258.776 30.4201 259.496 31.8601C260.216 33.2601 260.556 35.2001 260.516 37.6801C261.116 37.8801 261.736 38.0001 262.376 38.0401C263.056 38.0801 263.716 38.0601 264.356 37.9801C265.036 37.9001 265.676 37.8001 266.276 37.6801C266.876 37.5201 267.396 37.3801 267.836 37.2601C268.196 37.1401 268.476 37.2001 268.676 37.4401C268.916 37.6801 269.056 37.9801 269.096 38.3401C269.176 38.7001 269.156 39.0601 269.036 39.4201C268.956 39.7801 268.796 40.0201 268.556 40.1401C266.836 40.9001 265.196 41.3001 263.636 41.3401C262.116 41.3801 260.876 41.2801 259.916 41.0401ZM252.236 37.8001C252.356 38.0401 252.396 38.2801 252.356 38.5201C252.316 38.7601 252.116 39.0401 251.756 39.3601C251.036 40.0001 250.396 40.8001 249.836 41.7601C249.276 42.6801 248.856 43.5601 248.576 44.4001C248.336 45.2401 248.276 45.9601 248.396 46.5601C248.516 47.1201 248.916 47.3801 249.596 47.3401C250.196 47.3001 250.816 47.0001 251.456 46.4401C252.136 45.8801 252.756 45.2401 253.316 44.5201C253.876 43.7601 254.356 42.9601 254.756 42.1201C255.196 41.2801 255.476 40.5401 255.596 39.9001C255.076 39.7401 254.476 39.4601 253.796 39.0601C253.116 38.6601 252.596 38.2401 252.236 37.8001ZM254.336 32.1601C254.136 32.2801 254.016 32.5201 253.976 32.8801C253.976 33.2001 254.056 33.5801 254.216 34.0201C254.376 34.4201 254.616 34.8201 254.936 35.2201C255.256 35.6201 255.656 35.9401 256.136 36.1801C256.176 35.7001 256.156 35.2001 256.076 34.6801C256.036 34.1201 255.936 33.6401 255.776 33.2401C255.616 32.8001 255.396 32.4801 255.116 32.2801C254.876 32.0401 254.616 32.0001 254.336 32.1601Z" fill="white"/>
</svg>
