<svg width="306" height="77" viewBox="0 0 306 77" fill="none" xmlns="http://www.w3.org/2000/svg">
<path d="M36.7087 35.0999C37.3487 35.2199 37.7487 35.5799 37.9087 36.1799C38.1087 36.8199 38.0887 37.4199 37.8487 37.9799C37.6087 38.5799 37.1887 38.9399 36.5887 39.0599C36.3887 39.0999 36.1287 39.1399 35.8087 39.1799C35.5287 39.2199 35.2087 39.2599 34.8487 39.2999C33.3287 39.4999 31.6687 39.7399 29.8687 40.0199C27.9887 40.3399 26.8087 40.7399 26.3287 41.2199C25.4887 42.2599 24.5487 43.5199 23.5087 44.9999C22.5087 46.4399 21.4287 48.1199 20.2687 50.0399C19.0687 51.9599 18.0087 53.6799 17.0887 55.1999C16.1687 56.6799 15.3687 57.9999 14.6887 59.1599C14.0887 59.8799 13.4087 60.1599 12.6487 59.9999C11.7687 59.8799 11.2087 59.5399 10.9687 58.9799C10.7287 58.4599 10.6687 57.9399 10.7887 57.4199C11.0687 56.7799 11.9087 55.3999 13.3087 53.2799C13.9887 52.2399 14.6887 51.1799 15.4087 50.0999C16.1287 49.0199 16.8487 47.9399 17.5687 46.8599C18.2487 45.6999 18.8287 44.7599 19.3087 44.0399C19.8287 43.2799 20.2487 42.6999 20.5687 42.2999C20.2487 42.3799 19.9487 42.4599 19.6687 42.5399C19.4287 42.6199 19.1887 42.6999 18.9487 42.7799C16.7087 43.2599 15.2087 43.6599 14.4487 43.9799C13.7287 44.2999 13.1687 44.7199 12.7687 45.2399C12.2487 45.7999 11.6687 46.6799 11.0287 47.8799C10.7087 48.3599 10.3487 48.9199 9.94873 49.5599C9.58873 50.1599 9.12874 50.8599 8.56874 51.6599C8.36873 51.9799 8.16873 52.2999 7.96873 52.6199C7.80873 52.9399 7.62873 53.2999 7.42873 53.6999C6.98873 54.4999 6.58873 55.1999 6.22873 55.7999C5.90873 56.3999 5.60873 56.9199 5.32873 57.3599C4.84873 58.1599 4.12873 58.4999 3.16873 58.3799C2.12873 58.1399 1.54873 57.7599 1.42873 57.2399C1.30873 56.6399 1.44873 55.9599 1.84873 55.1999C2.12873 54.6399 2.46873 53.9799 2.86873 53.2199C3.26873 52.4599 3.74873 51.6199 4.30873 50.6999C4.86873 49.7799 5.38873 48.8999 5.86873 48.0599C6.34873 47.2199 6.80873 46.3999 7.24873 45.5999C7.00873 45.6799 6.72873 45.7599 6.40873 45.8399C6.12873 45.9199 5.82873 45.9999 5.50873 46.0799C5.14873 46.1599 4.80873 46.2399 4.48873 46.32C4.16873 46.3999 3.84873 46.4799 3.52873 46.5599C2.84873 46.7599 2.40873 46.8599 2.20873 46.8599C1.64873 46.8599 1.22873 46.5799 0.948732 46.0199C0.788732 45.7399 0.648734 45.4799 0.528734 45.2399C0.448734 44.9999 0.388734 44.7599 0.348734 44.5199C0.228734 44.0799 0.488732 43.6999 1.12873 43.3799C3.64873 42.4599 5.54873 41.8999 6.82873 41.6999C7.26873 41.6199 7.68873 41.5399 8.08873 41.4599C8.52873 41.3399 8.94873 41.2199 9.34873 41.0999C10.1887 40.7799 10.8287 40.2199 11.2687 39.4199C11.5487 38.9799 11.8887 38.4399 12.2887 37.7999C12.6887 37.1199 13.1687 36.3199 13.7287 35.3999L6.94873 37.1999C6.22873 37.3199 5.66873 37.1399 5.26873 36.6599C4.82873 36.2599 4.60873 35.7399 4.60873 35.0999C4.60873 34.4999 4.92873 34.0399 5.56873 33.7199C8.40873 32.6799 11.4287 31.8199 14.6287 31.1399L16.2487 30.7799C17.2087 30.4199 18.3487 29.3199 19.6687 27.4799C20.3487 26.5599 21.0087 25.6399 21.6487 24.7199C22.2887 23.7599 22.8887 22.7999 23.4487 21.8399C23.9287 21.1199 24.3287 20.4999 24.6487 19.9799C25.0087 19.4199 25.3287 18.9799 25.6087 18.6599C25.9287 18.2999 26.4887 18.0799 27.2887 17.9999C28.1687 17.9999 28.8487 18.2199 29.3287 18.6599C29.9287 19.1399 30.1687 19.6399 30.0487 20.1599C29.9287 20.6799 27.9487 23.6399 24.1087 29.0399L32.0887 27.8399C32.2887 27.6799 32.8287 27.0999 33.7087 26.0999C34.1487 25.5799 34.5887 25.0399 35.0287 24.4799C35.5087 23.9199 36.0087 23.3399 36.5287 22.7399C36.8487 22.3799 37.1487 22.0599 37.4287 21.7799C37.7087 21.4599 37.9487 21.1599 38.1487 20.8799C38.3487 20.6399 38.5287 20.4399 38.6887 20.2799C38.8487 20.1199 38.9687 19.9999 39.0487 19.9199C39.7287 19.3599 40.4487 19.1399 41.2087 19.2599C41.9687 19.3399 42.5687 19.6199 43.0087 20.0999C43.4887 20.4999 43.5087 21.0399 43.0687 21.7199L38.2087 27.3599C38.7687 27.2799 39.3287 27.2199 39.8887 27.1799C40.4487 27.0999 41.0287 27.0199 41.6287 26.9399C42.8687 26.8199 43.7687 26.7599 44.3287 26.7599C44.7687 26.7599 44.9887 26.9799 44.9887 27.4199C44.9087 27.9399 44.7287 28.4599 44.4487 28.9799C44.0887 29.5799 43.7687 29.9399 43.4887 30.0599C43.3687 30.1399 43.2487 30.1999 43.1287 30.2399C43.0087 30.2399 42.9087 30.2599 42.8287 30.2999C41.7487 30.3799 40.7487 30.4599 39.8287 30.5399C38.9487 30.6199 38.1487 30.7399 37.4287 30.8999C36.0287 31.1799 34.8687 31.6599 33.9487 32.3399C33.1487 32.9399 32.0487 34.1399 30.6487 35.9399C30.5687 36.0199 30.5287 36.0599 30.5287 36.0599C30.5687 36.0599 30.6487 36.0599 30.7687 36.0599C30.8887 36.0199 31.0487 35.9799 31.2487 35.9399C31.8887 35.7799 32.8287 35.5999 34.0687 35.3999C34.7087 35.3199 35.2287 35.2599 35.6287 35.2199C36.0687 35.1399 36.4287 35.0999 36.7087 35.0999ZM27.5887 32.4599C27.1887 32.5399 26.8287 32.6199 26.5087 32.6999C26.1887 32.7399 25.8887 32.7999 25.6087 32.8799C25.0487 32.9599 24.4887 33.0599 23.9287 33.1799C23.4087 33.2599 22.8687 33.3599 22.3087 33.4799C21.1487 33.6799 20.2287 34.1199 19.5487 34.7999C19.2287 35.1199 18.7687 35.6799 18.1687 36.4799C17.5687 37.2399 16.8087 38.1999 15.8887 39.3599C16.9287 39.0799 17.7687 38.8599 18.4087 38.6999C19.0887 38.5399 19.5887 38.4399 19.9087 38.3999C21.4287 38.1999 22.7287 37.8199 23.8087 37.2599L27.5887 32.4599Z" fill="white"/>
<path d="M94.544 13.9799C95.064 13.6599 95.564 13.6399 96.044 13.9199C96.524 14.1999 96.904 14.5999 97.184 15.1199C97.464 15.5999 97.584 16.1399 97.544 16.7399C97.544 17.2999 97.304 17.6999 96.824 17.9399C93.704 19.8199 90.564 21.6799 87.404 23.5199C84.244 25.3599 81.344 27.2399 78.704 29.1599C80.624 30.8799 82.024 32.5799 82.904 34.2599C83.824 35.8999 84.344 37.5199 84.464 39.1199C84.624 40.7199 84.424 42.2799 83.864 43.7999C83.304 45.2799 82.524 46.7399 81.524 48.1799C80.524 49.5799 79.324 50.96 77.924 52.32C76.564 53.64 75.124 54.9199 73.604 56.1599C70.964 58.3199 68.304 60.0199 65.624 61.2599C62.984 62.5399 60.504 63.3799 58.184 63.7799C55.864 64.2199 53.824 64.2399 52.064 63.8399C50.304 63.4399 49.004 62.6399 48.164 61.4399C47.364 60.2399 47.104 58.6599 47.384 56.6999C47.704 54.6999 48.764 52.3599 50.564 49.6799C52.364 46.9599 55.024 43.8999 58.544 40.4999C62.104 37.0599 66.684 33.2799 72.284 29.1599C71.444 28.4799 70.584 27.7599 69.704 26.9999C68.864 26.2399 68.084 25.4399 67.364 24.5999C66.644 23.7199 66.064 22.7799 65.624 21.7799C65.184 20.7799 64.964 19.6999 64.964 18.5399C64.964 17.0599 65.324 15.6199 66.044 14.2199C66.764 12.7799 67.724 11.4399 68.924 10.1999C70.124 8.95994 71.484 7.81994 73.004 6.77994C74.564 5.69994 76.184 4.73994 77.864 3.89994C79.544 3.05994 81.224 2.35994 82.904 1.79994C84.584 1.23994 86.1641 0.819945 87.6441 0.539944C88.284 0.419943 88.824 0.63994 89.264 1.19994C89.704 1.75994 89.984 2.41994 90.104 3.17994C90.264 3.89994 90.224 4.59994 89.984 5.27994C89.744 5.91994 89.264 6.29994 88.544 6.41994C87.584 6.53994 86.444 6.79994 85.124 7.19994C83.844 7.55994 82.504 8.03994 81.104 8.63994C79.744 9.23994 78.384 9.93994 77.024 10.7399C75.704 11.5399 74.544 12.4399 73.544 13.4399C72.544 14.3999 71.764 15.4599 71.204 16.6199C70.644 17.7399 70.464 18.9199 70.664 20.1599C70.824 21.2399 71.324 22.2599 72.164 23.2199C73.044 24.1399 74.284 25.2599 75.884 26.5799C77.044 25.7399 78.344 24.8199 79.784 23.8199C81.224 22.8199 82.744 21.7799 84.344 20.6999C85.984 19.6199 87.664 18.5199 89.384 17.3999C91.104 16.2399 92.824 15.0999 94.544 13.9799ZM53.864 53.7599C53.144 55.2799 52.904 56.4199 53.144 57.1799C53.424 57.9799 54.024 58.4599 54.944 58.6199C55.904 58.7799 57.124 58.6599 58.604 58.2599C60.084 57.8999 61.664 57.3199 63.344 56.5199C65.024 55.7199 66.744 54.7599 68.504 53.6399C70.264 52.4799 71.864 51.2199 73.304 49.8599C74.784 48.4599 76.044 46.9999 77.084 45.4799C78.164 43.9199 78.864 42.3599 79.184 40.7999C79.504 39.1999 79.364 37.6399 78.764 36.1199C78.204 34.5999 77.024 33.1399 75.224 31.7399C73.584 32.8999 71.744 34.2999 69.704 35.9399C67.704 37.5799 65.704 39.3599 63.704 41.2799C61.704 43.1999 59.824 45.2199 58.064 47.3399C56.344 49.4599 54.944 51.5999 53.864 53.7599Z" fill="white"/>
<path d="M105.344 39.7799C104.224 40.8599 102.944 42.1999 101.504 43.7999C100.064 45.3599 98.5641 46.8599 97.0041 48.2999C95.4841 49.6999 93.924 50.8199 92.324 51.6599C90.764 52.4999 89.264 52.6999 87.824 52.2599C86.864 51.9799 86.244 51.4199 85.964 50.5799C85.644 49.7399 85.604 48.7599 85.844 47.6399C86.044 46.4799 86.504 45.2399 87.224 43.9199C87.904 42.5999 88.744 41.2999 89.744 40.0199C90.744 38.6999 91.864 37.4799 93.104 36.3599C94.384 35.2399 95.704 34.2999 97.064 33.5399C98.664 32.6199 100.144 32.3399 101.504 32.6999C102.904 33.0599 104.084 33.9399 105.044 35.3399C105.324 35.0599 105.664 34.6999 106.064 34.2599C106.464 33.8199 106.864 33.3599 107.264 32.8799C107.704 32.3999 108.124 31.9399 108.524 31.4999C108.964 31.0599 109.344 30.7199 109.664 30.4799C110.184 30.0399 110.744 29.8399 111.344 29.8799C111.944 29.8799 112.444 30.0399 112.844 30.3599C113.284 30.6399 113.564 31.0599 113.684 31.6199C113.844 32.1799 113.744 32.7799 113.384 33.4199C111.184 37.4599 109.724 40.5199 109.004 42.5999C108.324 44.6799 108.284 45.8799 108.884 46.1999C109.484 46.5199 110.724 45.9999 112.604 44.6399C114.484 43.2799 116.904 41.1999 119.864 38.3999C120.224 38.0799 120.564 37.9399 120.884 37.9799C121.204 37.9799 121.444 38.0999 121.604 38.3399C121.804 38.5799 121.884 38.8999 121.844 39.2999C121.804 39.6999 121.584 40.1399 121.184 40.6199C117.424 45.0199 114.304 47.9599 111.824 49.4399C109.344 50.8799 107.244 51.1599 105.524 50.2799C104.444 49.7199 103.824 48.6399 103.664 47.0399C103.504 45.4399 104.064 43.0199 105.344 39.7799ZM94.124 45.5999C94.804 45.1199 95.564 44.4999 96.404 43.7399C97.284 42.9799 98.124 42.1999 98.924 41.3999C99.764 40.5999 100.504 39.8399 101.144 39.1199C101.784 38.3999 102.204 37.8599 102.404 37.4999C102.564 37.2199 102.484 36.9799 102.164 36.7799C101.844 36.5799 101.324 36.5599 100.604 36.7199C99.924 36.8799 99.044 37.2999 97.964 37.9799C96.924 38.6599 95.744 39.7399 94.424 41.2199C94.144 41.5399 93.784 41.9799 93.344 42.5399C92.944 43.0599 92.564 43.5999 92.204 44.1599C91.884 44.6799 91.604 45.1799 91.364 45.6599C91.164 46.1399 91.084 46.4999 91.124 46.7399C91.204 46.9399 91.464 46.9799 91.904 46.8599C92.384 46.6999 93.124 46.2799 94.124 45.5999Z" fill="white"/>
<path d="M143.161 30.1799C143.041 30.6199 142.761 31.3999 142.321 32.5199C141.881 33.5999 141.361 34.8599 140.761 36.2999C140.201 37.7399 139.581 39.2399 138.901 40.7999C138.261 42.3599 137.641 43.7999 137.041 45.1199C138.121 44.3999 139.561 43.4599 141.361 42.2999C143.201 41.0999 145.141 39.9599 147.181 38.8799C147.581 38.6799 147.961 38.6599 148.321 38.82C148.721 38.9399 149.021 39.1599 149.221 39.4799C149.421 39.7599 149.481 40.0999 149.401 40.4999C149.361 40.8999 149.141 41.2399 148.741 41.5199C148.181 41.8799 147.441 42.3599 146.521 42.9599C145.641 43.5599 144.681 44.1999 143.641 44.8799C142.601 45.5599 141.521 46.2599 140.401 46.9799C139.321 47.6999 138.321 48.3599 137.401 48.9599C136.481 49.5599 135.701 50.0799 135.061 50.5199C134.421 50.9599 134.041 51.2399 133.921 51.3599C132.641 53.6799 131.401 55.8799 130.201 57.9599C129.041 60.0399 127.841 61.9999 126.601 63.8399C125.361 65.7199 124.061 67.4599 122.701 69.0599C121.341 70.6999 119.861 72.1999 118.261 73.5599C116.861 74.7199 115.521 75.4799 114.241 75.8399C112.961 76.2399 111.821 76.3199 110.821 76.0799C109.781 75.8799 108.941 75.4199 108.301 74.6999C107.621 73.9799 107.221 73.0599 107.101 71.9399C106.941 70.8599 107.121 69.6399 107.641 68.2799C108.121 66.9599 109.001 65.5799 110.281 64.1399C111.921 62.3399 113.781 60.6199 115.861 58.9799C117.941 57.3399 119.921 55.8999 121.801 54.6599C123.721 53.3799 125.361 52.3199 126.721 51.4799C128.081 50.6399 128.861 50.1199 129.061 49.9199C129.421 49.3599 129.801 48.6999 130.201 47.9399C130.601 47.1799 131.001 46.3999 131.401 45.5999C131.841 44.7599 132.241 43.9399 132.601 43.1399C132.961 42.2999 133.301 41.5399 133.621 40.8599C132.901 41.6999 132.181 42.5799 131.461 43.4999C130.741 44.4199 129.981 45.2999 129.181 46.1399C128.421 46.9799 127.621 47.7799 126.781 48.5399C125.981 49.2599 125.121 49.8599 124.201 50.3399C123.201 50.8999 122.241 51.1999 121.321 51.2399C120.401 51.2399 119.581 51.0599 118.861 50.6999C118.181 50.2999 117.641 49.7599 117.241 49.0799C116.801 48.3999 116.581 47.6199 116.581 46.7399C116.541 45.8599 116.841 44.6399 117.481 43.0799C118.081 41.5199 118.801 39.9199 119.641 38.2799C120.481 36.5999 121.341 35.0399 122.221 33.5999C123.101 32.1199 123.781 31.0399 124.261 30.3599C124.661 29.7999 125.181 29.5799 125.821 29.6999C126.501 29.7799 127.121 30.0199 127.681 30.4199C128.241 30.8199 128.661 31.2999 128.941 31.8599C129.221 32.4199 129.161 32.8799 128.761 33.2399C128.561 33.3999 128.201 33.8999 127.681 34.7399C127.161 35.5399 126.581 36.4799 125.941 37.5599C125.341 38.6399 124.721 39.7799 124.081 40.9799C123.441 42.1799 122.921 43.2599 122.521 44.2199C122.161 45.1399 121.961 45.8599 121.921 46.3799C121.921 46.8999 122.201 47.0399 122.761 46.7999C123.881 46.3199 125.141 45.3399 126.541 43.8599C127.941 42.3399 129.341 40.6399 130.741 38.7599C132.141 36.8799 133.461 34.9599 134.701 32.9999C135.941 31.0399 136.981 29.3199 137.821 27.8399C138.181 27.2399 138.701 26.8999 139.381 26.8199C140.061 26.7399 140.701 26.8399 141.301 27.1199C141.941 27.3999 142.461 27.8199 142.861 28.3799C143.261 28.9399 143.361 29.5399 143.161 30.1799ZM126.361 55.7399C125.481 56.3399 124.541 56.9999 123.541 57.7199C122.541 58.4399 121.541 59.1799 120.541 59.9399C119.581 60.6999 118.641 61.4399 117.721 62.1599C116.801 62.9199 115.981 63.5999 115.261 64.1999C113.661 65.6399 112.541 66.92 111.901 68.04C111.221 69.2 110.941 70.0399 111.061 70.5599C111.141 71.1199 111.581 71.3 112.381 71.1C113.141 70.9 114.181 70.1999 115.501 68.9999C116.501 68.0799 117.501 67.0599 118.501 65.9399C119.501 64.8199 120.461 63.6799 121.381 62.5199C122.341 61.3599 123.241 60.1999 124.081 59.0399C124.921 57.8799 125.681 56.7799 126.361 55.7399Z" fill="white"/>
<path d="M161.643 33.8999C162.043 33.2599 162.563 32.9399 163.203 32.9399C163.883 32.8999 164.523 33.0599 165.123 33.4199C165.723 33.7399 166.183 34.1599 166.503 34.6799C166.823 35.1599 166.823 35.5799 166.503 35.9399C165.223 37.6999 164.203 39.3799 163.443 40.9799C162.723 42.5399 162.243 43.8599 162.003 44.9399C161.763 46.0199 161.743 46.7999 161.943 47.2799C162.183 47.7599 162.623 47.7999 163.263 47.3999C163.543 47.2399 164.003 46.8199 164.643 46.1399C165.283 45.4599 165.963 44.6599 166.683 43.7399C167.443 42.7799 168.183 41.7399 168.903 40.6199C169.623 39.4999 170.223 38.3999 170.703 37.3199C170.903 35.2799 171.223 33.5799 171.663 32.2199C172.103 30.8199 172.603 29.7199 173.163 28.9199C173.723 28.1199 174.323 27.5999 174.963 27.3599C175.603 27.0799 176.223 27.0199 176.823 27.1799C177.863 27.4599 178.483 28.0599 178.683 28.9799C178.883 29.8599 178.843 30.8599 178.563 31.9799C178.283 33.0599 177.863 34.1399 177.303 35.2199C176.783 36.2999 176.323 37.1399 175.923 37.7399C175.843 39.3799 176.023 40.4799 176.463 41.0399C176.903 41.5599 177.503 41.7199 178.263 41.5199C179.063 41.3199 179.983 40.8199 181.023 40.0199C182.063 39.2199 183.143 38.2999 184.263 37.2599C184.543 36.9799 184.863 36.8999 185.223 37.0199C185.583 37.0999 185.863 37.2999 186.063 37.6199C186.303 37.8999 186.423 38.2399 186.423 38.6399C186.463 39.0399 186.283 39.4199 185.883 39.7799C185.443 40.2199 184.863 40.7399 184.143 41.3399C183.423 41.9399 182.643 42.5399 181.803 43.1399C180.963 43.7399 180.083 44.2599 179.163 44.6999C178.283 45.1399 177.423 45.3999 176.583 45.4799C175.743 45.5199 174.963 45.3399 174.243 44.9399C173.523 44.4999 172.923 43.7199 172.443 42.5999C172.123 42.9999 171.683 43.5999 171.123 44.3999C170.563 45.1599 169.903 45.9599 169.143 46.7999C168.423 47.6399 167.643 48.4399 166.803 49.1999C165.963 49.9599 165.143 50.5399 164.343 50.9399C163.343 51.4199 162.383 51.5599 161.463 51.3599C160.543 51.1199 159.723 50.6999 159.003 50.0999C158.283 49.4599 157.723 48.6999 157.323 47.8199C156.923 46.9399 156.723 46.0799 156.723 45.2399C156.483 45.5999 156.003 46.1999 155.283 47.0399C154.563 47.8799 153.763 48.7399 152.883 49.6199C152.043 50.4999 151.163 51.2999 150.243 52.0199C149.323 52.7399 148.543 53.1599 147.903 53.2799C146.503 53.5199 145.323 53.2199 144.363 52.3799C143.363 51.4999 142.843 50.2999 142.803 48.7799C142.803 48.0999 143.003 47.2399 143.403 46.1999C143.803 45.1199 144.323 43.9599 144.963 42.7199C145.563 41.4799 146.243 40.2199 147.003 38.9399C147.763 37.6199 148.483 36.3999 149.163 35.2799C149.883 34.1599 150.523 33.1799 151.083 32.3399C151.643 31.4599 152.043 30.8199 152.283 30.4199C152.643 29.8599 153.183 29.6399 153.903 29.7599C154.663 29.8399 155.383 30.1199 156.063 30.5999C156.743 31.0399 157.263 31.5599 157.623 32.1599C157.983 32.7599 157.943 33.2799 157.503 33.7199C156.943 34.2799 156.243 35.1199 155.403 36.2399C154.603 37.3599 153.783 38.5599 152.943 39.8399C152.103 41.0799 151.303 42.3399 150.543 43.6199C149.823 44.8999 149.263 45.9999 148.863 46.9199C148.503 47.7999 148.343 48.4199 148.383 48.7799C148.463 49.0999 148.883 48.9799 149.643 48.4199C150.483 47.7799 151.483 46.8399 152.643 45.5999C153.803 44.3199 154.963 42.9799 156.123 41.5799C157.283 40.1399 158.363 38.7399 159.363 37.3799C160.363 35.9799 161.123 34.8199 161.643 33.8999Z" fill="white"/>
<path d="M246.505 39.0599C246.905 38.7799 247.285 38.7199 247.645 38.8799C248.045 39.0799 248.265 39.3799 248.305 39.7799C248.425 40.1799 248.225 40.6399 247.705 41.1599C246.745 41.9999 245.765 42.8199 244.765 43.6199C243.805 44.3799 242.805 45.1199 241.765 45.8399C240.725 46.5999 239.725 47.2399 238.765 47.7599C237.805 48.2799 236.865 48.6999 235.945 49.0199C234.185 49.6599 232.685 49.5799 231.445 48.7799C230.405 47.7399 230.065 46.2599 230.425 44.3399C230.865 42.2599 231.365 40.5199 231.925 39.1199C232.005 38.8399 232.085 38.5999 232.165 38.3999C232.245 38.1999 232.305 38.0199 232.345 37.8599C232.465 37.5799 232.485 37.3999 232.405 37.3199C231.245 37.9999 229.625 39.6999 227.545 42.4199C226.985 43.1799 226.405 43.9199 225.805 44.6399C225.205 45.3599 224.585 46.0799 223.945 46.7999C222.665 48.1999 221.425 49.2599 220.225 49.9799C219.025 50.7799 217.885 50.8999 216.805 50.3399C215.565 49.5799 215.125 48.1199 215.485 45.9599C215.685 44.9199 215.965 43.8399 216.325 42.7199C216.725 41.5599 217.205 40.3999 217.765 39.2399C218.325 38.0399 218.825 36.9799 219.265 36.0599C219.745 35.0999 220.185 34.2399 220.585 33.4799C220.585 33.4799 220.625 33.3999 220.705 33.2399C219.625 34.3199 218.485 35.5799 217.285 37.0199C216.085 38.4599 214.845 40.0999 213.565 41.9399C211.325 45.0999 209.105 47.8799 206.905 50.2799C205.705 51.5599 204.565 52.4799 203.485 53.0399C202.365 53.6399 201.365 53.7399 200.485 53.3399C199.245 52.7399 198.785 51.3999 199.105 49.3199C199.385 47.2799 200.045 45.0599 201.085 42.6599C201.565 41.4199 202.045 40.2799 202.525 39.2399C203.005 38.1999 203.465 37.2199 203.905 36.2999C204.105 35.8199 204.285 35.3999 204.445 35.0399C204.645 34.6799 204.805 34.3599 204.925 34.0799C205.085 33.5599 205.145 33.2999 205.105 33.2999L195.505 34.4399C197.505 36.1199 198.345 38.5399 198.025 41.6999C197.745 44.8199 196.505 47.5999 194.305 50.0399C192.105 52.3999 189.645 53.7599 186.925 54.1199C184.165 54.5199 182.205 53.9599 181.045 52.4399C179.925 50.8799 179.625 48.7599 180.145 46.0799C180.665 43.4799 182.085 40.6599 184.405 37.6199C184.925 37.0199 185.645 36.8799 186.565 37.1999C187.405 37.5199 188.105 38.0599 188.665 38.82C189.185 39.5399 189.225 40.1799 188.785 40.7399C187.065 42.5399 185.865 44.3199 185.185 46.0799C184.465 47.8399 184.325 49.2199 184.765 50.2199C185.245 51.1399 186.245 51.1599 187.765 50.2799C189.365 49.3199 190.685 47.7799 191.725 45.6599C192.805 43.5399 193.165 41.3599 192.805 39.1199C192.445 36.8799 191.165 35.5399 188.965 35.0999C188.325 34.9799 187.905 34.5399 187.705 33.7799C187.585 33.0199 187.745 32.1999 188.185 31.3199C188.665 30.4799 189.305 30.1399 190.105 30.2999C192.745 31.0199 195.465 31.3199 198.265 31.1999C201.025 31.0799 203.665 30.6599 206.185 29.9399C207.505 29.7399 208.625 30.0399 209.545 30.8399C210.425 31.6799 210.985 32.6199 211.225 33.6599C211.465 34.7799 211.285 35.6999 210.685 36.4199C209.445 37.8999 208.185 39.8399 206.905 42.2399C205.585 44.7199 204.765 46.5799 204.445 47.8199C206.565 45.8599 209.025 42.9399 211.825 39.0599C212.745 37.7799 213.685 36.5399 214.645 35.3399C215.605 34.1399 216.565 32.9599 217.525 31.7999C219.525 29.4399 221.165 27.9199 222.445 27.2399C223.805 26.4799 225.085 26.4999 226.285 27.2999C227.485 28.0599 227.965 29.1199 227.725 30.4799C227.445 31.7599 226.805 33.2999 225.805 35.0999C225.645 35.4199 225.485 35.7199 225.325 35.9999C225.205 36.2399 225.065 36.4999 224.905 36.7799C224.545 37.5399 224.185 38.2799 223.825 38.9999C223.505 39.6799 223.185 40.3599 222.865 41.0399C222.545 41.7199 222.285 42.3199 222.085 42.8399C221.885 43.3599 221.705 43.8199 221.545 44.2199C221.265 45.0599 221.245 45.3799 221.485 45.1799C221.805 44.9799 222.465 44.2199 223.465 42.8999C224.065 42.0999 224.745 41.2399 225.505 40.3199C226.265 39.3999 227.125 38.3999 228.085 37.3199C229.045 36.2399 229.945 35.3399 230.785 34.6199C231.625 33.8999 232.385 33.3199 233.065 32.8799C234.425 32.0399 235.705 32.0199 236.905 32.8199C238.145 33.6199 238.605 34.6199 238.285 35.8199C238.005 36.9799 237.485 38.4799 236.725 40.3199C236.285 41.4399 235.965 42.4799 235.765 43.4399C235.565 44.3199 235.665 44.8399 236.065 44.9999C236.665 45.1999 237.665 44.9599 239.065 44.2799C240.465 43.5999 241.825 42.7599 243.145 41.7599C243.825 41.2399 244.445 40.7599 245.005 40.3199C245.565 39.8799 246.065 39.4599 246.505 39.0599Z" fill="white"/>
<path d="M260.617 39.7799C259.497 40.8599 258.217 42.1999 256.777 43.7999C255.337 45.3599 253.837 46.8599 252.277 48.2999C250.757 49.6999 249.197 50.8199 247.597 51.6599C246.037 52.4999 244.537 52.6999 243.097 52.2599C242.137 51.9799 241.518 51.4199 241.238 50.5799C240.918 49.7399 240.877 48.7599 241.117 47.6399C241.317 46.4799 241.777 45.2399 242.497 43.9199C243.177 42.5999 244.018 41.2999 245.018 40.0199C246.018 38.6999 247.137 37.4799 248.377 36.3599C249.657 35.2399 250.977 34.2999 252.337 33.5399C253.937 32.6199 255.417 32.3399 256.777 32.6999C258.177 33.0599 259.357 33.9399 260.317 35.3399C260.597 35.0599 260.937 34.6999 261.337 34.2599C261.737 33.8199 262.137 33.3599 262.537 32.8799C262.977 32.3999 263.397 31.9399 263.797 31.4999C264.237 31.0599 264.617 30.7199 264.937 30.4799C265.457 30.0399 266.017 29.8399 266.617 29.8799C267.217 29.8799 267.717 30.0399 268.117 30.3599C268.557 30.6399 268.837 31.0599 268.957 31.6199C269.117 32.1799 269.017 32.7799 268.657 33.4199C266.457 37.4599 264.997 40.5199 264.277 42.5999C263.597 44.6799 263.557 45.8799 264.157 46.1999C264.757 46.5199 265.997 45.9999 267.877 44.6399C269.757 43.2799 272.177 41.1999 275.137 38.3999C275.497 38.0799 275.837 37.9399 276.157 37.9799C276.477 37.9799 276.717 38.0999 276.877 38.3399C277.077 38.5799 277.157 38.8999 277.117 39.2999C277.077 39.6999 276.857 40.1399 276.457 40.6199C272.697 45.0199 269.577 47.9599 267.097 49.4399C264.617 50.8799 262.517 51.1599 260.797 50.2799C259.717 49.7199 259.097 48.6399 258.937 47.0399C258.777 45.4399 259.337 43.0199 260.617 39.7799ZM249.397 45.5999C250.077 45.1199 250.837 44.4999 251.677 43.7399C252.557 42.9799 253.397 42.1999 254.197 41.3999C255.037 40.5999 255.777 39.8399 256.417 39.1199C257.057 38.3999 257.477 37.8599 257.677 37.4999C257.837 37.2199 257.757 36.9799 257.437 36.7799C257.117 36.5799 256.597 36.5599 255.877 36.7199C255.197 36.8799 254.318 37.2999 253.238 37.9799C252.198 38.6599 251.017 39.7399 249.697 41.2199C249.417 41.5399 249.057 41.9799 248.617 42.5399C248.217 43.0599 247.837 43.5999 247.477 44.1599C247.157 44.6799 246.877 45.1799 246.637 45.6599C246.437 46.1399 246.357 46.4999 246.397 46.7399C246.477 46.9399 246.737 46.9799 247.177 46.8599C247.657 46.6999 248.397 46.2799 249.397 45.5999Z" fill="white"/>
<path d="M287.394 49.9199C286.394 49.3999 285.874 48.5199 285.834 47.2799C285.834 45.9999 286.074 44.6199 286.554 43.1399C287.074 41.6199 287.694 40.1199 288.414 38.6399C289.174 37.1599 289.794 35.9399 290.274 34.9799C289.394 35.4599 288.434 36.2199 287.394 37.2599C286.394 38.2999 285.354 39.4999 284.274 40.8599C283.234 42.1799 282.154 43.5799 281.034 45.0599C279.954 46.5399 278.874 47.9599 277.794 49.3199C276.754 50.5999 275.674 51.6 274.554 52.32C273.434 53.04 272.414 53.1999 271.494 52.7999C270.894 52.5199 270.554 51.9599 270.474 51.1199C270.354 50.2399 270.434 49.1999 270.714 47.9999C270.954 46.7999 271.334 45.4999 271.854 44.0999C272.374 42.6999 272.954 41.3599 273.594 40.0799C274.194 38.7999 274.794 37.6399 275.394 36.5999C276.034 35.5599 276.594 34.7799 277.074 34.2599C277.594 33.7399 278.174 33.5399 278.814 33.6599C279.454 33.7799 280.014 34.0599 280.494 34.4999C281.014 34.9399 281.374 35.4599 281.574 36.0599C281.774 36.6199 281.694 37.0799 281.334 37.4399C280.894 37.8799 280.394 38.5399 279.834 39.4199C279.274 40.2999 278.714 41.2199 278.154 42.1799C277.634 43.1399 277.154 44.0399 276.714 44.8799C276.274 45.7199 275.974 46.3399 275.814 46.7399C276.414 46.0599 277.194 45.0999 278.154 43.8599C279.114 42.5799 280.174 41.2399 281.334 39.8399C282.494 38.3999 283.694 36.9799 284.934 35.5799C286.214 34.1799 287.474 32.9999 288.714 32.0399C289.954 31.0399 291.134 30.3799 292.254 30.0599C293.374 29.6999 294.374 29.8599 295.254 30.5399C295.894 31.0199 296.174 31.7599 296.094 32.7599C296.014 33.7599 295.754 34.8599 295.314 36.0599C294.874 37.2599 294.354 38.4799 293.754 39.7199C293.154 40.9199 292.654 41.9999 292.254 42.9599C291.894 43.8799 291.714 44.5999 291.714 45.1199C291.714 45.5999 292.094 45.7199 292.854 45.4799C293.614 45.1999 294.854 44.4799 296.574 43.3199C298.294 42.1599 300.654 40.3799 303.654 37.9799C303.934 37.7799 304.234 37.7399 304.554 37.8599C304.874 37.9799 305.114 38.1999 305.274 38.5199C305.474 38.7999 305.554 39.1399 305.514 39.5399C305.514 39.9399 305.314 40.2799 304.914 40.5599C304.434 40.9199 303.754 41.4599 302.874 42.1799C302.034 42.8999 301.094 43.6799 300.054 44.5199C299.054 45.3199 297.974 46.1399 296.814 46.9799C295.654 47.7799 294.494 48.4799 293.334 49.0799C292.214 49.6399 291.134 50.0199 290.094 50.2199C289.094 50.4199 288.194 50.3199 287.394 49.9199Z" fill="white"/>
</svg>
