<svg width="270" height="77" viewBox="0 0 270 77" fill="none" xmlns="http://www.w3.org/2000/svg">
<path d="M37.2244 35.1001C37.8644 35.2201 38.2644 35.5801 38.4244 36.1801C38.6244 36.8201 38.6044 37.4201 38.3644 37.9801C38.1244 38.5801 37.7044 38.9401 37.1044 39.0601C36.9044 39.1001 36.6444 39.1401 36.3244 39.1801C36.0444 39.2201 35.7244 39.2601 35.3644 39.3001C33.8444 39.5001 32.1844 39.7401 30.3844 40.0201C28.5044 40.3401 27.3244 40.7401 26.8444 41.2201C26.0044 42.2601 25.0644 43.5201 24.0244 45.0001C23.0244 46.4401 21.9444 48.1201 20.7844 50.0401C19.5844 51.9601 18.5244 53.6801 17.6044 55.2001C16.6844 56.6801 15.8844 58.0001 15.2044 59.1601C14.6044 59.8801 13.9244 60.1601 13.1644 60.0001C12.2844 59.8801 11.7244 59.5401 11.4844 58.9801C11.2444 58.4601 11.1844 57.9401 11.3044 57.4201C11.5844 56.7801 12.4244 55.4001 13.8244 53.2801C14.5044 52.2401 15.2044 51.1801 15.9244 50.1001C16.6444 49.0201 17.3644 47.9401 18.0844 46.8601C18.7644 45.7001 19.3444 44.7601 19.8244 44.0401C20.3444 43.2801 20.7644 42.7001 21.0844 42.3001C20.7644 42.3801 20.4644 42.4601 20.1844 42.5401C19.9444 42.6201 19.7044 42.7001 19.4644 42.7801C17.2244 43.2601 15.7244 43.6601 14.9644 43.9801C14.2444 44.3001 13.6844 44.7201 13.2844 45.2401C12.7644 45.8001 12.1844 46.6801 11.5444 47.8801C11.2244 48.3601 10.8644 48.9201 10.4644 49.5601C10.1044 50.1601 9.64436 50.8601 9.08436 51.6601C8.88436 51.9801 8.68436 52.3001 8.48436 52.6201C8.32436 52.9401 8.14436 53.3001 7.94436 53.7001C7.50436 54.5001 7.10436 55.2001 6.74436 55.8001C6.42436 56.4001 6.12436 56.9201 5.84436 57.3601C5.36436 58.1601 4.64436 58.5001 3.68436 58.3801C2.64436 58.1401 2.06436 57.7601 1.94436 57.2401C1.82436 56.6401 1.96436 55.9601 2.36436 55.2001C2.64436 54.6401 2.98436 53.9801 3.38436 53.2201C3.78436 52.4601 4.26436 51.6201 4.82436 50.7001C5.38436 49.7801 5.90436 48.9001 6.38436 48.0601C6.86436 47.2201 7.32436 46.4001 7.76436 45.6001C7.52436 45.6801 7.24436 45.7601 6.92436 45.8401C6.64436 45.9201 6.34436 46.0001 6.02436 46.0801C5.66436 46.1601 5.32436 46.2401 5.00436 46.3201C4.68436 46.4001 4.36436 46.4801 4.04436 46.5601C3.36436 46.7601 2.92436 46.8601 2.72436 46.8601C2.16436 46.8601 1.74436 46.5801 1.46436 46.0201C1.30436 45.7401 1.16436 45.4801 1.04436 45.2401C0.964359 45.0001 0.904359 44.7601 0.864359 44.5201C0.744359 44.0801 1.00436 43.7001 1.64436 43.3801C4.16436 42.4601 6.06436 41.9001 7.34436 41.7001C7.78436 41.6201 8.20436 41.5401 8.60436 41.4601C9.04436 41.3401 9.46436 41.2201 9.86436 41.1001C10.7044 40.7801 11.3444 40.2201 11.7844 39.4201C12.0644 38.9801 12.4044 38.4401 12.8044 37.8001C13.2044 37.1201 13.6844 36.3201 14.2444 35.4001L7.46436 37.2001C6.74436 37.3201 6.18436 37.1401 5.78436 36.6601C5.34436 36.2601 5.12436 35.7401 5.12436 35.1001C5.12436 34.5001 5.44436 34.0401 6.08436 33.7201C8.92436 32.6801 11.9444 31.8201 15.1444 31.1401L16.7644 30.7801C17.7244 30.4201 18.8644 29.3201 20.1844 27.4801C20.8644 26.5601 21.5244 25.6401 22.1644 24.7201C22.8044 23.7601 23.4044 22.8001 23.9644 21.8401C24.4444 21.1201 24.8444 20.5001 25.1644 19.9801C25.5244 19.4201 25.8444 18.9801 26.1244 18.6601C26.4444 18.3001 27.0044 18.0801 27.8044 18.0001C28.6844 18.0001 29.3644 18.2201 29.8444 18.6601C30.4444 19.1401 30.6844 19.6401 30.5644 20.1601C30.4444 20.6801 28.4644 23.6401 24.6244 29.0401L32.6044 27.8401C32.8044 27.6801 33.3444 27.1001 34.2244 26.1001C34.6644 25.5801 35.1044 25.0401 35.5444 24.4801C36.0244 23.9201 36.5244 23.3401 37.0444 22.7401C37.3644 22.3801 37.6644 22.0601 37.9444 21.7801C38.2244 21.4601 38.4644 21.1601 38.6644 20.8801C38.8644 20.6401 39.0444 20.4401 39.2044 20.2801C39.3644 20.1201 39.4844 20.0001 39.5644 19.9201C40.2444 19.3601 40.9644 19.1401 41.7244 19.2601C42.4844 19.3401 43.0844 19.6201 43.5244 20.1001C44.0044 20.5001 44.0244 21.0401 43.5844 21.7201L38.7244 27.3601C39.2844 27.2801 39.8444 27.2201 40.4044 27.1801C40.9644 27.1001 41.5444 27.0201 42.1444 26.9401C43.3844 26.8201 44.2844 26.7601 44.8444 26.7601C45.2844 26.7601 45.5044 26.9801 45.5044 27.4201C45.4244 27.9401 45.2444 28.4601 44.9644 28.9801C44.6044 29.5801 44.2844 29.9401 44.0044 30.0601C43.8844 30.1401 43.7644 30.2001 43.6444 30.2401C43.5244 30.2401 43.4244 30.2601 43.3444 30.3001C42.2644 30.3801 41.2644 30.4601 40.3444 30.5401C39.4644 30.6201 38.6644 30.7401 37.9444 30.9001C36.5444 31.1801 35.3844 31.6601 34.4644 32.3401C33.6644 32.9401 32.5644 34.1401 31.1644 35.9401C31.0844 36.0201 31.0444 36.0601 31.0444 36.0601C31.0844 36.0601 31.1644 36.0601 31.2844 36.0601C31.4044 36.0201 31.5644 35.9801 31.7644 35.9401C32.4044 35.7801 33.3444 35.6001 34.5844 35.4001C35.2244 35.3201 35.7444 35.2601 36.1444 35.2201C36.5844 35.1401 36.9444 35.1001 37.2244 35.1001ZM28.1044 32.4601C27.7044 32.5401 27.3444 32.6201 27.0244 32.7001C26.7044 32.7401 26.4044 32.8001 26.1244 32.8801C25.5644 32.9601 25.0044 33.0601 24.4444 33.1801C23.9244 33.2601 23.3844 33.3601 22.8244 33.4801C21.6644 33.6801 20.7444 34.1201 20.0644 34.8001C19.7444 35.1201 19.2844 35.6801 18.6844 36.4801C18.0844 37.2401 17.3244 38.2001 16.4044 39.3601C17.4444 39.0801 18.2844 38.8601 18.9244 38.7001C19.6044 38.5401 20.1044 38.4401 20.4244 38.4001C21.9444 38.2001 23.2444 37.8201 24.3244 37.2601L28.1044 32.4601Z" fill="white"/>
<path d="M95.0597 13.9801C95.5797 13.6601 96.0797 13.6401 96.5597 13.9201C97.0397 14.2001 97.4197 14.6001 97.6997 15.1201C97.9797 15.6001 98.0997 16.1401 98.0597 16.7401C98.0597 17.3001 97.8197 17.7001 97.3397 17.9401C94.2197 19.8201 91.0797 21.6801 87.9197 23.5201C84.7597 25.3601 81.8597 27.2401 79.2197 29.1601C81.1397 30.8801 82.5397 32.5801 83.4197 34.2601C84.3397 35.9001 84.8597 37.5201 84.9797 39.1201C85.1397 40.7201 84.9397 42.2801 84.3797 43.8001C83.8197 45.2801 83.0397 46.7401 82.0397 48.1801C81.0397 49.5801 79.8397 50.9601 78.4397 52.3201C77.0797 53.6401 75.6397 54.9201 74.1197 56.1601C71.4797 58.3201 68.8197 60.0201 66.1397 61.2601C63.4997 62.5401 61.0197 63.3801 58.6997 63.7801C56.3797 64.2201 54.3397 64.2401 52.5797 63.8401C50.8197 63.4401 49.5197 62.6401 48.6797 61.4401C47.8797 60.2401 47.6197 58.6601 47.8997 56.7001C48.2197 54.7001 49.2797 52.3601 51.0797 49.6801C52.8797 46.9601 55.5397 43.9001 59.0597 40.5001C62.6197 37.0601 67.1997 33.2801 72.7997 29.1601C71.9597 28.4801 71.0997 27.7601 70.2197 27.0001C69.3797 26.2401 68.5997 25.4401 67.8797 24.6001C67.1597 23.7201 66.5797 22.7801 66.1397 21.7801C65.6997 20.7801 65.4797 19.7001 65.4797 18.5401C65.4797 17.0601 65.8397 15.6201 66.5597 14.2201C67.2797 12.7801 68.2397 11.4401 69.4397 10.2001C70.6397 8.96006 71.9997 7.82006 73.5197 6.78006C75.0797 5.70006 76.6997 4.74006 78.3797 3.90006C80.0597 3.06006 81.7397 2.36006 83.4197 1.80006C85.0997 1.24006 86.6797 0.820067 88.1597 0.540066C88.7997 0.420065 89.3397 0.640062 89.7797 1.20006C90.2197 1.76006 90.4997 2.42006 90.6197 3.18007C90.7797 3.90006 90.7397 4.60006 90.4997 5.28006C90.2597 5.92007 89.7797 6.30007 89.0597 6.42006C88.0997 6.54006 86.9597 6.80006 85.6397 7.20006C84.3597 7.56006 83.0197 8.04006 81.6197 8.64006C80.2597 9.24007 78.8997 9.94006 77.5397 10.7401C76.2197 11.5401 75.0597 12.4401 74.0597 13.4401C73.0597 14.4001 72.2797 15.4601 71.7197 16.6201C71.1597 17.7401 70.9797 18.9201 71.1797 20.1601C71.3397 21.2401 71.8397 22.2601 72.6797 23.2201C73.5597 24.1401 74.7997 25.2601 76.3997 26.5801C77.5597 25.7401 78.8597 24.8201 80.2997 23.8201C81.7397 22.8201 83.2597 21.7801 84.8597 20.7001C86.4997 19.6201 88.1797 18.5201 89.8997 17.4001C91.6197 16.2401 93.3397 15.1001 95.0597 13.9801ZM54.3797 53.7601C53.6597 55.2801 53.4197 56.4201 53.6597 57.1801C53.9397 57.9801 54.5397 58.4601 55.4597 58.6201C56.4197 58.7801 57.6397 58.6601 59.1197 58.2601C60.5997 57.9001 62.1797 57.3201 63.8597 56.5201C65.5397 55.7201 67.2597 54.7601 69.0197 53.6401C70.7797 52.4801 72.3797 51.2201 73.8197 49.8601C75.2997 48.4601 76.5597 47.0001 77.5997 45.4801C78.6797 43.9201 79.3797 42.3601 79.6997 40.8001C80.0197 39.2001 79.8797 37.6401 79.2797 36.1201C78.7197 34.6001 77.5397 33.1401 75.7397 31.7401C74.0997 32.9001 72.2597 34.3001 70.2197 35.9401C68.2197 37.5801 66.2197 39.3601 64.2197 41.2801C62.2197 43.2001 60.3397 45.2201 58.5797 47.3401C56.8597 49.4601 55.4597 51.6001 54.3797 53.7601Z" fill="white"/>
<path d="M105.86 39.7801C104.74 40.8601 103.46 42.2001 102.02 43.8001C100.58 45.3601 99.0797 46.8601 97.5197 48.3001C95.9997 49.7001 94.4397 50.8201 92.8397 51.6601C91.2797 52.5001 89.7797 52.7001 88.3397 52.2601C87.3797 51.9801 86.7597 51.4201 86.4797 50.5801C86.1597 49.7401 86.1197 48.7601 86.3597 47.6401C86.5597 46.4801 87.0197 45.2401 87.7397 43.9201C88.4197 42.6001 89.2597 41.3001 90.2597 40.0201C91.2597 38.7001 92.3797 37.4801 93.6197 36.3601C94.8997 35.2401 96.2197 34.3001 97.5797 33.5401C99.1797 32.6201 100.66 32.3401 102.02 32.7001C103.42 33.0601 104.6 33.9401 105.56 35.3401C105.84 35.0601 106.18 34.7001 106.58 34.2601C106.98 33.8201 107.38 33.3601 107.78 32.8801C108.22 32.4001 108.64 31.9401 109.04 31.5001C109.48 31.0601 109.86 30.7201 110.18 30.4801C110.7 30.0401 111.26 29.8401 111.86 29.8801C112.46 29.8801 112.96 30.0401 113.36 30.3601C113.8 30.6401 114.08 31.0601 114.2 31.6201C114.36 32.1801 114.26 32.7801 113.9 33.4201C111.7 37.4601 110.24 40.5201 109.52 42.6001C108.84 44.6801 108.8 45.8801 109.4 46.2001C110 46.5201 111.24 46.0001 113.12 44.6401C115 43.2801 117.42 41.2001 120.38 38.4001C120.74 38.0801 121.08 37.9401 121.4 37.9801C121.72 37.9801 121.96 38.1001 122.12 38.3401C122.32 38.5801 122.4 38.9001 122.36 39.3001C122.32 39.7001 122.1 40.1401 121.7 40.6201C117.94 45.0201 114.82 47.9601 112.34 49.4401C109.86 50.8801 107.76 51.1601 106.04 50.2801C104.96 49.7201 104.34 48.6401 104.18 47.0401C104.02 45.4401 104.58 43.0201 105.86 39.7801ZM94.6397 45.6001C95.3197 45.1201 96.0797 44.5001 96.9197 43.7401C97.7997 42.9801 98.6397 42.2001 99.4397 41.4001C100.28 40.6001 101.02 39.8401 101.66 39.1201C102.3 38.4001 102.72 37.8601 102.92 37.5001C103.08 37.2201 103 36.9801 102.68 36.7801C102.36 36.5801 101.84 36.5601 101.12 36.7201C100.44 36.8801 99.5597 37.3001 98.4797 37.9801C97.4397 38.6601 96.2597 39.7401 94.9397 41.2201C94.6597 41.5401 94.2997 41.9801 93.8597 42.5401C93.4597 43.0601 93.0797 43.6001 92.7197 44.1601C92.3997 44.6801 92.1197 45.1801 91.8797 45.6601C91.6797 46.1401 91.5997 46.5001 91.6397 46.7401C91.7197 46.9401 91.9797 46.9801 92.4197 46.8601C92.8997 46.7001 93.6397 46.2801 94.6397 45.6001Z" fill="white"/>
<path d="M143.677 30.1801C143.557 30.6201 143.277 31.4001 142.837 32.5201C142.397 33.6001 141.877 34.8601 141.277 36.3001C140.717 37.7401 140.097 39.2401 139.417 40.8001C138.777 42.3601 138.157 43.8001 137.557 45.1201C138.637 44.4001 140.077 43.4601 141.877 42.3001C143.717 41.1001 145.657 39.9601 147.697 38.8801C148.097 38.6801 148.477 38.6601 148.837 38.8201C149.237 38.9401 149.537 39.1601 149.737 39.4801C149.937 39.7601 149.997 40.1001 149.917 40.5001C149.877 40.9001 149.657 41.2401 149.257 41.5201C148.697 41.8801 147.957 42.3601 147.037 42.9601C146.157 43.5601 145.197 44.2001 144.157 44.8801C143.117 45.5601 142.037 46.2601 140.917 46.9801C139.837 47.7001 138.837 48.3601 137.917 48.9601C136.997 49.5601 136.217 50.0801 135.577 50.5201C134.937 50.9601 134.557 51.2401 134.437 51.3601C133.157 53.6801 131.917 55.8801 130.717 57.9601C129.557 60.0401 128.357 62.0001 127.117 63.8401C125.877 65.7201 124.577 67.4601 123.217 69.0601C121.857 70.7001 120.377 72.2001 118.777 73.5601C117.377 74.7201 116.037 75.4801 114.757 75.8401C113.477 76.2401 112.337 76.3201 111.337 76.0801C110.297 75.8801 109.457 75.4201 108.817 74.7001C108.137 73.9801 107.737 73.0601 107.617 71.9401C107.457 70.8601 107.637 69.6401 108.157 68.2801C108.637 66.9601 109.517 65.5801 110.797 64.1401C112.437 62.3401 114.297 60.6201 116.377 58.9801C118.457 57.3401 120.437 55.9001 122.317 54.6601C124.237 53.3801 125.877 52.3201 127.237 51.4801C128.597 50.6401 129.377 50.1201 129.577 49.9201C129.937 49.3601 130.317 48.7001 130.717 47.9401C131.117 47.1801 131.517 46.4001 131.917 45.6001C132.357 44.7601 132.757 43.9401 133.117 43.1401C133.477 42.3001 133.817 41.5401 134.137 40.8601C133.417 41.7001 132.697 42.5801 131.977 43.5001C131.257 44.4201 130.497 45.3001 129.697 46.1401C128.937 46.9801 128.137 47.7801 127.297 48.5401C126.497 49.2601 125.637 49.8601 124.717 50.3401C123.717 50.9001 122.757 51.2001 121.837 51.2401C120.917 51.2401 120.097 51.0601 119.377 50.7001C118.697 50.3001 118.157 49.7601 117.757 49.0801C117.317 48.4001 117.097 47.6201 117.097 46.7401C117.057 45.8601 117.357 44.6401 117.997 43.0801C118.597 41.5201 119.317 39.9201 120.157 38.2801C120.997 36.6001 121.857 35.0401 122.737 33.6001C123.617 32.1201 124.297 31.0401 124.777 30.3601C125.177 29.8001 125.697 29.5801 126.337 29.7001C127.017 29.7801 127.637 30.0201 128.197 30.4201C128.757 30.8201 129.177 31.3001 129.457 31.8601C129.737 32.4201 129.677 32.8801 129.277 33.2401C129.077 33.4001 128.717 33.9001 128.197 34.7401C127.677 35.5401 127.097 36.4801 126.457 37.5601C125.857 38.6401 125.237 39.7801 124.597 40.9801C123.957 42.1801 123.437 43.2601 123.037 44.2201C122.677 45.1401 122.477 45.8601 122.437 46.3801C122.437 46.9001 122.717 47.0401 123.277 46.8001C124.397 46.3201 125.657 45.3401 127.057 43.8601C128.457 42.3401 129.857 40.6401 131.257 38.7601C132.657 36.8801 133.977 34.9601 135.217 33.0001C136.457 31.0401 137.497 29.3201 138.337 27.8401C138.697 27.2401 139.217 26.9001 139.897 26.8201C140.577 26.7401 141.217 26.8401 141.817 27.1201C142.457 27.4001 142.977 27.8201 143.377 28.3801C143.777 28.9401 143.877 29.5401 143.677 30.1801ZM126.877 55.7401C125.997 56.3401 125.057 57.0001 124.057 57.7201C123.057 58.4401 122.057 59.1801 121.057 59.9401C120.097 60.7001 119.157 61.4401 118.237 62.1601C117.317 62.9201 116.497 63.6001 115.777 64.2001C114.177 65.6401 113.057 66.9201 112.417 68.0401C111.737 69.2001 111.457 70.0401 111.577 70.5601C111.657 71.1201 112.097 71.3001 112.897 71.1001C113.657 70.9001 114.697 70.2001 116.017 69.0001C117.017 68.0801 118.017 67.0601 119.017 65.9401C120.017 64.8201 120.977 63.6801 121.897 62.5201C122.857 61.3601 123.757 60.2001 124.597 59.0401C125.437 57.8801 126.197 56.7801 126.877 55.7401Z" fill="white"/>
<path d="M161.258 39.4201C160.498 40.4201 159.638 41.5401 158.678 42.7801C157.758 43.9801 156.778 45.2001 155.738 46.4401C154.738 47.6401 153.678 48.8001 152.558 49.9201C151.478 51.0401 150.418 51.9801 149.378 52.7401C148.338 53.4601 147.338 53.9601 146.378 54.2401C145.418 54.5201 144.538 54.4401 143.738 54.0001C142.778 53.4801 142.218 52.6401 142.058 51.4801C141.898 50.3201 142.038 49.0201 142.478 47.5801C142.918 46.1001 143.598 44.5401 144.518 42.9001C145.398 41.2201 146.418 39.6001 147.578 38.0401C148.738 36.4801 149.978 35.0601 151.298 33.7801C152.618 32.5001 153.898 31.4801 155.138 30.7201C155.898 30.2401 156.658 29.9601 157.418 29.8801C158.218 29.7601 158.958 29.8001 159.638 30.0001C160.318 30.1601 160.938 30.4601 161.498 30.9001C162.058 31.3001 162.478 31.7601 162.758 32.2801C163.078 31.8801 163.598 31.1601 164.318 30.1201C165.078 29.0401 165.938 27.8201 166.898 26.4601C167.898 25.0601 168.938 23.5801 170.018 22.0201C171.138 20.4601 172.218 18.9801 173.258 17.5801C174.298 16.1401 175.238 14.8401 176.078 13.6801C176.918 12.5201 177.578 11.6601 178.058 11.1001C178.458 10.5801 178.958 10.3801 179.558 10.5001C180.198 10.5801 180.738 10.8601 181.178 11.3401C181.658 11.8201 181.958 12.4201 182.078 13.1401C182.198 13.8201 181.958 14.4801 181.358 15.1201C177.358 19.5601 174.038 23.9801 171.398 28.3801C168.798 32.7801 166.778 36.9201 165.338 40.8001C163.898 44.6401 162.978 48.1201 162.578 51.2401C162.178 54.3601 162.218 56.8601 162.698 58.7401C162.818 59.1801 162.638 59.6001 162.158 60.0001C161.678 60.4001 161.098 60.6801 160.418 60.8401C159.778 61.0401 159.138 61.0601 158.498 60.9001C157.898 60.7801 157.518 60.4201 157.358 59.8201C157.238 59.3801 157.198 58.4801 157.238 57.1201C157.318 55.7601 157.498 54.1401 157.778 52.2601C158.098 50.3401 158.538 48.2601 159.098 46.0201C159.698 43.7801 160.418 41.5801 161.258 39.4201ZM159.758 35.5801C159.958 35.3001 159.938 35.0201 159.698 34.7401C159.498 34.4201 159.118 34.3001 158.558 34.3801C157.798 34.4601 156.938 34.9201 155.978 35.7601C155.018 36.5601 154.058 37.5401 153.098 38.7001C152.178 39.8601 151.278 41.1201 150.398 42.4801C149.558 43.8001 148.878 45.0001 148.358 46.0801C147.838 47.1601 147.518 48.0201 147.398 48.6601C147.318 49.2601 147.538 49.4601 148.058 49.2601C148.458 49.1001 148.978 48.7201 149.618 48.1201C150.298 47.4801 151.038 46.7201 151.838 45.8401C152.638 44.9201 153.458 43.9401 154.298 42.9001C155.178 41.8601 155.978 40.8601 156.698 39.9001C157.458 38.9401 158.098 38.0801 158.618 37.3201C159.178 36.5201 159.558 35.9401 159.758 35.5801Z" fill="white"/>
<path d="M184.551 39.7801C183.431 40.8601 182.151 42.2001 180.711 43.8001C179.271 45.3601 177.771 46.8601 176.211 48.3001C174.691 49.7001 173.131 50.8201 171.531 51.6601C169.971 52.5001 168.471 52.7001 167.031 52.2601C166.071 51.9801 165.451 51.4201 165.171 50.5801C164.851 49.7401 164.811 48.7601 165.051 47.6401C165.251 46.4801 165.711 45.2401 166.431 43.9201C167.111 42.6001 167.951 41.3001 168.951 40.0201C169.951 38.7001 171.071 37.4801 172.311 36.3601C173.591 35.2401 174.911 34.3001 176.271 33.5401C177.871 32.6201 179.351 32.3401 180.711 32.7001C182.111 33.0601 183.291 33.9401 184.251 35.3401C184.531 35.0601 184.871 34.7001 185.271 34.2601C185.671 33.8201 186.071 33.3601 186.471 32.8801C186.911 32.4001 187.331 31.9401 187.731 31.5001C188.171 31.0601 188.551 30.7201 188.871 30.4801C189.391 30.0401 189.951 29.8401 190.551 29.8801C191.151 29.8801 191.651 30.0401 192.051 30.3601C192.491 30.6401 192.771 31.0601 192.891 31.6201C193.051 32.1801 192.951 32.7801 192.591 33.4201C190.391 37.4601 188.931 40.5201 188.211 42.6001C187.531 44.6801 187.491 45.8801 188.091 46.2001C188.691 46.5201 189.931 46.0001 191.811 44.6401C193.691 43.2801 196.111 41.2001 199.071 38.4001C199.431 38.0801 199.771 37.9401 200.091 37.9801C200.411 37.9801 200.651 38.1001 200.811 38.3401C201.011 38.5801 201.091 38.9001 201.051 39.3001C201.011 39.7001 200.791 40.1401 200.391 40.6201C196.631 45.0201 193.511 47.9601 191.031 49.4401C188.551 50.8801 186.451 51.1601 184.731 50.2801C183.651 49.7201 183.031 48.6401 182.871 47.0401C182.711 45.4401 183.271 43.0201 184.551 39.7801ZM173.331 45.6001C174.011 45.1201 174.771 44.5001 175.611 43.7401C176.491 42.9801 177.331 42.2001 178.131 41.4001C178.971 40.6001 179.711 39.8401 180.351 39.1201C180.991 38.4001 181.411 37.8601 181.611 37.5001C181.771 37.2201 181.691 36.9801 181.371 36.7801C181.051 36.5801 180.531 36.5601 179.811 36.7201C179.131 36.8801 178.251 37.3001 177.171 37.9801C176.131 38.6601 174.951 39.7401 173.631 41.2201C173.351 41.5401 172.991 41.9801 172.551 42.5401C172.151 43.0601 171.771 43.6001 171.411 44.1601C171.091 44.6801 170.811 45.1801 170.571 45.6601C170.371 46.1401 170.291 46.5001 170.331 46.7401C170.411 46.9401 170.671 46.9801 171.111 46.8601C171.591 46.7001 172.331 46.2801 173.331 45.6001Z" fill="white"/>
<path d="M211.328 49.9201C210.328 49.4001 209.808 48.5201 209.768 47.2801C209.768 46.0001 210.008 44.6201 210.488 43.1401C211.008 41.6201 211.628 40.1201 212.348 38.6401C213.108 37.1601 213.728 35.9401 214.208 34.9801C213.328 35.4601 212.368 36.2201 211.328 37.2601C210.328 38.3001 209.288 39.5001 208.208 40.8601C207.168 42.1801 206.088 43.5801 204.968 45.0601C203.888 46.5401 202.808 47.9601 201.728 49.3201C200.688 50.6001 199.608 51.6001 198.488 52.3201C197.368 53.0401 196.348 53.2001 195.428 52.8001C194.828 52.5201 194.488 51.9601 194.408 51.1201C194.288 50.2401 194.368 49.2001 194.648 48.0001C194.888 46.8001 195.268 45.5001 195.788 44.1001C196.308 42.7001 196.888 41.3601 197.528 40.0801C198.128 38.8001 198.728 37.6401 199.328 36.6001C199.968 35.5601 200.528 34.7801 201.008 34.2601C201.528 33.7401 202.108 33.5401 202.748 33.6601C203.388 33.7801 203.948 34.0601 204.428 34.5001C204.948 34.9401 205.308 35.4601 205.508 36.0601C205.708 36.6201 205.628 37.0801 205.268 37.4401C204.828 37.8801 204.328 38.5401 203.768 39.4201C203.208 40.3001 202.648 41.2201 202.088 42.1801C201.568 43.1401 201.088 44.0401 200.648 44.8801C200.208 45.7201 199.908 46.3401 199.748 46.7401C200.348 46.0601 201.128 45.1001 202.088 43.8601C203.048 42.5801 204.108 41.2401 205.268 39.8401C206.428 38.4001 207.628 36.9801 208.868 35.5801C210.148 34.1801 211.408 33.0001 212.648 32.0401C213.888 31.0401 215.068 30.3801 216.188 30.0601C217.308 29.7001 218.308 29.8601 219.188 30.5401C219.828 31.0201 220.108 31.7601 220.028 32.7601C219.948 33.7601 219.688 34.8601 219.248 36.0601C218.808 37.2601 218.288 38.4801 217.688 39.7201C217.088 40.9201 216.588 42.0001 216.188 42.9601C215.828 43.8801 215.648 44.6001 215.648 45.1201C215.648 45.6001 216.028 45.7201 216.788 45.4801C217.548 45.2001 218.788 44.4801 220.508 43.3201C222.228 42.1601 224.588 40.3801 227.588 37.9801C227.868 37.7801 228.168 37.7401 228.488 37.8601C228.808 37.9801 229.048 38.2001 229.208 38.5201C229.408 38.8001 229.488 39.1401 229.448 39.5401C229.448 39.9401 229.248 40.2801 228.848 40.5601C228.368 40.9201 227.688 41.4601 226.808 42.1801C225.968 42.9001 225.028 43.6801 223.988 44.5201C222.988 45.3201 221.908 46.1401 220.748 46.9801C219.588 47.7801 218.428 48.4801 217.268 49.0801C216.148 49.6401 215.068 50.0201 214.028 50.2201C213.028 50.4201 212.128 50.3201 211.328 49.9201Z" fill="white"/>
<path d="M246.885 38.4601C247.165 38.3001 247.445 38.2801 247.725 38.4001C248.005 38.4801 248.225 38.6401 248.385 38.8801C248.585 39.1201 248.685 39.4001 248.685 39.7201C248.685 40.0001 248.565 40.2601 248.325 40.5001C247.605 41.2201 246.705 42.0801 245.625 43.0801C244.585 44.0401 243.425 45.0401 242.145 46.0801C240.865 47.0801 239.525 48.0601 238.125 49.0201C236.725 49.9801 235.325 50.7801 233.925 51.4201C232.525 52.0201 231.165 52.4201 229.845 52.6201C228.525 52.8201 227.305 52.6801 226.185 52.2001C225.065 51.7201 224.305 50.9601 223.905 49.9201C223.465 48.8801 223.345 47.6801 223.545 46.3201C223.745 44.9601 224.245 43.5201 225.045 42.0001C225.805 40.4801 226.805 39.0001 228.045 37.5601C229.325 36.1201 230.805 34.8001 232.485 33.6001C234.165 32.3601 236.005 31.3801 238.005 30.6601C238.725 30.3801 239.345 30.4801 239.865 30.9601C240.385 31.4001 240.725 31.9601 240.885 32.6401C241.045 33.3201 241.005 34.0201 240.765 34.7401C240.525 35.4201 240.025 35.8801 239.265 36.1201C236.825 36.8401 234.805 37.9201 233.205 39.3601C231.645 40.8001 230.545 42.2001 229.905 43.5601C229.265 44.9201 229.105 46.0801 229.425 47.0401C229.785 47.9601 230.685 48.3001 232.125 48.0601C233.125 47.9001 234.305 47.4201 235.665 46.6201C237.065 45.8201 238.465 44.9201 239.865 43.9201C241.265 42.8801 242.585 41.8601 243.825 40.8601C245.105 39.8601 246.125 39.0601 246.885 38.4601Z" fill="white"/>
<path d="M249.5 47.7001C249.94 48.0201 250.6 48.1001 251.48 47.9401C252.36 47.7401 253.36 47.4001 254.48 46.9201C255.6 46.4001 256.78 45.7801 258.02 45.0601C259.26 44.3401 260.46 43.5801 261.62 42.7801C262.82 41.9801 263.92 41.1801 264.92 40.3801C265.92 39.5401 266.76 38.8001 267.44 38.1601C267.68 37.9601 267.96 37.9201 268.28 38.0401C268.6 38.1601 268.84 38.3801 269 38.7001C269.2 39.0201 269.26 39.3801 269.18 39.7801C269.14 40.1801 268.84 40.5401 268.28 40.8601C267.4 41.6601 266.36 42.5801 265.16 43.6201C264 44.6201 262.74 45.6201 261.38 46.6201C260.06 47.5801 258.68 48.5001 257.24 49.3801C255.8 50.2201 254.38 50.9201 252.98 51.4801C251.62 52.0401 250.3 52.4001 249.02 52.5601C247.74 52.7201 246.58 52.5601 245.54 52.0801C244.38 51.5601 243.58 50.8201 243.14 49.8601C242.7 48.8601 242.56 47.7401 242.72 46.5001C242.84 45.2601 243.22 43.9401 243.86 42.5401C244.46 41.1401 245.2 39.7601 246.08 38.4001C247 37.0401 248.02 35.7801 249.14 34.6201C250.3 33.4201 251.46 32.4001 252.62 31.5601C254.18 30.4801 255.62 29.8601 256.94 29.7001C258.3 29.5001 259.38 29.6801 260.18 30.2401C260.98 30.8001 261.42 31.6801 261.5 32.8801C261.58 34.0401 261.16 35.4201 260.24 37.0201C259.64 37.9801 258.9 38.9201 258.02 39.8401C257.18 40.7201 256.26 41.5001 255.26 42.1801C254.3 42.8201 253.3 43.3201 252.26 43.6801C251.26 44.0001 250.32 44.0801 249.44 43.9201C249.32 44.1201 249.2 44.4001 249.08 44.7601C248.96 45.0801 248.88 45.4401 248.84 45.8401C248.84 46.2001 248.88 46.5601 248.96 46.9201C249.04 47.2801 249.22 47.5401 249.5 47.7001ZM250.58 41.5801C251.42 41.5001 252.46 41.0001 253.7 40.0801C254.94 39.1601 256.02 37.8001 256.94 36.0001C257.26 35.4001 257.4 35.0001 257.36 34.8001C257.32 34.6001 257.16 34.5601 256.88 34.6801C256.64 34.7601 256.28 34.9801 255.8 35.3401C255.36 35.7001 254.9 36.1401 254.42 36.6601C253.58 37.5401 252.78 38.4801 252.02 39.4801C251.26 40.4401 250.78 41.1401 250.58 41.5801Z" fill="white"/>
</svg>
