<svg width="274" height="77" viewBox="0 0 274 77" fill="none" xmlns="http://www.w3.org/2000/svg">
<path d="M36.5837 35.1001C37.2237 35.2201 37.6237 35.5801 37.7837 36.1801C37.9837 36.8201 37.9637 37.4201 37.7237 37.9801C37.4837 38.5801 37.0637 38.9401 36.4637 39.0601C36.2637 39.1001 36.0037 39.1401 35.6837 39.1801C35.4037 39.2201 35.0837 39.2601 34.7237 39.3001C33.2037 39.5001 31.5437 39.7401 29.7437 40.0201C27.8637 40.3401 26.6837 40.7401 26.2037 41.2201C25.3637 42.2601 24.4237 43.5201 23.3837 45.0001C22.3837 46.4401 21.3037 48.1201 20.1437 50.0401C18.9437 51.9601 17.8837 53.6801 16.9637 55.2001C16.0437 56.6801 15.2437 58.0001 14.5637 59.1601C13.9637 59.8801 13.2837 60.1601 12.5237 60.0001C11.6437 59.8801 11.0837 59.5401 10.8437 58.9801C10.6037 58.4601 10.5437 57.9401 10.6637 57.4201C10.9437 56.7801 11.7837 55.4001 13.1837 53.2801C13.8637 52.2401 14.5637 51.1801 15.2837 50.1001C16.0037 49.0201 16.7237 47.9401 17.4437 46.8601C18.1237 45.7001 18.7037 44.7601 19.1837 44.0401C19.7037 43.2801 20.1237 42.7001 20.4437 42.3001C20.1237 42.3801 19.8237 42.4601 19.5437 42.5401C19.3037 42.6201 19.0637 42.7001 18.8237 42.7801C16.5837 43.2601 15.0837 43.6601 14.3237 43.9801C13.6037 44.3001 13.0437 44.7201 12.6437 45.2401C12.1237 45.8001 11.5437 46.6801 10.9037 47.8801C10.5837 48.3601 10.2237 48.9201 9.82373 49.5601C9.46373 50.1601 9.00374 50.8601 8.44374 51.6601C8.24373 51.9801 8.04373 52.3001 7.84373 52.6201C7.68373 52.9401 7.50373 53.3001 7.30373 53.7001C6.86373 54.5001 6.46373 55.2001 6.10373 55.8001C5.78373 56.4001 5.48373 56.9201 5.20373 57.3601C4.72373 58.1601 4.00373 58.5001 3.04373 58.3801C2.00373 58.1401 1.42373 57.7601 1.30373 57.2401C1.18373 56.6401 1.32373 55.9601 1.72373 55.2001C2.00373 54.6401 2.34373 53.9801 2.74373 53.2201C3.14373 52.4601 3.62373 51.6201 4.18373 50.7001C4.74373 49.7801 5.26373 48.9001 5.74373 48.0601C6.22373 47.2201 6.68373 46.4001 7.12373 45.6001C6.88373 45.6801 6.60373 45.7601 6.28373 45.8401C6.00373 45.9201 5.70373 46.0001 5.38373 46.0801C5.02373 46.1601 4.68373 46.2401 4.36373 46.3201C4.04373 46.4001 3.72373 46.4801 3.40373 46.5601C2.72373 46.7601 2.28373 46.8601 2.08373 46.8601C1.52373 46.8601 1.10373 46.5801 0.823732 46.0201C0.663732 45.7401 0.523734 45.4801 0.403734 45.2401C0.323734 45.0001 0.263734 44.7601 0.223734 44.5201C0.103734 44.0801 0.363732 43.7001 1.00373 43.3801C3.52373 42.4601 5.42373 41.9001 6.70373 41.7001C7.14373 41.6201 7.56373 41.5401 7.96373 41.4601C8.40373 41.3401 8.82373 41.2201 9.22373 41.1001C10.0637 40.7801 10.7037 40.2201 11.1437 39.4201C11.4237 38.9801 11.7637 38.4401 12.1637 37.8001C12.5637 37.1201 13.0437 36.3201 13.6037 35.4001L6.82373 37.2001C6.10373 37.3201 5.54373 37.1401 5.14373 36.6601C4.70373 36.2601 4.48373 35.7401 4.48373 35.1001C4.48373 34.5001 4.80373 34.0401 5.44373 33.7201C8.28373 32.6801 11.3037 31.8201 14.5037 31.1401L16.1237 30.7801C17.0837 30.4201 18.2237 29.3201 19.5437 27.4801C20.2237 26.5601 20.8837 25.6401 21.5237 24.7201C22.1637 23.7601 22.7637 22.8001 23.3237 21.8401C23.8037 21.1201 24.2037 20.5001 24.5237 19.9801C24.8837 19.4201 25.2037 18.9801 25.4837 18.6601C25.8037 18.3001 26.3637 18.0801 27.1637 18.0001C28.0437 18.0001 28.7237 18.2201 29.2037 18.6601C29.8037 19.1401 30.0437 19.6401 29.9237 20.1601C29.8037 20.6801 27.8237 23.6401 23.9837 29.0401L31.9637 27.8401C32.1637 27.6801 32.7037 27.1001 33.5837 26.1001C34.0237 25.5801 34.4637 25.0401 34.9037 24.4801C35.3837 23.9201 35.8837 23.3401 36.4037 22.7401C36.7237 22.3801 37.0237 22.0601 37.3037 21.7801C37.5837 21.4601 37.8237 21.1601 38.0237 20.8801C38.2237 20.6401 38.4037 20.4401 38.5637 20.2801C38.7237 20.1201 38.8437 20.0001 38.9237 19.9201C39.6037 19.3601 40.3237 19.1401 41.0837 19.2601C41.8437 19.3401 42.4437 19.6201 42.8837 20.1001C43.3637 20.5001 43.3837 21.0401 42.9437 21.7201L38.0837 27.3601C38.6437 27.2801 39.2037 27.2201 39.7637 27.1801C40.3237 27.1001 40.9037 27.0201 41.5037 26.9401C42.7437 26.8201 43.6437 26.7601 44.2037 26.7601C44.6437 26.7601 44.8637 26.9801 44.8637 27.4201C44.7837 27.9401 44.6037 28.4601 44.3237 28.9801C43.9637 29.5801 43.6437 29.9401 43.3637 30.0601C43.2437 30.1401 43.1237 30.2001 43.0037 30.2401C42.8837 30.2401 42.7837 30.2601 42.7037 30.3001C41.6237 30.3801 40.6237 30.4601 39.7037 30.5401C38.8237 30.6201 38.0237 30.7401 37.3037 30.9001C35.9037 31.1801 34.7437 31.6601 33.8237 32.3401C33.0237 32.9401 31.9237 34.1401 30.5237 35.9401C30.4437 36.0201 30.4037 36.0601 30.4037 36.0601C30.4437 36.0601 30.5237 36.0601 30.6437 36.0601C30.7637 36.0201 30.9237 35.9801 31.1237 35.9401C31.7637 35.7801 32.7037 35.6001 33.9437 35.4001C34.5837 35.3201 35.1037 35.2601 35.5037 35.2201C35.9437 35.1401 36.3037 35.1001 36.5837 35.1001ZM27.4637 32.4601C27.0637 32.5401 26.7037 32.6201 26.3837 32.7001C26.0637 32.7401 25.7637 32.8001 25.4837 32.8801C24.9237 32.9601 24.3637 33.0601 23.8037 33.1801C23.2837 33.2601 22.7437 33.3601 22.1837 33.4801C21.0237 33.6801 20.1037 34.1201 19.4237 34.8001C19.1037 35.1201 18.6437 35.6801 18.0437 36.4801C17.4437 37.2401 16.6837 38.2001 15.7637 39.3601C16.8037 39.0801 17.6437 38.8601 18.2837 38.7001C18.9637 38.5401 19.4637 38.4401 19.7837 38.4001C21.3037 38.2001 22.6037 37.8201 23.6837 37.2601L27.4637 32.4601Z" fill="white"/>
<path d="M94.419 13.9801C94.939 13.6601 95.439 13.6401 95.919 13.9201C96.399 14.2001 96.779 14.6001 97.059 15.1201C97.339 15.6001 97.459 16.1401 97.419 16.7401C97.419 17.3001 97.179 17.7001 96.699 17.9401C93.579 19.8201 90.439 21.6801 87.279 23.5201C84.119 25.3601 81.219 27.2401 78.579 29.1601C80.499 30.8801 81.899 32.5801 82.779 34.2601C83.699 35.9001 84.219 37.5201 84.339 39.1201C84.499 40.7201 84.2991 42.2801 83.7391 43.8001C83.1791 45.2801 82.399 46.7401 81.399 48.1801C80.399 49.5801 79.199 50.9601 77.799 52.3201C76.439 53.6401 74.999 54.9201 73.479 56.1601C70.839 58.3201 68.179 60.0201 65.499 61.2601C62.859 62.5401 60.379 63.3801 58.059 63.7801C55.739 64.2201 53.699 64.2401 51.939 63.8401C50.179 63.4401 48.879 62.6401 48.039 61.4401C47.239 60.2401 46.979 58.6601 47.259 56.7001C47.579 54.7001 48.639 52.3601 50.439 49.6801C52.239 46.9601 54.899 43.9001 58.419 40.5001C61.979 37.0601 66.559 33.2801 72.159 29.1601C71.319 28.4801 70.459 27.7601 69.579 27.0001C68.739 26.2401 67.959 25.4401 67.239 24.6001C66.519 23.7201 65.939 22.7801 65.499 21.7801C65.059 20.7801 64.839 19.7001 64.839 18.5401C64.839 17.0601 65.199 15.6201 65.919 14.2201C66.639 12.7801 67.599 11.4401 68.799 10.2001C69.999 8.96006 71.359 7.82006 72.879 6.78006C74.439 5.70006 76.059 4.74006 77.739 3.90006C79.419 3.06006 81.099 2.36006 82.779 1.80006C84.459 1.24006 86.0391 0.820067 87.5191 0.540066C88.159 0.420065 88.699 0.640062 89.139 1.20006C89.579 1.76006 89.859 2.42006 89.979 3.18007C90.139 3.90006 90.099 4.60006 89.859 5.28006C89.619 5.92007 89.139 6.30007 88.419 6.42006C87.459 6.54006 86.319 6.80006 84.999 7.20006C83.719 7.56006 82.379 8.04006 80.979 8.64006C79.619 9.24007 78.259 9.94006 76.899 10.7401C75.579 11.5401 74.419 12.4401 73.419 13.4401C72.419 14.4001 71.639 15.4601 71.079 16.6201C70.519 17.7401 70.339 18.9201 70.539 20.1601C70.699 21.2401 71.199 22.2601 72.039 23.2201C72.919 24.1401 74.159 25.2601 75.759 26.5801C76.919 25.7401 78.219 24.8201 79.659 23.8201C81.0991 22.8201 82.619 21.7801 84.219 20.7001C85.859 19.6201 87.539 18.5201 89.259 17.4001C90.979 16.2401 92.699 15.1001 94.419 13.9801ZM53.739 53.7601C53.019 55.2801 52.779 56.4201 53.019 57.1801C53.299 57.9801 53.899 58.4601 54.819 58.6201C55.779 58.7801 56.999 58.6601 58.479 58.2601C59.959 57.9001 61.539 57.3201 63.219 56.5201C64.899 55.7201 66.619 54.7601 68.379 53.6401C70.139 52.4801 71.739 51.2201 73.179 49.8601C74.659 48.4601 75.919 47.0001 76.959 45.4801C78.039 43.9201 78.739 42.3601 79.059 40.8001C79.379 39.2001 79.239 37.6401 78.639 36.1201C78.079 34.6001 76.899 33.1401 75.099 31.7401C73.459 32.9001 71.619 34.3001 69.579 35.9401C67.579 37.5801 65.579 39.3601 63.579 41.2801C61.579 43.2001 59.699 45.2201 57.939 47.3401C56.219 49.4601 54.819 51.6001 53.739 53.7601Z" fill="white"/>
<path d="M105.219 39.7801C104.099 40.8601 102.819 42.2001 101.379 43.8001C99.9391 45.3601 98.4391 46.8601 96.8791 48.3001C95.3591 49.7001 93.799 50.8201 92.199 51.6601C90.639 52.5001 89.139 52.7001 87.699 52.2601C86.739 51.9801 86.119 51.4201 85.839 50.5801C85.519 49.7401 85.479 48.7601 85.719 47.6401C85.919 46.4801 86.379 45.2401 87.099 43.9201C87.779 42.6001 88.619 41.3001 89.619 40.0201C90.619 38.7001 91.739 37.4801 92.979 36.3601C94.259 35.2401 95.579 34.3001 96.939 33.5401C98.539 32.6201 100.019 32.3401 101.379 32.7001C102.779 33.0601 103.959 33.9401 104.919 35.3401C105.199 35.0601 105.539 34.7001 105.939 34.2601C106.339 33.8201 106.739 33.3601 107.139 32.8801C107.579 32.4001 107.999 31.9401 108.399 31.5001C108.839 31.0601 109.219 30.7201 109.539 30.4801C110.059 30.0401 110.619 29.8401 111.219 29.8801C111.819 29.8801 112.319 30.0401 112.719 30.3601C113.159 30.6401 113.439 31.0601 113.559 31.6201C113.719 32.1801 113.619 32.7801 113.259 33.4201C111.059 37.4601 109.599 40.5201 108.879 42.6001C108.199 44.6801 108.159 45.8801 108.759 46.2001C109.359 46.5201 110.599 46.0001 112.479 44.6401C114.359 43.2801 116.779 41.2001 119.739 38.4001C120.099 38.0801 120.439 37.9401 120.759 37.9801C121.079 37.9801 121.319 38.1001 121.479 38.3401C121.679 38.5801 121.759 38.9001 121.719 39.3001C121.679 39.7001 121.459 40.1401 121.059 40.6201C117.299 45.0201 114.179 47.9601 111.699 49.4401C109.219 50.8801 107.119 51.1601 105.399 50.2801C104.319 49.7201 103.699 48.6401 103.539 47.0401C103.379 45.4401 103.939 43.0201 105.219 39.7801ZM93.999 45.6001C94.679 45.1201 95.439 44.5001 96.279 43.7401C97.159 42.9801 97.999 42.2001 98.799 41.4001C99.639 40.6001 100.379 39.8401 101.019 39.1201C101.659 38.4001 102.079 37.8601 102.279 37.5001C102.439 37.2201 102.359 36.9801 102.039 36.7801C101.719 36.5801 101.199 36.5601 100.479 36.7201C99.799 36.8801 98.919 37.3001 97.839 37.9801C96.799 38.6601 95.619 39.7401 94.299 41.2201C94.019 41.5401 93.659 41.9801 93.219 42.5401C92.819 43.0601 92.439 43.6001 92.079 44.1601C91.759 44.6801 91.479 45.1801 91.239 45.6601C91.039 46.1401 90.959 46.5001 90.999 46.7401C91.079 46.9401 91.339 46.9801 91.779 46.8601C92.259 46.7001 92.999 46.2801 93.999 45.6001Z" fill="white"/>
<path d="M143.036 30.1801C142.916 30.6201 142.636 31.4001 142.196 32.5201C141.756 33.6001 141.236 34.8601 140.636 36.3001C140.076 37.7401 139.456 39.2401 138.776 40.8001C138.136 42.3601 137.516 43.8001 136.916 45.1201C137.996 44.4001 139.436 43.4601 141.236 42.3001C143.076 41.1001 145.016 39.9601 147.056 38.8801C147.456 38.6801 147.836 38.6601 148.196 38.8201C148.596 38.9401 148.896 39.1601 149.096 39.4801C149.296 39.7601 149.356 40.1001 149.276 40.5001C149.236 40.9001 149.016 41.2401 148.616 41.5201C148.056 41.8801 147.316 42.3601 146.396 42.9601C145.516 43.5601 144.556 44.2001 143.516 44.8801C142.476 45.5601 141.396 46.2601 140.276 46.9801C139.196 47.7001 138.196 48.3601 137.276 48.9601C136.356 49.5601 135.576 50.0801 134.936 50.5201C134.296 50.9601 133.916 51.2401 133.796 51.3601C132.516 53.6801 131.276 55.8801 130.076 57.9601C128.916 60.0401 127.716 62.0001 126.476 63.8401C125.236 65.7201 123.936 67.4601 122.576 69.0601C121.216 70.7001 119.736 72.2001 118.136 73.5601C116.736 74.7201 115.396 75.4801 114.116 75.8401C112.836 76.2401 111.696 76.3201 110.696 76.0801C109.656 75.8801 108.816 75.4201 108.176 74.7001C107.496 73.9801 107.096 73.0601 106.976 71.9401C106.816 70.8601 106.996 69.6401 107.516 68.2801C107.996 66.9601 108.876 65.5801 110.156 64.1401C111.796 62.3401 113.656 60.6201 115.736 58.9801C117.816 57.3401 119.796 55.9001 121.676 54.6601C123.596 53.3801 125.236 52.3201 126.596 51.4801C127.956 50.6401 128.736 50.1201 128.936 49.9201C129.296 49.3601 129.676 48.7001 130.076 47.9401C130.476 47.1801 130.876 46.4001 131.276 45.6001C131.716 44.7601 132.116 43.9401 132.476 43.1401C132.836 42.3001 133.176 41.5401 133.496 40.8601C132.776 41.7001 132.056 42.5801 131.336 43.5001C130.616 44.4201 129.856 45.3001 129.056 46.1401C128.296 46.9801 127.496 47.7801 126.656 48.5401C125.856 49.2601 124.996 49.8601 124.076 50.3401C123.076 50.9001 122.116 51.2001 121.196 51.2401C120.276 51.2401 119.456 51.0601 118.736 50.7001C118.056 50.3001 117.516 49.7601 117.116 49.0801C116.676 48.4001 116.456 47.6201 116.456 46.7401C116.416 45.8601 116.716 44.6401 117.356 43.0801C117.956 41.5201 118.676 39.9201 119.516 38.2801C120.356 36.6001 121.216 35.0401 122.096 33.6001C122.976 32.1201 123.656 31.0401 124.136 30.3601C124.536 29.8001 125.056 29.5801 125.696 29.7001C126.376 29.7801 126.996 30.0201 127.556 30.4201C128.116 30.8201 128.536 31.3001 128.816 31.8601C129.096 32.4201 129.036 32.8801 128.636 33.2401C128.436 33.4001 128.076 33.9001 127.556 34.7401C127.036 35.5401 126.456 36.4801 125.816 37.5601C125.216 38.6401 124.596 39.7801 123.956 40.9801C123.316 42.1801 122.796 43.2601 122.396 44.2201C122.036 45.1401 121.836 45.8601 121.796 46.3801C121.796 46.9001 122.076 47.0401 122.636 46.8001C123.756 46.3201 125.016 45.3401 126.416 43.8601C127.816 42.3401 129.216 40.6401 130.616 38.7601C132.016 36.8801 133.336 34.9601 134.576 33.0001C135.816 31.0401 136.856 29.3201 137.696 27.8401C138.056 27.2401 138.576 26.9001 139.256 26.8201C139.936 26.7401 140.576 26.8401 141.176 27.1201C141.816 27.4001 142.336 27.8201 142.736 28.3801C143.136 28.9401 143.236 29.5401 143.036 30.1801ZM126.236 55.7401C125.356 56.3401 124.416 57.0001 123.416 57.7201C122.416 58.4401 121.416 59.1801 120.416 59.9401C119.456 60.7001 118.516 61.4401 117.596 62.1601C116.676 62.9201 115.856 63.6001 115.136 64.2001C113.536 65.6401 112.416 66.9201 111.776 68.0401C111.096 69.2001 110.816 70.0401 110.936 70.5601C111.016 71.1201 111.456 71.3001 112.256 71.1001C113.016 70.9001 114.056 70.2001 115.376 69.0001C116.376 68.0801 117.376 67.0601 118.376 65.9401C119.376 64.8201 120.336 63.6801 121.256 62.5201C122.216 61.3601 123.116 60.2001 123.956 59.0401C124.796 57.8801 125.556 56.7801 126.236 55.7401Z" fill="white"/>
<path d="M151.378 45.5401C151.538 46.7801 151.498 48.2201 151.258 49.8601C151.018 51.5001 150.618 53.1801 150.058 54.9001C149.538 56.5801 148.878 58.2201 148.078 59.8201C147.278 61.4201 146.398 62.8001 145.438 63.9601C144.478 65.1601 143.458 66.0401 142.378 66.6001C141.298 67.2001 140.218 67.3401 139.138 67.0201C137.898 66.6601 137.158 65.7801 136.918 64.3801C136.638 63.0201 136.718 61.3201 137.158 59.2801C137.558 57.2801 138.278 55.0401 139.318 52.5601C140.358 50.0801 141.558 47.5401 142.918 44.9401C144.278 42.3001 145.738 39.7201 147.298 37.2001C148.898 34.6401 150.458 32.2801 151.978 30.1201C153.538 27.9601 155.018 26.1201 156.418 24.6001C157.818 23.0401 159.018 21.9401 160.018 21.3001C160.578 20.9401 161.138 20.9401 161.698 21.3001C162.258 21.6601 162.698 22.1601 163.018 22.8001C163.378 23.4001 163.558 24.0601 163.558 24.7801C163.598 25.5001 163.338 26.0601 162.778 26.4601C161.378 27.5001 160.078 28.6201 158.878 29.8201C157.678 30.9801 156.578 32.2001 155.578 33.4801C154.578 34.7201 153.658 35.9801 152.818 37.2601C152.018 38.5001 151.298 39.7001 150.658 40.8601C151.898 41.1001 153.178 41.1601 154.498 41.0401C155.858 40.9201 157.138 40.6801 158.338 40.3201C159.578 39.9601 160.718 39.5001 161.758 38.9401C162.798 38.3401 163.658 37.6601 164.338 36.9001C164.618 36.6201 164.918 36.5201 165.238 36.6001C165.598 36.6801 165.878 36.8801 166.078 37.2001C166.318 37.4801 166.438 37.8601 166.438 38.3401C166.438 38.7801 166.238 39.2201 165.838 39.6601C164.998 40.5801 163.998 41.4001 162.838 42.1201C161.718 42.8401 160.518 43.4601 159.238 43.9801C157.958 44.5001 156.638 44.9001 155.278 45.1801C153.918 45.4601 152.618 45.5801 151.378 45.5401ZM147.658 45.8401C146.458 48.0801 145.438 50.1801 144.598 52.1401C143.718 54.1001 143.038 55.8001 142.558 57.2401C142.078 58.7201 141.778 59.8601 141.658 60.6601C141.538 61.4601 141.618 61.8001 141.898 61.6801C142.258 61.5601 142.798 61.0001 143.518 60.0001C144.238 59.0401 144.938 57.8201 145.618 56.3401C146.258 54.8601 146.798 53.2001 147.238 51.3601C147.678 49.5201 147.818 47.6801 147.658 45.8401Z" fill="white"/>
<path d="M209.169 21.6001C210.249 21.9201 210.789 22.4801 210.789 23.2801C210.709 24.1601 210.389 24.9401 209.829 25.6201C209.229 26.3001 208.589 26.5401 207.909 26.3401C203.269 24.5001 197.729 23.8201 191.289 24.3001C189.129 27.8201 187.249 31.2601 185.649 34.6201C184.089 37.9801 182.749 41.2801 181.629 44.5201C179.389 50.9601 178.009 55.9601 177.489 59.5201C177.449 59.9601 177.089 60.3201 176.409 60.6001C175.809 60.8401 175.109 60.9201 174.309 60.8401C173.589 60.8001 172.969 60.5401 172.449 60.0601C172.009 59.5801 171.909 58.9001 172.149 58.0201C173.229 54.2601 174.569 50.4201 176.169 46.5001C177.769 42.5401 179.649 38.4201 181.809 34.1401C181.169 34.9001 180.449 35.8001 179.649 36.8401C178.849 37.8801 177.949 39.0601 176.949 40.3801C175.949 41.7001 174.989 42.9601 174.069 44.1601C173.149 45.3601 172.249 46.5201 171.369 47.6401C169.609 49.7601 168.129 51.3201 166.929 52.3201C165.809 53.2801 164.389 53.4801 162.669 52.9201C161.029 52.4001 160.029 51.4601 159.669 50.1001C159.349 48.7001 159.629 47.0001 160.509 45.0001C160.949 43.9601 161.409 42.9401 161.889 41.9401C162.369 40.9001 162.889 39.8601 163.449 38.8201C164.009 37.7801 164.489 36.8801 164.889 36.1201C165.329 35.3601 165.709 34.7001 166.029 34.1401C166.189 33.9001 166.289 33.7401 166.329 33.6601C166.809 32.8601 167.549 32.5601 168.549 32.7601C169.509 32.8801 170.349 33.2601 171.069 33.9001C171.749 34.6601 171.889 35.4401 171.489 36.2401C170.729 37.4801 170.029 38.6401 169.389 39.7201C168.749 40.8001 168.149 41.8001 167.589 42.7201C167.029 43.6801 166.549 44.5601 166.149 45.3601C165.749 46.1201 165.409 46.8201 165.129 47.4601C164.649 48.7801 164.789 49.3801 165.549 49.2601C166.349 49.1401 168.649 46.6201 172.449 41.7001C176.169 36.8601 180.149 31.3801 184.389 25.2601C180.109 26.2201 175.849 27.9401 171.609 30.4201C170.689 30.9001 169.849 30.7801 169.089 30.0601C168.289 29.2601 167.869 28.4201 167.829 27.5401C167.709 26.6201 168.129 25.9201 169.089 25.4401C175.689 23.0001 181.809 21.4801 187.449 20.8801C187.889 20.2001 188.329 19.5401 188.769 18.9001C189.209 18.2601 189.649 17.6401 190.089 17.0401C191.449 15.0801 192.589 13.4401 193.509 12.1201C194.469 10.7601 195.229 9.70006 195.789 8.94006C196.309 8.42006 197.029 8.30006 197.949 8.58006C198.869 8.90006 199.569 9.48007 200.049 10.3201C200.569 11.0801 200.469 11.9201 199.749 12.8401C198.669 14.0401 197.629 15.2801 196.629 16.5601C195.669 17.8001 194.729 19.0801 193.809 20.4001C195.489 20.3601 197.049 20.3601 198.489 20.4001C199.929 20.4401 201.289 20.5201 202.569 20.6401C203.849 20.8001 205.029 20.9601 206.109 21.1201C207.229 21.2401 208.249 21.4001 209.169 21.6001Z" fill="white"/>
<path d="M202.25 49.9201C201.25 49.4001 200.73 48.5201 200.69 47.2801C200.69 46.0001 200.93 44.6201 201.41 43.1401C201.93 41.6201 202.55 40.1201 203.27 38.6401C204.03 37.1601 204.65 35.9401 205.13 34.9801C204.25 35.4601 203.29 36.2201 202.25 37.2601C201.25 38.3001 200.21 39.5001 199.13 40.8601C198.09 42.1801 197.01 43.5801 195.89 45.0601C194.81 46.5401 193.73 47.9601 192.65 49.3201C191.61 50.6001 190.53 51.6001 189.41 52.3201C188.29 53.0401 187.27 53.2001 186.35 52.8001C185.75 52.5201 185.41 51.9601 185.33 51.1201C185.21 50.2401 185.29 49.2001 185.57 48.0001C185.81 46.8001 186.19 45.5001 186.71 44.1001C187.23 42.7001 187.81 41.3601 188.45 40.0801C189.05 38.8001 189.65 37.6401 190.25 36.6001C190.89 35.5601 191.45 34.7801 191.93 34.2601C192.45 33.7401 193.03 33.5401 193.67 33.6601C194.31 33.7801 194.87 34.0601 195.35 34.5001C195.87 34.9401 196.23 35.4601 196.43 36.0601C196.63 36.6201 196.55 37.0801 196.19 37.4401C195.75 37.8801 195.25 38.5401 194.69 39.4201C194.13 40.3001 193.57 41.2201 193.01 42.1801C192.49 43.1401 192.01 44.0401 191.57 44.8801C191.13 45.7201 190.83 46.3401 190.67 46.7401C191.27 46.0601 192.05 45.1001 193.01 43.8601C193.97 42.5801 195.03 41.2401 196.19 39.8401C197.35 38.4001 198.55 36.9801 199.79 35.5801C201.07 34.1801 202.33 33.0001 203.57 32.0401C204.81 31.0401 205.99 30.3801 207.11 30.0601C208.23 29.7001 209.23 29.8601 210.11 30.5401C210.75 31.0201 211.03 31.7601 210.95 32.7601C210.87 33.7601 210.61 34.8601 210.17 36.0601C209.73 37.2601 209.21 38.4801 208.61 39.7201C208.01 40.9201 207.51 42.0001 207.11 42.9601C206.75 43.8801 206.57 44.6001 206.57 45.1201C206.57 45.6001 206.95 45.7201 207.71 45.4801C208.47 45.2001 209.71 44.4801 211.43 43.3201C213.15 42.1601 215.51 40.3801 218.51 37.9801C218.79 37.7801 219.09 37.7401 219.41 37.8601C219.73 37.9801 219.97 38.2001 220.13 38.5201C220.33 38.8001 220.41 39.1401 220.37 39.5401C220.37 39.9401 220.17 40.2801 219.77 40.5601C219.29 40.9201 218.61 41.4601 217.73 42.1801C216.89 42.9001 215.95 43.6801 214.91 44.5201C213.91 45.3201 212.83 46.1401 211.67 46.9801C210.51 47.7801 209.35 48.4801 208.19 49.0801C207.07 49.6401 205.99 50.0201 204.95 50.2201C203.95 50.4201 203.05 50.3201 202.25 49.9201Z" fill="white"/>
<path d="M221.906 47.7001C222.346 48.0201 223.006 48.1001 223.886 47.9401C224.766 47.7401 225.766 47.4001 226.886 46.9201C228.006 46.4001 229.186 45.7801 230.426 45.0601C231.666 44.3401 232.866 43.5801 234.026 42.7801C235.226 41.9801 236.326 41.1801 237.326 40.3801C238.326 39.5401 239.166 38.8001 239.846 38.1601C240.086 37.9601 240.366 37.9201 240.686 38.0401C241.006 38.1601 241.246 38.3801 241.406 38.7001C241.606 39.0201 241.666 39.3801 241.586 39.7801C241.546 40.1801 241.246 40.5401 240.686 40.8601C239.806 41.6601 238.766 42.5801 237.566 43.6201C236.406 44.6201 235.146 45.6201 233.786 46.6201C232.466 47.5801 231.086 48.5001 229.646 49.3801C228.206 50.2201 226.786 50.9201 225.386 51.4801C224.026 52.0401 222.706 52.4001 221.426 52.5601C220.146 52.7201 218.986 52.5601 217.946 52.0801C216.786 51.5601 215.986 50.8201 215.546 49.8601C215.106 48.8601 214.966 47.7401 215.126 46.5001C215.246 45.2601 215.626 43.9401 216.266 42.5401C216.866 41.1401 217.606 39.7601 218.486 38.4001C219.406 37.0401 220.426 35.7801 221.546 34.6201C222.706 33.4201 223.866 32.4001 225.026 31.5601C226.586 30.4801 228.026 29.8601 229.346 29.7001C230.706 29.5001 231.786 29.6801 232.586 30.2401C233.386 30.8001 233.826 31.6801 233.906 32.8801C233.986 34.0401 233.566 35.4201 232.646 37.0201C232.046 37.9801 231.306 38.9201 230.426 39.8401C229.586 40.7201 228.666 41.5001 227.666 42.1801C226.706 42.8201 225.706 43.3201 224.666 43.6801C223.666 44.0001 222.726 44.0801 221.846 43.9201C221.726 44.1201 221.606 44.4001 221.486 44.7601C221.366 45.0801 221.286 45.4401 221.246 45.8401C221.246 46.2001 221.286 46.5601 221.366 46.9201C221.446 47.2801 221.626 47.5401 221.906 47.7001ZM222.986 41.5801C223.826 41.5001 224.866 41.0001 226.106 40.0801C227.346 39.1601 228.426 37.8001 229.346 36.0001C229.666 35.4001 229.806 35.0001 229.766 34.8001C229.726 34.6001 229.566 34.5601 229.286 34.6801C229.046 34.7601 228.686 34.9801 228.206 35.3401C227.766 35.7001 227.306 36.1401 226.826 36.6601C225.986 37.5401 225.186 38.4801 224.426 39.4801C223.666 40.4401 223.186 41.1401 222.986 41.5801Z" fill="white"/>
<path d="M252.902 31.0201C251.582 31.3001 250.202 31.8801 248.762 32.7601C247.322 33.6401 246.062 34.7001 244.982 35.9401C243.902 37.1801 243.122 38.5401 242.642 40.0201C242.162 41.5001 242.222 42.9601 242.822 44.4001C243.102 44.2001 243.602 43.9201 244.322 43.5601C245.082 43.1601 245.922 42.7201 246.842 42.2401C247.802 41.7201 248.802 41.2001 249.842 40.6801C250.922 40.1601 251.922 39.6601 252.842 39.1801C253.802 38.7001 254.622 38.3001 255.302 37.9801C256.022 37.6201 256.502 37.3801 256.742 37.2601C257.182 37.0601 257.542 37.0801 257.822 37.3201C258.142 37.5201 258.362 37.8201 258.482 38.2201C258.602 38.5801 258.602 38.9801 258.482 39.4201C258.362 39.8601 258.102 40.2001 257.702 40.4401C257.102 40.8001 256.222 41.2801 255.062 41.8801C253.902 42.4401 252.642 43.0801 251.282 43.8001C249.962 44.4801 248.662 45.1801 247.382 45.9001C246.102 46.5801 245.042 47.2201 244.202 47.8201C244.402 48.5401 244.562 49.3401 244.682 50.2201C244.842 51.0601 244.882 51.9601 244.802 52.9201C244.722 53.8801 244.482 54.8601 244.082 55.8601C243.722 56.8601 243.122 57.8601 242.282 58.8601C240.762 60.6601 239.242 61.9601 237.722 62.7601C236.202 63.5601 234.822 63.9801 233.582 64.0201C232.302 64.0601 231.242 63.7601 230.402 63.1201C229.522 62.4801 228.982 61.6001 228.782 60.4801C228.582 59.4001 228.782 58.1201 229.382 56.6401C229.942 55.1601 231.062 53.5801 232.742 51.9001C233.662 51.0201 234.682 50.1401 235.802 49.2601C236.882 48.3801 238.042 47.5201 239.282 46.6801C238.242 44.4401 237.902 42.2401 238.262 40.0801C238.622 37.9201 239.422 35.9201 240.662 34.0801C241.902 32.2001 243.462 30.5401 245.342 29.1001C247.222 27.6601 249.182 26.5401 251.222 25.7401C251.902 25.5001 252.502 25.6201 253.022 26.1001C253.582 26.5401 253.962 27.1001 254.162 27.7801C254.362 28.4601 254.382 29.1401 254.222 29.8201C254.062 30.4601 253.622 30.8601 252.902 31.0201ZM240.122 50.5201C239.322 51.0801 238.342 51.8601 237.182 52.8601C235.982 53.8601 235.002 54.9001 234.242 55.9801C233.002 57.7801 232.622 58.9001 233.102 59.3401C233.542 59.8201 234.462 59.4801 235.862 58.3201C236.622 57.7201 237.302 57.0601 237.902 56.3401C238.502 55.6201 238.982 54.9201 239.342 54.2401C239.742 53.5201 240.002 52.8401 240.122 52.2001C240.282 51.5601 240.282 51.0001 240.122 50.5201Z" fill="white"/>
<path d="M268.019 31.0201C266.699 31.3001 265.319 31.8801 263.879 32.7601C262.439 33.6401 261.179 34.7001 260.099 35.9401C259.019 37.1801 258.239 38.5401 257.759 40.0201C257.279 41.5001 257.339 42.9601 257.939 44.4001C258.219 44.2001 258.719 43.9201 259.439 43.5601C260.199 43.1601 261.039 42.7201 261.959 42.2401C262.919 41.7201 263.919 41.2001 264.959 40.6801C266.039 40.1601 267.039 39.6601 267.959 39.1801C268.919 38.7001 269.739 38.3001 270.419 37.9801C271.139 37.6201 271.619 37.3801 271.859 37.2601C272.299 37.0601 272.659 37.0801 272.939 37.3201C273.259 37.5201 273.479 37.8201 273.599 38.2201C273.719 38.5801 273.719 38.9801 273.599 39.4201C273.479 39.8601 273.219 40.2001 272.819 40.4401C272.219 40.8001 271.339 41.2801 270.179 41.8801C269.019 42.4401 267.759 43.0801 266.399 43.8001C265.079 44.4801 263.779 45.1801 262.499 45.9001C261.219 46.5801 260.159 47.2201 259.319 47.8201C259.519 48.5401 259.679 49.3401 259.799 50.2201C259.959 51.0601 259.999 51.9601 259.919 52.9201C259.839 53.8801 259.599 54.8601 259.199 55.8601C258.839 56.8601 258.239 57.8601 257.399 58.8601C255.879 60.6601 254.359 61.9601 252.839 62.7601C251.319 63.5601 249.939 63.9801 248.699 64.0201C247.419 64.0601 246.359 63.7601 245.519 63.1201C244.639 62.4801 244.099 61.6001 243.899 60.4801C243.699 59.4001 243.899 58.1201 244.499 56.6401C245.059 55.1601 246.179 53.5801 247.859 51.9001C248.779 51.0201 249.799 50.1401 250.919 49.2601C251.999 48.3801 253.159 47.5201 254.399 46.6801C253.359 44.4401 253.019 42.2401 253.379 40.0801C253.739 37.9201 254.539 35.9201 255.779 34.0801C257.019 32.2001 258.579 30.5401 260.459 29.1001C262.339 27.6601 264.299 26.5401 266.339 25.7401C267.019 25.5001 267.619 25.6201 268.139 26.1001C268.699 26.5401 269.079 27.1001 269.279 27.7801C269.479 28.4601 269.499 29.1401 269.339 29.8201C269.179 30.4601 268.739 30.8601 268.019 31.0201ZM255.239 50.5201C254.439 51.0801 253.459 51.8601 252.299 52.8601C251.099 53.8601 250.119 54.9001 249.359 55.9801C248.119 57.7801 247.739 58.9001 248.219 59.3401C248.659 59.8201 249.579 59.4801 250.979 58.3201C251.739 57.7201 252.419 57.0601 253.019 56.3401C253.619 55.6201 254.099 54.9201 254.459 54.2401C254.859 53.5201 255.119 52.8401 255.239 52.2001C255.399 51.5601 255.399 51.0001 255.239 50.5201Z" fill="white"/>
</svg>
