<svg width="272" height="77" viewBox="0 0 272 77" fill="none" xmlns="http://www.w3.org/2000/svg">
<path d="M36.613 35.1001C37.253 35.2201 37.653 35.5801 37.813 36.1801C38.013 36.8201 37.993 37.4201 37.753 37.9801C37.513 38.5801 37.093 38.9401 36.493 39.0601C36.293 39.1001 36.033 39.1401 35.713 39.1801C35.433 39.2201 35.113 39.2601 34.753 39.3001C33.233 39.5001 31.573 39.7401 29.773 40.0201C27.893 40.3401 26.713 40.7401 26.233 41.2201C25.393 42.2601 24.453 43.5201 23.413 45.0001C22.413 46.4401 21.333 48.1201 20.173 50.0401C18.973 51.9601 17.913 53.6801 16.993 55.2001C16.073 56.6801 15.273 58.0001 14.593 59.1601C13.993 59.8801 13.313 60.1601 12.553 60.0001C11.673 59.8801 11.113 59.5401 10.873 58.9801C10.633 58.4601 10.573 57.9401 10.693 57.4201C10.973 56.7801 11.813 55.4001 13.213 53.2801C13.893 52.2401 14.593 51.1801 15.313 50.1001C16.033 49.0201 16.753 47.9401 17.473 46.8601C18.153 45.7001 18.733 44.7601 19.213 44.0401C19.733 43.2801 20.153 42.7001 20.473 42.3001C20.153 42.3801 19.853 42.4601 19.573 42.5401C19.333 42.6201 19.093 42.7001 18.853 42.7801C16.613 43.2601 15.113 43.6601 14.353 43.9801C13.633 44.3001 13.073 44.7201 12.673 45.2401C12.153 45.8001 11.573 46.6801 10.933 47.8801C10.613 48.3601 10.253 48.9201 9.85303 49.5601C9.49303 50.1601 9.03303 50.8601 8.47303 51.6601C8.27303 51.9801 8.07303 52.3001 7.87303 52.6201C7.71303 52.9401 7.53303 53.3001 7.33303 53.7001C6.89303 54.5001 6.49303 55.2001 6.13303 55.8001C5.81303 56.4001 5.51303 56.9201 5.23303 57.3601C4.75303 58.1601 4.03303 58.5001 3.07303 58.3801C2.03303 58.1401 1.45303 57.7601 1.33303 57.2401C1.21303 56.6401 1.35303 55.9601 1.75303 55.2001C2.03303 54.6401 2.37303 53.9801 2.77303 53.2201C3.17303 52.4601 3.65303 51.6201 4.21303 50.7001C4.77303 49.7801 5.29303 48.9001 5.77303 48.0601C6.25303 47.2201 6.71303 46.4001 7.15303 45.6001C6.91303 45.6801 6.63303 45.7601 6.31303 45.8401C6.03303 45.9201 5.73303 46.0001 5.41303 46.0801C5.05303 46.1601 4.71303 46.2401 4.39303 46.3201C4.07303 46.4001 3.75303 46.4801 3.43303 46.5601C2.75303 46.7601 2.31303 46.8601 2.11303 46.8601C1.55303 46.8601 1.13303 46.5801 0.853029 46.0201C0.693029 45.7401 0.553031 45.4801 0.433031 45.2401C0.353031 45.0001 0.29303 44.7601 0.25303 44.5201C0.133031 44.0801 0.393029 43.7001 1.03303 43.3801C3.55303 42.4601 5.45303 41.9001 6.73303 41.7001C7.17303 41.6201 7.59303 41.5401 7.99303 41.4601C8.43303 41.3401 8.85303 41.2201 9.25303 41.1001C10.093 40.7801 10.733 40.2201 11.173 39.4201C11.453 38.9801 11.793 38.4401 12.193 37.8001C12.593 37.1201 13.073 36.3201 13.633 35.4001L6.85303 37.2001C6.13303 37.3201 5.57303 37.1401 5.17303 36.6601C4.73303 36.2601 4.51303 35.7401 4.51303 35.1001C4.51303 34.5001 4.83303 34.0401 5.47303 33.7201C8.31303 32.6801 11.333 31.8201 14.533 31.1401L16.153 30.7801C17.113 30.4201 18.253 29.3201 19.573 27.4801C20.253 26.5601 20.913 25.6401 21.553 24.7201C22.193 23.7601 22.793 22.8001 23.353 21.8401C23.833 21.1201 24.233 20.5001 24.553 19.9801C24.913 19.4201 25.233 18.9801 25.513 18.6601C25.833 18.3001 26.393 18.0801 27.193 18.0001C28.073 18.0001 28.753 18.2201 29.233 18.6601C29.833 19.1401 30.073 19.6401 29.953 20.1601C29.833 20.6801 27.853 23.6401 24.013 29.0401L31.993 27.8401C32.193 27.6801 32.733 27.1001 33.613 26.1001C34.053 25.5801 34.493 25.0401 34.933 24.4801C35.413 23.9201 35.913 23.3401 36.433 22.7401C36.753 22.3801 37.053 22.0601 37.333 21.7801C37.613 21.4601 37.853 21.1601 38.053 20.8801C38.253 20.6401 38.433 20.4401 38.593 20.2801C38.753 20.1201 38.873 20.0001 38.953 19.9201C39.633 19.3601 40.353 19.1401 41.113 19.2601C41.873 19.3401 42.473 19.6201 42.913 20.1001C43.393 20.5001 43.413 21.0401 42.973 21.7201L38.113 27.3601C38.673 27.2801 39.233 27.2201 39.793 27.1801C40.353 27.1001 40.933 27.0201 41.533 26.9401C42.773 26.8201 43.673 26.7601 44.233 26.7601C44.673 26.7601 44.893 26.9801 44.893 27.4201C44.813 27.9401 44.633 28.4601 44.353 28.9801C43.993 29.5801 43.673 29.9401 43.393 30.0601C43.273 30.1401 43.153 30.2001 43.033 30.2401C42.913 30.2401 42.813 30.2601 42.733 30.3001C41.653 30.3801 40.653 30.4601 39.733 30.5401C38.853 30.6201 38.053 30.7401 37.333 30.9001C35.933 31.1801 34.773 31.6601 33.853 32.3401C33.053 32.9401 31.953 34.1401 30.553 35.9401C30.473 36.0201 30.433 36.0601 30.433 36.0601C30.473 36.0601 30.553 36.0601 30.673 36.0601C30.793 36.0201 30.953 35.9801 31.153 35.9401C31.793 35.7801 32.733 35.6001 33.973 35.4001C34.613 35.3201 35.133 35.2601 35.533 35.2201C35.973 35.1401 36.333 35.1001 36.613 35.1001ZM27.493 32.4601C27.093 32.5401 26.733 32.6201 26.413 32.7001C26.093 32.7401 25.793 32.8001 25.513 32.8801C24.953 32.9601 24.393 33.0601 23.833 33.1801C23.313 33.2601 22.773 33.3601 22.213 33.4801C21.053 33.6801 20.133 34.1201 19.453 34.8001C19.133 35.1201 18.673 35.6801 18.073 36.4801C17.473 37.2401 16.713 38.2001 15.793 39.3601C16.833 39.0801 17.673 38.8601 18.313 38.7001C18.993 38.5401 19.493 38.4401 19.813 38.4001C21.333 38.2001 22.633 37.8201 23.713 37.2601L27.493 32.4601Z" fill="white"/>
<path d="M94.4483 13.9801C94.9683 13.6601 95.4683 13.6401 95.9483 13.9201C96.4283 14.2001 96.8083 14.6001 97.0883 15.1201C97.3683 15.6001 97.4883 16.1401 97.4483 16.7401C97.4483 17.3001 97.2083 17.7001 96.7283 17.9401C93.6083 19.8201 90.4683 21.6801 87.3083 23.5201C84.1483 25.3601 81.2483 27.2401 78.6083 29.1601C80.5283 30.8801 81.9283 32.5801 82.8083 34.2601C83.7283 35.9001 84.2483 37.5201 84.3683 39.1201C84.5283 40.7201 84.3283 42.2801 83.7683 43.8001C83.2083 45.2801 82.4283 46.7401 81.4283 48.1801C80.4283 49.5801 79.2283 50.9601 77.8283 52.3201C76.4683 53.6401 75.0283 54.9201 73.5083 56.1601C70.8683 58.3201 68.2083 60.0201 65.5283 61.2601C62.8883 62.5401 60.4083 63.3801 58.0883 63.7801C55.7683 64.2201 53.7283 64.2401 51.9683 63.8401C50.2083 63.4401 48.9083 62.6401 48.0683 61.4401C47.2683 60.2401 47.0083 58.6601 47.2883 56.7001C47.6083 54.7001 48.6683 52.3601 50.4683 49.6801C52.2683 46.9601 54.9283 43.9001 58.4483 40.5001C62.0083 37.0601 66.5883 33.2801 72.1883 29.1601C71.3483 28.4801 70.4883 27.7601 69.6083 27.0001C68.7683 26.2401 67.9883 25.4401 67.2683 24.6001C66.5483 23.7201 65.9683 22.7801 65.5283 21.7801C65.0883 20.7801 64.8683 19.7001 64.8683 18.5401C64.8683 17.0601 65.2283 15.6201 65.9483 14.2201C66.6683 12.7801 67.6283 11.4401 68.8283 10.2001C70.0283 8.96006 71.3883 7.82006 72.9083 6.78006C74.4683 5.70006 76.0883 4.74006 77.7683 3.90006C79.4483 3.06006 81.1283 2.36006 82.8083 1.80006C84.4883 1.24006 86.0683 0.820067 87.5483 0.540066C88.1883 0.420065 88.7283 0.640062 89.1683 1.20006C89.6083 1.76006 89.8883 2.42006 90.0083 3.18007C90.1683 3.90006 90.1283 4.60006 89.8883 5.28006C89.6483 5.92007 89.1683 6.30007 88.4483 6.42006C87.4883 6.54006 86.3483 6.80006 85.0283 7.20006C83.7483 7.56006 82.4083 8.04006 81.0083 8.64006C79.6483 9.24007 78.2883 9.94006 76.9283 10.7401C75.6083 11.5401 74.4483 12.4401 73.4483 13.4401C72.4483 14.4001 71.6683 15.4601 71.1083 16.6201C70.5483 17.7401 70.3683 18.9201 70.5683 20.1601C70.7283 21.2401 71.2283 22.2601 72.0683 23.2201C72.9483 24.1401 74.1883 25.2601 75.7883 26.5801C76.9483 25.7401 78.2483 24.8201 79.6883 23.8201C81.1283 22.8201 82.6483 21.7801 84.2483 20.7001C85.8883 19.6201 87.5683 18.5201 89.2883 17.4001C91.0083 16.2401 92.7283 15.1001 94.4483 13.9801ZM53.7683 53.7601C53.0483 55.2801 52.8083 56.4201 53.0483 57.1801C53.3283 57.9801 53.9283 58.4601 54.8483 58.6201C55.8083 58.7801 57.0283 58.6601 58.5083 58.2601C59.9883 57.9001 61.5683 57.3201 63.2483 56.5201C64.9283 55.7201 66.6483 54.7601 68.4083 53.6401C70.1683 52.4801 71.7683 51.2201 73.2083 49.8601C74.6883 48.4601 75.9483 47.0001 76.9883 45.4801C78.0683 43.9201 78.7683 42.3601 79.0883 40.8001C79.4083 39.2001 79.2683 37.6401 78.6683 36.1201C78.1083 34.6001 76.9283 33.1401 75.1283 31.7401C73.4883 32.9001 71.6483 34.3001 69.6083 35.9401C67.6083 37.5801 65.6083 39.3601 63.6083 41.2801C61.6083 43.2001 59.7283 45.2201 57.9683 47.3401C56.2483 49.4601 54.8483 51.6001 53.7683 53.7601Z" fill="white"/>
<path d="M105.248 39.7801C104.128 40.8601 102.848 42.2001 101.408 43.8001C99.9683 45.3601 98.4683 46.8601 96.9083 48.3001C95.3883 49.7001 93.8283 50.8201 92.2283 51.6601C90.6683 52.5001 89.1683 52.7001 87.7283 52.2601C86.7683 51.9801 86.1483 51.4201 85.8683 50.5801C85.5483 49.7401 85.5083 48.7601 85.7483 47.6401C85.9483 46.4801 86.4083 45.2401 87.1283 43.9201C87.8083 42.6001 88.6483 41.3001 89.6483 40.0201C90.6483 38.7001 91.7683 37.4801 93.0083 36.3601C94.2883 35.2401 95.6083 34.3001 96.9683 33.5401C98.5683 32.6201 100.048 32.3401 101.408 32.7001C102.808 33.0601 103.988 33.9401 104.948 35.3401C105.228 35.0601 105.568 34.7001 105.968 34.2601C106.368 33.8201 106.768 33.3601 107.168 32.8801C107.608 32.4001 108.028 31.9401 108.428 31.5001C108.868 31.0601 109.248 30.7201 109.568 30.4801C110.088 30.0401 110.648 29.8401 111.248 29.8801C111.848 29.8801 112.348 30.0401 112.748 30.3601C113.188 30.6401 113.468 31.0601 113.588 31.6201C113.748 32.1801 113.648 32.7801 113.288 33.4201C111.088 37.4601 109.628 40.5201 108.908 42.6001C108.228 44.6801 108.188 45.8801 108.788 46.2001C109.388 46.5201 110.628 46.0001 112.508 44.6401C114.388 43.2801 116.808 41.2001 119.768 38.4001C120.128 38.0801 120.468 37.9401 120.788 37.9801C121.108 37.9801 121.348 38.1001 121.508 38.3401C121.708 38.5801 121.788 38.9001 121.748 39.3001C121.708 39.7001 121.488 40.1401 121.088 40.6201C117.328 45.0201 114.208 47.9601 111.728 49.4401C109.248 50.8801 107.148 51.1601 105.428 50.2801C104.348 49.7201 103.728 48.6401 103.568 47.0401C103.408 45.4401 103.968 43.0201 105.248 39.7801ZM94.0283 45.6001C94.7083 45.1201 95.4683 44.5001 96.3083 43.7401C97.1883 42.9801 98.0283 42.2001 98.8283 41.4001C99.6683 40.6001 100.408 39.8401 101.048 39.1201C101.688 38.4001 102.108 37.8601 102.308 37.5001C102.468 37.2201 102.388 36.9801 102.068 36.7801C101.748 36.5801 101.228 36.5601 100.508 36.7201C99.8283 36.8801 98.9483 37.3001 97.8683 37.9801C96.8283 38.6601 95.6483 39.7401 94.3283 41.2201C94.0483 41.5401 93.6883 41.9801 93.2483 42.5401C92.8483 43.0601 92.4683 43.6001 92.1083 44.1601C91.7883 44.6801 91.5083 45.1801 91.2683 45.6601C91.0683 46.1401 90.9883 46.5001 91.0283 46.7401C91.1083 46.9401 91.3683 46.9801 91.8083 46.8601C92.2883 46.7001 93.0283 46.2801 94.0283 45.6001Z" fill="white"/>
<path d="M143.065 30.1801C142.945 30.6201 142.665 31.4001 142.225 32.5201C141.785 33.6001 141.265 34.8601 140.665 36.3001C140.105 37.7401 139.485 39.2401 138.805 40.8001C138.165 42.3601 137.545 43.8001 136.945 45.1201C138.025 44.4001 139.465 43.4601 141.265 42.3001C143.105 41.1001 145.045 39.9601 147.085 38.8801C147.485 38.6801 147.865 38.6601 148.225 38.8201C148.625 38.9401 148.925 39.1601 149.125 39.4801C149.325 39.7601 149.385 40.1001 149.305 40.5001C149.265 40.9001 149.045 41.2401 148.645 41.5201C148.085 41.8801 147.345 42.3601 146.425 42.9601C145.545 43.5601 144.585 44.2001 143.545 44.8801C142.505 45.5601 141.425 46.2601 140.305 46.9801C139.225 47.7001 138.225 48.3601 137.305 48.9601C136.385 49.5601 135.605 50.0801 134.965 50.5201C134.325 50.9601 133.945 51.2401 133.825 51.3601C132.545 53.6801 131.305 55.8801 130.105 57.9601C128.945 60.0401 127.745 62.0001 126.505 63.8401C125.265 65.7201 123.965 67.4601 122.605 69.0601C121.245 70.7001 119.765 72.2001 118.165 73.5601C116.765 74.7201 115.425 75.4801 114.145 75.8401C112.865 76.2401 111.725 76.3201 110.725 76.0801C109.685 75.8801 108.845 75.4201 108.205 74.7001C107.525 73.9801 107.125 73.0601 107.005 71.9401C106.845 70.8601 107.025 69.6401 107.545 68.2801C108.025 66.9601 108.905 65.5801 110.185 64.1401C111.825 62.3401 113.685 60.6201 115.765 58.9801C117.845 57.3401 119.825 55.9001 121.705 54.6601C123.625 53.3801 125.265 52.3201 126.625 51.4801C127.985 50.6401 128.765 50.1201 128.965 49.9201C129.325 49.3601 129.705 48.7001 130.105 47.9401C130.505 47.1801 130.905 46.4001 131.305 45.6001C131.745 44.7601 132.145 43.9401 132.505 43.1401C132.865 42.3001 133.205 41.5401 133.525 40.8601C132.805 41.7001 132.085 42.5801 131.365 43.5001C130.645 44.4201 129.885 45.3001 129.085 46.1401C128.325 46.9801 127.525 47.7801 126.685 48.5401C125.885 49.2601 125.025 49.8601 124.105 50.3401C123.105 50.9001 122.145 51.2001 121.225 51.2401C120.305 51.2401 119.485 51.0601 118.765 50.7001C118.085 50.3001 117.545 49.7601 117.145 49.0801C116.705 48.4001 116.485 47.6201 116.485 46.7401C116.445 45.8601 116.745 44.6401 117.385 43.0801C117.985 41.5201 118.705 39.9201 119.545 38.2801C120.385 36.6001 121.245 35.0401 122.125 33.6001C123.005 32.1201 123.685 31.0401 124.165 30.3601C124.565 29.8001 125.085 29.5801 125.725 29.7001C126.405 29.7801 127.025 30.0201 127.585 30.4201C128.145 30.8201 128.565 31.3001 128.845 31.8601C129.125 32.4201 129.065 32.8801 128.665 33.2401C128.465 33.4001 128.105 33.9001 127.585 34.7401C127.065 35.5401 126.485 36.4801 125.845 37.5601C125.245 38.6401 124.625 39.7801 123.985 40.9801C123.345 42.1801 122.825 43.2601 122.425 44.2201C122.065 45.1401 121.865 45.8601 121.825 46.3801C121.825 46.9001 122.105 47.0401 122.665 46.8001C123.785 46.3201 125.045 45.3401 126.445 43.8601C127.845 42.3401 129.245 40.6401 130.645 38.7601C132.045 36.8801 133.365 34.9601 134.605 33.0001C135.845 31.0401 136.885 29.3201 137.725 27.8401C138.085 27.2401 138.605 26.9001 139.285 26.8201C139.965 26.7401 140.605 26.8401 141.205 27.1201C141.845 27.4001 142.365 27.8201 142.765 28.3801C143.165 28.9401 143.265 29.5401 143.065 30.1801ZM126.265 55.7401C125.385 56.3401 124.445 57.0001 123.445 57.7201C122.445 58.4401 121.445 59.1801 120.445 59.9401C119.485 60.7001 118.545 61.4401 117.625 62.1601C116.705 62.9201 115.885 63.6001 115.165 64.2001C113.565 65.6401 112.445 66.9201 111.805 68.0401C111.125 69.2001 110.845 70.0401 110.965 70.5601C111.045 71.1201 111.485 71.3001 112.285 71.1001C113.045 70.9001 114.085 70.2001 115.405 69.0001C116.405 68.0801 117.405 67.0601 118.405 65.9401C119.405 64.8201 120.365 63.6801 121.285 62.5201C122.245 61.3601 123.145 60.2001 123.985 59.0401C124.825 57.8801 125.585 56.7801 126.265 55.7401Z" fill="white"/>
<path d="M130.587 71.5201C131.187 70.2001 132.047 68.4001 133.167 66.1201C134.287 63.8801 135.547 61.3601 136.947 58.5601C138.307 55.8001 139.767 52.9001 141.327 49.8601C142.887 46.8201 144.427 43.8601 145.947 40.9801C147.427 38.0601 148.827 35.3601 150.147 32.8801C151.507 30.3601 152.667 28.2601 153.627 26.5801C153.987 25.9401 154.527 25.6201 155.247 25.6201C155.967 25.6201 156.627 25.8201 157.227 26.2201C157.827 26.6201 158.267 27.1601 158.547 27.8401C158.867 28.5201 158.787 29.2401 158.307 30.0001C156.507 32.8001 154.707 35.5001 152.907 38.1001C151.147 40.6601 149.687 43.2001 148.527 45.7201C149.047 45.0001 149.787 44.0001 150.747 42.7201C151.747 41.4001 152.887 40.0201 154.167 38.5801C155.447 37.1001 156.807 35.6601 158.247 34.2601C159.727 32.8601 161.187 31.7001 162.627 30.7801C164.707 29.4601 166.467 28.9001 167.907 29.1001C169.347 29.3001 170.327 30.0001 170.847 31.2001C171.367 32.4001 171.367 33.9401 170.847 35.8201C170.327 37.7001 169.147 39.6601 167.307 41.7001C167.867 41.4601 168.607 41.1801 169.527 40.8601C170.487 40.5001 171.467 40.1401 172.467 39.7801C173.467 39.4201 174.367 39.1001 175.167 38.8201C176.007 38.5001 176.587 38.2801 176.907 38.1601C177.267 38.0001 177.567 38.0001 177.807 38.1601C178.087 38.3201 178.267 38.5601 178.347 38.8801C178.427 39.1601 178.407 39.4601 178.287 39.7801C178.167 40.1001 177.927 40.3401 177.567 40.5001C176.927 40.7401 175.947 41.1401 174.627 41.7001C173.307 42.2601 171.907 42.8801 170.427 43.5601C168.947 44.2001 167.527 44.8601 166.167 45.5401C164.847 46.1801 163.847 46.7001 163.167 47.1001C162.007 48.1401 160.847 49.0401 159.687 49.8001C158.567 50.5601 157.507 51.1601 156.507 51.6001C155.507 52.0401 154.607 52.3001 153.807 52.3801C153.047 52.4201 152.467 52.2401 152.067 51.8401C151.627 51.4401 151.367 50.9801 151.287 50.4601C151.247 49.9001 151.447 49.3201 151.887 48.7201C152.327 48.0801 153.047 47.4401 154.047 46.8001C155.087 46.1201 156.467 45.4201 158.187 44.7001C158.867 44.4201 159.627 43.9201 160.467 43.2001C161.307 42.4401 162.087 41.6001 162.807 40.6801C163.567 39.7601 164.227 38.8601 164.787 37.9801C165.347 37.0601 165.687 36.3001 165.807 35.7001C165.967 35.1001 165.867 34.7401 165.507 34.6201C165.187 34.4601 164.487 34.7001 163.407 35.3401C161.807 36.3001 159.807 37.8801 157.407 40.0801C155.007 42.2401 152.507 44.9601 149.907 48.2401C147.307 51.4801 144.747 55.2201 142.227 59.4601C139.667 63.7001 137.467 68.3401 135.627 73.3801C135.387 73.9801 134.947 74.3401 134.307 74.4601C133.627 74.5801 132.967 74.5201 132.327 74.2801C131.687 74.0401 131.167 73.6601 130.767 73.1401C130.367 72.6601 130.307 72.1201 130.587 71.5201Z" fill="white"/>
<path d="M189.975 39.7801C188.855 40.8601 187.575 42.2001 186.135 43.8001C184.695 45.3601 183.195 46.8601 181.635 48.3001C180.115 49.7001 178.555 50.8201 176.955 51.6601C175.395 52.5001 173.895 52.7001 172.455 52.2601C171.495 51.9801 170.875 51.4201 170.595 50.5801C170.275 49.7401 170.235 48.7601 170.475 47.6401C170.675 46.4801 171.135 45.2401 171.855 43.9201C172.535 42.6001 173.375 41.3001 174.375 40.0201C175.375 38.7001 176.495 37.4801 177.735 36.3601C179.015 35.2401 180.335 34.3001 181.695 33.5401C183.295 32.6201 184.775 32.3401 186.135 32.7001C187.535 33.0601 188.715 33.9401 189.675 35.3401C189.955 35.0601 190.295 34.7001 190.695 34.2601C191.095 33.8201 191.495 33.3601 191.895 32.8801C192.335 32.4001 192.755 31.9401 193.155 31.5001C193.595 31.0601 193.975 30.7201 194.295 30.4801C194.815 30.0401 195.375 29.8401 195.975 29.8801C196.575 29.8801 197.075 30.0401 197.475 30.3601C197.915 30.6401 198.195 31.0601 198.315 31.6201C198.475 32.1801 198.375 32.7801 198.015 33.4201C195.815 37.4601 194.355 40.5201 193.635 42.6001C192.955 44.6801 192.915 45.8801 193.515 46.2001C194.115 46.5201 195.355 46.0001 197.235 44.6401C199.115 43.2801 201.535 41.2001 204.495 38.4001C204.855 38.0801 205.195 37.9401 205.515 37.9801C205.835 37.9801 206.075 38.1001 206.235 38.3401C206.435 38.5801 206.515 38.9001 206.475 39.3001C206.435 39.7001 206.215 40.1401 205.815 40.6201C202.055 45.0201 198.935 47.9601 196.455 49.4401C193.975 50.8801 191.875 51.1601 190.155 50.2801C189.075 49.7201 188.455 48.6401 188.295 47.0401C188.135 45.4401 188.695 43.0201 189.975 39.7801ZM178.755 45.6001C179.435 45.1201 180.195 44.5001 181.035 43.7401C181.915 42.9801 182.755 42.2001 183.555 41.4001C184.395 40.6001 185.135 39.8401 185.775 39.1201C186.415 38.4001 186.835 37.8601 187.035 37.5001C187.195 37.2201 187.115 36.9801 186.795 36.7801C186.475 36.5801 185.955 36.5601 185.235 36.7201C184.555 36.8801 183.675 37.3001 182.595 37.9801C181.555 38.6601 180.375 39.7401 179.055 41.2201C178.775 41.5401 178.415 41.9801 177.975 42.5401C177.575 43.0601 177.195 43.6001 176.835 44.1601C176.515 44.6801 176.235 45.1801 175.995 45.6601C175.795 46.1401 175.715 46.5001 175.755 46.7401C175.835 46.9401 176.095 46.9801 176.535 46.8601C177.015 46.7001 177.755 46.2801 178.755 45.6001Z" fill="white"/>
<path d="M218.559 36.1201C217.639 36.5201 216.559 37.3401 215.319 38.5801C214.079 39.8201 212.779 41.2201 211.419 42.7801C210.099 44.3401 208.779 45.9601 207.459 47.6401C206.139 49.2801 204.959 50.7401 203.919 52.0201C203.279 52.8201 202.579 53.2801 201.819 53.4001C201.059 53.5201 200.399 53.4401 199.839 53.1601C199.239 52.8401 198.799 52.3601 198.519 51.7201C198.199 51.0801 198.159 50.4001 198.399 49.6801C198.879 48.4001 199.639 46.7801 200.679 44.8201C201.679 42.8201 202.759 40.8601 203.919 38.9401C205.119 36.9801 206.239 35.2401 207.279 33.7201C208.359 32.1601 209.179 31.1401 209.739 30.6601C210.259 30.1801 210.819 30.0401 211.419 30.2401C212.059 30.4401 212.599 30.8001 213.039 31.3201C213.519 31.8001 213.819 32.3401 213.939 32.9401C214.059 33.5401 213.919 34.0001 213.519 34.3201C212.999 34.7201 212.399 35.3001 211.719 36.0601C211.079 36.8201 210.399 37.6801 209.679 38.6401C208.999 39.6001 208.299 40.6001 207.579 41.6401C206.899 42.6801 206.279 43.6601 205.719 44.5801C205.159 45.5001 204.659 46.3001 204.219 46.9801C203.819 47.6601 203.559 48.1201 203.439 48.3601C203.999 47.7201 204.759 46.7801 205.719 45.5401C206.719 44.2601 207.799 42.9001 208.959 41.4601C210.159 39.9801 211.439 38.5201 212.799 37.0801C214.159 35.6401 215.499 34.4001 216.819 33.3601C218.139 32.3201 219.419 31.5801 220.659 31.1401C221.899 30.6601 222.999 30.7001 223.959 31.2601C224.839 31.7401 225.239 32.4201 225.159 33.3001C225.079 34.1801 224.819 35.1201 224.379 36.1201C223.979 37.1201 223.539 38.1201 223.059 39.1201C222.619 40.1201 222.459 40.9801 222.579 41.7001C222.619 41.9801 222.859 42.1001 223.299 42.0601C223.739 41.9801 224.279 41.7801 224.919 41.4601C225.559 41.1401 226.279 40.7001 227.079 40.1401C227.879 39.5401 228.659 38.8601 229.419 38.1001C229.659 37.8601 229.899 37.7601 230.139 37.8001C230.419 37.8001 230.639 37.9001 230.799 38.1001C230.959 38.3001 231.019 38.5601 230.979 38.8801C230.939 39.2001 230.739 39.5401 230.379 39.9001C228.019 42.2201 225.799 43.8001 223.719 44.6401C221.639 45.4801 219.979 45.7001 218.739 45.3001C217.499 44.8601 216.799 43.8601 216.639 42.3001C216.479 40.7001 217.119 38.6401 218.559 36.1201Z" fill="white"/>
<path d="M249.034 8.10006C249.554 7.62007 250.174 7.50006 250.894 7.74006C251.614 7.98006 252.234 8.40006 252.754 9.00006C253.274 9.60006 253.594 10.2801 253.714 11.0401C253.834 11.7601 253.554 12.4001 252.874 12.9601C251.954 13.7201 251.054 14.5401 250.174 15.4201C249.294 16.2601 248.434 17.1401 247.594 18.0601C248.394 18.0201 249.334 18.0001 250.414 18.0001C251.494 18.0001 252.574 18.0201 253.654 18.0601C254.774 18.1001 255.834 18.1601 256.834 18.2401C257.834 18.3201 258.674 18.4201 259.354 18.5401C259.874 18.7001 260.174 19.0601 260.254 19.6201C260.374 20.1401 260.314 20.6801 260.074 21.2401C259.834 21.7601 259.454 22.2001 258.934 22.5601C258.414 22.8801 257.814 22.9401 257.134 22.7401C256.534 22.5801 255.714 22.4401 254.674 22.3201C253.634 22.1601 252.514 22.0401 251.314 21.9601C250.154 21.8401 248.954 21.7601 247.714 21.7201C246.514 21.6801 245.434 21.6801 244.474 21.7201C242.674 24.0401 241.014 26.4601 239.494 28.9801C238.014 31.4601 236.674 33.9201 235.474 36.3601C234.274 38.8001 233.234 41.1601 232.354 43.4401C231.474 45.6801 230.714 47.7401 230.074 49.6201C229.474 51.5001 229.014 53.1401 228.694 54.5401C228.374 55.9401 228.174 56.9801 228.094 57.6601C228.014 58.3001 227.614 58.7801 226.894 59.1001C226.174 59.4201 225.434 59.5401 224.674 59.4601C223.874 59.3801 223.194 59.1001 222.634 58.6201C222.034 58.1401 221.854 57.4201 222.094 56.4601C222.854 53.5001 223.854 50.5001 225.094 47.4601C226.294 44.3801 227.614 41.3601 229.054 38.4001C230.494 35.4001 232.014 32.5001 233.614 29.7001C235.214 26.9001 236.794 24.2801 238.354 21.8401C236.874 21.9601 235.334 22.1601 233.734 22.4401C232.174 22.7201 230.734 23.0801 229.414 23.5201C228.854 23.8001 228.334 23.8001 227.854 23.5201C227.374 23.2401 227.034 22.8601 226.834 22.3801C226.594 21.8601 226.554 21.3401 226.714 20.8201C226.834 20.2601 227.274 19.8801 228.034 19.6801C230.074 19.1201 232.174 18.7401 234.334 18.5401C236.494 18.3401 238.694 18.1801 240.934 18.0601C242.534 15.7401 244.034 13.7401 245.434 12.0601C246.834 10.3401 248.034 9.02006 249.034 8.10006Z" fill="white"/>
<path d="M265.585 30.1801C265.465 30.6201 265.185 31.4001 264.745 32.5201C264.305 33.6001 263.785 34.8601 263.185 36.3001C262.625 37.7401 262.005 39.2401 261.325 40.8001C260.685 42.3601 260.065 43.8001 259.465 45.1201C260.545 44.4001 261.985 43.4601 263.785 42.3001C265.625 41.1001 267.565 39.9601 269.605 38.8801C270.005 38.6801 270.385 38.6601 270.745 38.8201C271.145 38.9401 271.445 39.1601 271.645 39.4801C271.845 39.7601 271.905 40.1001 271.825 40.5001C271.785 40.9001 271.565 41.2401 271.165 41.5201C270.605 41.8801 269.865 42.3601 268.945 42.9601C268.065 43.5601 267.105 44.2001 266.065 44.8801C265.025 45.5601 263.945 46.2601 262.825 46.9801C261.745 47.7001 260.745 48.3601 259.825 48.9601C258.905 49.5601 258.125 50.0801 257.485 50.5201C256.845 50.9601 256.465 51.2401 256.345 51.3601C255.065 53.6801 253.825 55.8801 252.625 57.9601C251.465 60.0401 250.265 62.0001 249.025 63.8401C247.785 65.7201 246.485 67.4601 245.125 69.0601C243.765 70.7001 242.285 72.2001 240.685 73.5601C239.285 74.7201 237.945 75.4801 236.665 75.8401C235.385 76.2401 234.245 76.3201 233.245 76.0801C232.205 75.8801 231.365 75.4201 230.725 74.7001C230.045 73.9801 229.645 73.0601 229.525 71.9401C229.365 70.8601 229.545 69.6401 230.065 68.2801C230.545 66.9601 231.425 65.5801 232.705 64.1401C234.345 62.3401 236.205 60.6201 238.285 58.9801C240.365 57.3401 242.345 55.9001 244.225 54.6601C246.145 53.3801 247.785 52.3201 249.145 51.4801C250.505 50.6401 251.285 50.1201 251.485 49.9201C251.845 49.3601 252.225 48.7001 252.625 47.9401C253.025 47.1801 253.425 46.4001 253.825 45.6001C254.265 44.7601 254.665 43.9401 255.025 43.1401C255.385 42.3001 255.725 41.5401 256.045 40.8601C255.325 41.7001 254.605 42.5801 253.885 43.5001C253.165 44.4201 252.405 45.3001 251.605 46.1401C250.845 46.9801 250.045 47.7801 249.205 48.5401C248.405 49.2601 247.545 49.8601 246.625 50.3401C245.625 50.9001 244.665 51.2001 243.745 51.2401C242.825 51.2401 242.005 51.0601 241.285 50.7001C240.605 50.3001 240.065 49.7601 239.665 49.0801C239.225 48.4001 239.005 47.6201 239.005 46.7401C238.965 45.8601 239.265 44.6401 239.905 43.0801C240.505 41.5201 241.225 39.9201 242.065 38.2801C242.905 36.6001 243.765 35.0401 244.645 33.6001C245.525 32.1201 246.205 31.0401 246.685 30.3601C247.085 29.8001 247.605 29.5801 248.245 29.7001C248.925 29.7801 249.545 30.0201 250.105 30.4201C250.665 30.8201 251.085 31.3001 251.365 31.8601C251.645 32.4201 251.585 32.8801 251.185 33.2401C250.985 33.4001 250.625 33.9001 250.105 34.7401C249.585 35.5401 249.005 36.4801 248.365 37.5601C247.765 38.6401 247.145 39.7801 246.505 40.9801C245.865 42.1801 245.345 43.2601 244.945 44.2201C244.585 45.1401 244.385 45.8601 244.345 46.3801C244.345 46.9001 244.625 47.0401 245.185 46.8001C246.305 46.3201 247.565 45.3401 248.965 43.8601C250.365 42.3401 251.765 40.6401 253.165 38.7601C254.565 36.8801 255.885 34.9601 257.125 33.0001C258.365 31.0401 259.405 29.3201 260.245 27.8401C260.605 27.2401 261.125 26.9001 261.805 26.8201C262.485 26.7401 263.125 26.8401 263.725 27.1201C264.365 27.4001 264.885 27.8201 265.285 28.3801C265.685 28.9401 265.785 29.5401 265.585 30.1801ZM248.785 55.7401C247.905 56.3401 246.965 57.0001 245.965 57.7201C244.965 58.4401 243.965 59.1801 242.965 59.9401C242.005 60.7001 241.065 61.4401 240.145 62.1601C239.225 62.9201 238.405 63.6001 237.685 64.2001C236.085 65.6401 234.965 66.9201 234.325 68.0401C233.645 69.2001 233.365 70.0401 233.485 70.5601C233.565 71.1201 234.005 71.3001 234.805 71.1001C235.565 70.9001 236.605 70.2001 237.925 69.0001C238.925 68.0801 239.925 67.0601 240.925 65.9401C241.925 64.8201 242.885 63.6801 243.805 62.5201C244.765 61.3601 245.665 60.2001 246.505 59.0401C247.345 57.8801 248.105 56.7801 248.785 55.7401Z" fill="white"/>
</svg>
