<svg width="48" height="48" viewBox="0 0 48 48" fill="none" xmlns="http://www.w3.org/2000/svg">
<g clip-path="url(#clip0_382:1538)">
<path d="M24.0004 9.6001C20.5194 9.6001 17.1167 10.6323 14.2224 12.5662C11.3281 14.5001 9.07222 17.2489 7.74012 20.4649C6.40802 23.6809 6.05948 27.2196 6.73858 30.6337C7.41768 34.0478 9.09392 37.1838 11.5553 39.6452C14.0167 42.1066 17.1527 43.7828 20.5668 44.4619C23.9809 45.141 27.5196 44.7925 30.7356 43.4604C33.9516 42.1283 36.7004 39.8724 38.6343 36.9781C40.5682 34.0838 41.6004 30.6811 41.6004 27.2001C41.5951 22.5339 39.7391 18.0604 36.4396 14.7609C33.1401 11.4614 28.6666 9.60539 24.0004 9.6001ZM8.0004 27.2001C8.00527 22.9581 9.69254 18.8913 12.6921 15.8918C15.6916 12.8922 19.7584 11.205 24.0004 11.2001C24.2836 11.2001 24.5604 11.2281 24.8388 11.2425C26.7564 11.3921 28.5502 12.2478 29.8732 13.6439C31.1962 15.04 31.9541 16.8773 32.0004 18.8001C31.9436 20.8675 31.0698 22.8282 29.5704 24.2527C28.0709 25.6772 26.068 26.4494 24.0004 26.4001C21.5085 26.351 19.0987 27.2917 17.2992 29.0162C15.4997 30.7408 14.4573 33.1083 14.4004 35.6001C14.4053 37.6945 15.1474 39.7204 16.4964 41.3225C13.9329 39.96 11.7881 37.9262 10.2916 35.4385C8.79501 32.9509 8.00304 30.1032 8.0004 27.2001ZM24.0004 43.2001C23.7172 43.2001 23.4404 43.1721 23.162 43.1577C21.2444 43.0083 19.4504 42.1527 18.1274 40.7565C16.8044 39.3604 16.0465 37.523 16.0004 35.6001C16.0572 33.5327 16.931 31.572 18.4304 30.1475C19.9299 28.723 21.9328 27.9508 24.0004 28.0001C26.4923 28.0492 28.9021 27.1085 30.7016 25.3839C32.5011 23.6594 33.5435 21.2919 33.6004 18.8001C33.5953 16.7057 32.8533 14.6799 31.5044 13.0777C34.6581 14.7514 37.1611 17.4322 38.6148 20.6931C40.0686 23.954 40.3895 27.6076 39.5264 31.072C38.6634 34.5364 36.666 37.6125 33.8524 39.8103C31.0388 42.0082 27.5707 43.2014 24.0004 43.2001Z" fill="#4F4F4F"/>
<path d="M23.9994 48C27.8403 48.0026 31.6068 46.9409 34.881 44.9327C38.1551 42.9246 40.8088 40.0484 42.5475 36.6236C44.2862 33.1987 45.0419 29.359 44.7308 25.5307C44.4197 21.7024 43.0539 18.0352 40.785 14.936L41.8114 13.9104C42.1863 13.534 42.3968 13.0244 42.3968 12.4932C42.3968 11.962 42.1863 11.4524 41.8114 11.076L40.1234 9.388C39.747 9.01306 39.2374 8.80254 38.7062 8.80254C38.1749 8.80254 37.6653 9.01306 37.289 9.388L36.2634 10.4152C33.588 8.4504 30.4792 7.15804 27.1994 6.6472V4.8C27.6237 4.8 28.0307 4.63143 28.3307 4.33137C28.6308 4.03131 28.7994 3.62435 28.7994 3.2V1.6C28.7994 1.17565 28.6308 0.768687 28.3307 0.468629C28.0307 0.168571 27.6237 0 27.1994 0L20.7994 0C20.375 0 19.968 0.168571 19.668 0.468629C19.3679 0.768687 19.1994 1.17565 19.1994 1.6V3.2C19.1994 3.62435 19.3679 4.03131 19.668 4.33137C19.968 4.63143 20.375 4.8 20.7994 4.8V6.6472C17.5195 7.15804 14.4107 8.4504 11.7354 10.4152L10.7098 9.3888C10.3334 9.01386 9.8238 8.80334 9.29256 8.80334C8.76131 8.80334 8.25171 9.01386 7.87536 9.3888L6.18736 11.0768C5.81241 11.4532 5.60189 11.9628 5.60189 12.494C5.60189 13.0252 5.81241 13.5348 6.18736 13.9112L7.21376 14.9368C4.94508 18.036 3.57946 21.7031 3.26846 25.5313C2.95746 29.3595 3.71323 33.199 5.4519 36.6237C7.19057 40.0485 9.84415 42.9245 13.1182 44.9326C16.3922 46.9408 20.1586 48.0025 23.9994 48ZM23.9994 46.4C20.202 46.4 16.4898 45.2739 13.3324 43.1642C10.175 41.0545 7.71407 38.0559 6.26087 34.5475C4.80767 31.0392 4.42744 27.1787 5.16828 23.4543C5.90912 19.7298 7.73774 16.3087 10.4229 13.6236C13.1081 10.9384 16.5292 9.10976 20.2536 8.36892C23.9781 7.62809 27.8385 8.00831 31.3469 9.46151C34.8552 10.9147 37.8539 13.3756 39.9636 16.5331C42.0733 19.6905 43.1994 23.4026 43.1994 27.2C43.1936 32.2904 41.169 37.1707 37.5695 40.7701C33.97 44.3696 29.0898 46.3943 23.9994 46.4ZM38.4202 10.52C38.4574 10.4819 38.5019 10.4516 38.551 10.431C38.6001 10.4103 38.6529 10.3997 38.7062 10.3997C38.7594 10.3997 38.8122 10.4103 38.8613 10.431C38.9104 10.4516 38.9549 10.4819 38.9922 10.52L40.6802 12.2072C40.7183 12.2445 40.7485 12.2889 40.7692 12.3381C40.7899 12.3872 40.8005 12.4399 40.8005 12.4932C40.8005 12.5465 40.7899 12.5992 40.7692 12.6483C40.7485 12.6975 40.7183 12.742 40.6802 12.7792L39.7834 13.68C39.0885 12.8706 38.333 12.1154 37.5234 11.4208L38.4202 10.52ZM20.7994 1.6H27.1994V3.2H20.7994V1.6ZM22.3994 4.8H25.5994V6.4688C25.0706 6.428 24.5386 6.4 23.9994 6.4C23.4602 6.4 22.9282 6.4272 22.3994 6.468V4.8ZM7.31856 12.78C7.28046 12.7428 7.25019 12.6983 7.22952 12.6491C7.20885 12.6 7.19821 12.5473 7.19821 12.494C7.19821 12.4407 7.20885 12.388 7.22952 12.3389C7.25019 12.2897 7.28046 12.2453 7.31856 12.208L9.00656 10.5208C9.04381 10.4827 9.0883 10.4524 9.13741 10.4318C9.18652 10.4111 9.23927 10.4005 9.29256 10.4005C9.34584 10.4005 9.39859 10.4111 9.4477 10.4318C9.49682 10.4524 9.5413 10.4827 9.57856 10.5208L10.4794 11.4176C9.66823 12.113 8.91136 12.8694 8.21536 13.68L7.31856 12.78Z" fill="#4F4F4F"/>
<path d="M24.3996 21.6C24.9534 21.6 25.4947 21.4358 25.9552 21.1281C26.4157 20.8204 26.7745 20.3831 26.9865 19.8715C27.1984 19.3599 27.2538 18.7969 27.1458 18.2537C27.0378 17.7106 26.7711 17.2117 26.3795 16.8201C25.9879 16.4285 25.489 16.1618 24.9459 16.0538C24.4027 15.9458 23.8397 16.0012 23.3281 16.2131C22.8165 16.4251 22.3792 16.7839 22.0715 17.2444C21.7638 17.7049 21.5996 18.2462 21.5996 18.8C21.5996 19.5426 21.8946 20.2548 22.4197 20.7799C22.9448 21.305 23.657 21.6 24.3996 21.6ZM24.3996 17.6C24.6369 17.6 24.869 17.6704 25.0663 17.8022C25.2636 17.9341 25.4174 18.1215 25.5083 18.3408C25.5991 18.5601 25.6229 18.8013 25.5766 19.0341C25.5302 19.2669 25.416 19.4807 25.2481 19.6485C25.0803 19.8164 24.8665 19.9306 24.6337 19.9769C24.4009 20.0232 24.1597 19.9995 23.9404 19.9087C23.7211 19.8178 23.5337 19.664 23.4018 19.4667C23.27 19.2693 23.1996 19.0373 23.1996 18.8C23.1996 18.4817 23.326 18.1765 23.5511 17.9515C23.7761 17.7264 24.0813 17.6 24.3996 17.6Z" fill="#4F4F4F"/>
<path d="M24.3996 32.8C23.8458 32.8 23.3045 32.9643 22.844 33.2719C22.3836 33.5796 22.0247 34.0169 21.8127 34.5285C21.6008 35.0402 21.5454 35.6032 21.6534 36.1463C21.7615 36.6894 22.0281 37.1884 22.4197 37.5799C22.8113 37.9715 23.3102 38.2382 23.8534 38.3462C24.3965 38.4543 24.9595 38.3988 25.4711 38.1869C25.9828 37.975 26.4201 37.6161 26.7277 37.1556C27.0354 36.6952 27.1996 36.1538 27.1996 35.6C27.1996 34.8574 26.9046 34.1453 26.3795 33.6202C25.8544 33.095 25.1422 32.8 24.3996 32.8ZM24.3996 36.8C24.1623 36.8 23.9303 36.7297 23.7329 36.5978C23.5356 36.466 23.3818 36.2785 23.291 36.0593C23.2001 35.84 23.1764 35.5987 23.2227 35.3659C23.269 35.1332 23.3833 34.9193 23.5511 34.7515C23.7189 34.5837 23.9327 34.4694 24.1655 34.4231C24.3983 34.3768 24.6396 34.4006 24.8588 34.4914C25.0781 34.5822 25.2655 34.736 25.3974 34.9334C25.5292 35.1307 25.5996 35.3627 25.5996 35.6C25.5996 35.9183 25.4732 36.2235 25.2481 36.4486C25.0231 36.6736 24.7179 36.8 24.3996 36.8Z" fill="#4F4F4F"/>
</g>
<defs>
<clipPath id="clip0_382:1538">
<rect width="48" height="48" fill="white"/>
</clipPath>
</defs>
</svg>
