<svg width="48" height="48" viewBox="0 0 48 48" fill="none" xmlns="http://www.w3.org/2000/svg">
<g clip-path="url(#clip0_382:1459)">
<path d="M32.4247 26.4228C34.2202 25.5911 36.0079 24.9843 37.764 24.6127C38.2705 24.5056 38.5943 24.008 38.4871 23.5015C38.3799 22.995 37.883 22.6712 37.3758 22.7784C35.343 23.2085 33.2785 23.9279 31.2138 24.922C30.0604 23.5464 28.74 22.1081 27.3155 20.6836C25.8017 19.1699 24.2722 17.7728 22.8191 16.57C24.0765 14.9801 25.1028 13.2 25.8792 11.2517C27.0898 8.21415 27.7037 4.74371 27.7037 0.936523C27.7037 0.418742 27.2839 -0.000976562 26.7662 -0.000976562C26.2485 -0.000976562 25.8287 0.418742 25.8287 0.936523C25.8287 6.80265 24.3246 11.6576 21.3542 15.404C20.7937 14.9764 20.2502 14.5834 19.7312 14.2335C16.9527 12.3595 15.2979 11.9203 14.3729 12.812C14.3664 12.8181 14.3595 12.8241 14.3531 12.8304C14.3522 12.8313 14.3513 12.8322 14.3503 12.833C14.3498 12.8336 14.3493 12.8342 14.3487 12.8347C14.1118 13.0722 13.9656 13.3593 13.9102 13.702L0.072948 46.6991C-0.0742396 47.0501 0.00544795 47.4554 0.274604 47.7245C0.454042 47.9039 0.693854 47.9991 0.937792 47.9991C1.05985 47.9991 1.18304 47.9753 1.30014 47.9262C1.30276 47.9251 1.30014 47.9262 1.30276 47.9251L34.2972 34.0887C34.6101 34.0381 34.8759 33.9102 35.1006 33.708C35.1169 33.6944 35.1322 33.6799 35.1474 33.6655C35.1535 33.6596 35.1599 33.6547 35.1658 33.6487C35.1668 33.6478 35.1675 33.6467 35.1684 33.6459C35.1748 33.6395 35.1808 33.6326 35.187 33.6259C36.0787 32.7009 35.6395 31.0461 33.7655 28.2678C33.3694 27.6806 32.9193 27.0624 32.4247 26.4228ZM7.43579 41.3203C7.24014 42.5402 6.80504 43.3422 6.5957 43.6722L2.68829 45.3107L6.65664 35.8478C7.43307 37.7941 7.70223 39.6586 7.43579 41.3203ZM13.2048 38.1481C12.8268 40.3029 11.8242 41.3416 11.5391 41.5992L9.06873 42.6351C9.61792 40.6801 9.76229 37.5766 7.63989 33.503L10.4494 26.8037C13.3644 32.3303 13.5831 35.9922 13.2048 38.1481ZM16.5489 39.4981L14.5283 40.3456C14.7208 39.8592 14.8906 39.3051 15.0136 38.6773C15.764 34.8473 14.539 30.1118 11.3747 24.5972L12.3891 22.1784C13.1919 23.1445 14.1068 24.5118 14.4773 25.374C14.6298 25.729 14.9756 25.9416 15.339 25.9416C15.4625 25.9416 15.5881 25.917 15.7088 25.8652C16.1844 25.6607 16.4043 25.1095 16.1999 24.6337C15.6502 23.3546 14.2562 21.3643 13.1899 20.2688L14.7399 16.5727C15.0114 17.0705 15.3476 17.616 15.7509 18.2139C16.0286 18.6256 16.3329 19.0525 16.66 19.4912C19.8669 24.3574 19.7944 29.3383 19.1675 32.6616C18.5008 36.1965 17.0733 38.7844 16.5489 39.4981ZM23.7727 36.469L19.322 38.3354C19.9646 36.9257 20.6202 35.0752 21.0099 33.0092C21.445 30.7017 21.6364 27.6672 20.8312 24.3903C21.2753 24.8595 21.7321 25.3296 22.2008 25.7983C23.6031 27.2005 25.0185 28.5016 26.3745 29.642C26.2401 34.0682 24.2099 36.0852 23.7727 36.469ZM27.0042 35.1138C27.5061 34.0756 27.9492 32.7375 28.1469 31.0662C28.7127 31.4982 29.2614 31.8951 29.7851 32.2483C30.3834 32.6518 30.9287 32.9879 31.4267 33.2594L27.0042 35.1138ZM30.3016 30.3258C28.2635 28.8818 25.8574 26.803 23.5267 24.4723C21.196 22.1416 19.1171 19.7356 17.6732 17.6974C16.2768 15.7265 15.9005 14.7201 15.8014 14.2842C16.2373 14.3834 17.2437 14.7597 19.2146 16.156C19.5069 16.3631 19.8073 16.5844 20.1133 16.8165C20.0476 16.8841 19.9827 16.9525 19.9159 17.0193C19.5498 17.3854 19.5498 17.9791 19.9159 18.3452C20.099 18.5282 20.3389 18.6198 20.5788 18.6198C20.8187 18.6198 21.0587 18.5282 21.2417 18.3452C21.3594 18.2275 21.4754 18.1082 21.5901 17.9877C23.0122 19.1632 24.5158 20.5357 25.9897 22.0096C27.2571 23.277 28.4487 24.5662 29.5057 25.8068C29.3364 25.9008 29.1671 25.9965 28.9979 26.0941C28.5495 26.3531 28.3959 26.9265 28.6548 27.3748C28.8284 27.6755 29.1435 27.8437 29.4676 27.8437C29.6266 27.8437 29.7879 27.8031 29.9354 27.7179C30.1957 27.5675 30.4561 27.4232 30.7164 27.2823C31.1238 27.7996 31.5018 28.3026 31.8431 28.7845C33.2396 30.7554 33.6159 31.7618 33.715 32.1977C33.2788 32.0985 32.2724 31.7221 30.3016 30.3258Z" fill="#4F4F4F"/>
<path d="M16.9577 27.0499C16.7452 26.5777 16.1903 26.3671 15.7181 26.5797C15.2606 26.7855 15.0487 27.313 15.2293 27.7751C15.3712 28.1466 15.726 28.3779 16.1049 28.3779C16.2076 28.3779 16.3121 28.3608 16.4146 28.325C16.9033 28.154 17.1609 27.6192 16.9898 27.1304C16.9809 27.105 16.9688 27.0745 16.9577 27.0499Z" fill="#4F4F4F"/>
<path d="M35.0099 14.5021C35.193 14.6851 35.4329 14.7767 35.6728 14.7767C35.9128 14.7767 36.1526 14.6851 36.3357 14.5021C38.4304 12.4075 41.824 11.4475 44.3018 11.2475C44.8179 11.2059 45.2024 10.7536 45.1608 10.2376C45.1191 9.72155 44.6679 9.33849 44.1509 9.37862C41.341 9.6054 37.4641 10.7221 35.0099 13.1763C34.6438 13.5424 34.6438 14.136 35.0099 14.5021Z" fill="#4F4F4F"/>
<path d="M47.3056 9.55905C47.2791 9.55193 47.2521 9.5449 47.2248 9.53805C46.7224 9.4128 46.2137 9.7189 46.0885 10.2213C45.9635 10.7237 46.2694 11.2325 46.7718 11.3576L46.8197 11.3699C46.9011 11.3918 46.9828 11.4023 47.0633 11.4023C47.4771 11.4023 47.8558 11.1262 47.9681 10.7075C48.1023 10.2074 47.8058 9.6933 47.3056 9.55905Z" fill="#4F4F4F"/>
<path d="M6.8916 7.83936H7.8291V8.77686C7.8291 9.29455 8.24882 9.71436 8.7666 9.71436C9.28438 9.71436 9.7041 9.29455 9.7041 8.77686V7.83936H10.6416C11.1594 7.83936 11.5791 7.41955 11.5791 6.90186C11.5791 6.38417 11.1594 5.96436 10.6416 5.96436H9.7041V5.02686C9.7041 4.50917 9.28438 4.08936 8.7666 4.08936C8.24882 4.08936 7.8291 4.50917 7.8291 5.02686V5.96436H6.8916C6.37382 5.96436 5.9541 6.38417 5.9541 6.90186C5.9541 7.41964 6.37382 7.83936 6.8916 7.83936Z" fill="#4F4F4F"/>
<path d="M28.8281 16.933H29.7657V17.8704C29.7657 18.3881 30.1855 18.8079 30.7032 18.8079C31.221 18.8079 31.6407 18.3881 31.6407 17.8704V16.933H32.5781C33.0958 16.933 33.5156 16.5131 33.5156 15.9955C33.5156 15.4778 33.0958 15.058 32.5781 15.058H31.6407V14.1204C31.6407 13.6027 31.221 13.1829 30.7032 13.1829C30.1855 13.1829 29.7657 13.6027 29.7657 14.1204V15.058H28.8281C28.3104 15.058 27.8906 15.4778 27.8906 15.9955C27.8906 16.5132 28.3104 16.933 28.8281 16.933Z" fill="#4F4F4F"/>
<path d="M41.8594 39.1516H40.9219V38.2141C40.9219 37.6964 40.5021 37.2766 39.9844 37.2766C39.4667 37.2766 39.0469 37.6964 39.0469 38.2141V39.1516H38.1094C37.5917 39.1516 37.1719 39.5714 37.1719 40.0891C37.1719 40.6068 37.5917 41.0266 38.1094 41.0266H39.0469V41.9641C39.0469 42.4818 39.4667 42.9016 39.9844 42.9016C40.5021 42.9016 40.9219 42.4818 40.9219 41.9641V41.0266H41.8594C42.3771 41.0266 42.7969 40.6068 42.7969 40.0891C42.7969 39.5714 42.3772 39.1516 41.8594 39.1516Z" fill="#4F4F4F"/>
<path d="M36.5596 5.62598C38.1104 5.62598 39.3721 4.36429 39.3721 2.81348C39.3721 1.26266 38.1104 0.000976562 36.5596 0.000976562C35.0088 0.000976562 33.7471 1.26266 33.7471 2.81348C33.7471 4.36429 35.0088 5.62598 36.5596 5.62598ZM36.5596 1.87598C37.0765 1.87598 37.4971 2.29654 37.4971 2.81348C37.4971 3.33041 37.0765 3.75098 36.5596 3.75098C36.0426 3.75098 35.6221 3.33041 35.6221 2.81348C35.6221 2.29654 36.0426 1.87598 36.5596 1.87598Z" fill="#4F4F4F"/>
<path d="M42.4219 16.2766C40.8711 16.2766 39.6094 17.5383 39.6094 19.0891C39.6094 20.6399 40.8711 21.9016 42.4219 21.9016C43.9727 21.9016 45.2344 20.6399 45.2344 19.0891C45.2344 17.5383 43.9726 16.2766 42.4219 16.2766ZM42.4219 20.0266C41.9049 20.0266 41.4844 19.606 41.4844 19.0891C41.4844 18.5722 41.9049 18.1516 42.4219 18.1516C42.9388 18.1516 43.3594 18.5722 43.3594 19.0891C43.3594 19.606 42.9388 20.0266 42.4219 20.0266Z" fill="#4F4F4F"/>
<path d="M18.6094 8.96436C20.1602 8.96436 21.4219 7.70267 21.4219 6.15186C21.4219 4.60104 20.1602 3.33936 18.6094 3.33936C17.0586 3.33936 15.7969 4.60104 15.7969 6.15186C15.7969 7.70267 17.0586 8.96436 18.6094 8.96436ZM18.6094 5.21436C19.1263 5.21436 19.5469 5.63492 19.5469 6.15186C19.5469 6.6688 19.1263 7.08936 18.6094 7.08936C18.0924 7.08936 17.6719 6.6688 17.6719 6.15186C17.6719 5.63501 18.0924 5.21436 18.6094 5.21436Z" fill="#4F4F4F"/>
<path d="M42.1113 27.5679C42.1113 27.0515 41.6902 26.6304 41.1738 26.6304C40.6575 26.6304 40.2363 27.0515 40.2363 27.5679C40.2363 28.0842 40.6575 28.5054 41.1738 28.5054C41.6902 28.5054 42.1113 28.0842 42.1113 27.5679Z" fill="#4F4F4F"/>
<path d="M31.4238 8.91186C31.9402 8.91186 32.3613 8.49074 32.3613 7.97436C32.3613 7.45799 31.9402 7.03687 31.4238 7.03687C30.9075 7.03687 30.4863 7.45799 30.4863 7.97436C30.4864 8.49065 30.9075 8.91186 31.4238 8.91186Z" fill="#4F4F4F"/>
<path d="M43.9864 33.6616C43.47 33.6616 43.0488 34.0828 43.0488 34.5992C43.0488 35.1156 43.47 35.5367 43.9864 35.5367C44.5027 35.5367 44.9239 35.1156 44.9239 34.5992C44.9239 34.0828 44.5027 33.6616 43.9864 33.6616Z" fill="#4F4F4F"/>
<path d="M13.0488 2.81274C13.5652 2.81274 13.9863 2.39162 13.9863 1.87524C13.9863 1.35887 13.5652 0.937744 13.0488 0.937744C12.5325 0.937744 12.1113 1.35887 12.1113 1.87524C12.1113 2.39162 12.5325 2.81274 13.0488 2.81274Z" fill="#4F4F4F"/>
</g>
<defs>
<clipPath id="clip0_382:1459">
<rect width="48" height="48" fill="white"/>
</clipPath>
</defs>
</svg>
