<svg width="48" height="48" viewBox="0 0 48 48" fill="none" xmlns="http://www.w3.org/2000/svg">
<path d="M5.37118 24.4944L5.37118 24.4944C5.26002 24.3528 5.2 24.1792 5.2 24V14.25C5.2 13.4504 4.54964 12.8 3.75 12.8C2.95036 12.8 2.3 13.4504 2.3 14.25V26.796L6.6472 34.766L12.4374 40.5561C13.1547 41.2735 13.55 42.2282 13.55 43.2428V45.7H20.95V37.1828C20.95 36.6232 20.7396 36.0901 20.3589 35.6809L5.37118 24.4944ZM5.37118 24.4944L13.6212 34.9944L13.6521 35.0337L13.6914 35.0028L14.8704 34.0766L14.9097 34.0457L14.8788 34.0064L9.8 27.5415V26.25C9.8 25.8644 10.1144 25.55 10.5 25.55H10.5982C10.7913 25.55 10.9777 25.6312 11.1101 25.772L20.3589 35.6808L5.37118 24.4944ZM15.375 20.95C14.9905 20.95 14.629 21.0384 14.3 21.1851V16.875C14.3 15.3999 13.1001 14.2 11.625 14.2C11.2405 14.2 10.879 14.2884 10.55 14.4351V12.375C10.55 10.8999 9.35011 9.7 7.875 9.7C6.65612 9.7 5.63354 10.5241 5.31314 11.6404C4.85499 11.3645 4.32266 11.2 3.75 11.2C2.06789 11.2 0.7 12.5679 0.7 14.25V27C0.7 27.1336 0.733596 27.2656 0.797582 27.3832L0.797605 27.3832L5.2976 35.6332L5.29777 35.6335C5.33442 35.6996 5.38069 35.7619 5.4344 35.8156L11.3061 41.6874C11.7153 42.0965 11.95 42.6635 11.95 43.2428V46.5C11.95 46.9416 12.3084 47.3 12.75 47.3H21.75C22.1916 47.3 22.55 46.9416 22.55 46.5V37.1828C22.55 36.2168 22.1867 35.2956 21.5278 34.5896L18.05 30.863V23.625C18.05 22.1499 16.8501 20.95 15.375 20.95ZM12.2795 24.6806L12.243 24.7147L12.2795 24.6806C11.8464 24.2168 11.2339 23.95 10.5982 23.95H10.55V16.875C10.55 16.2824 11.0324 15.8 11.625 15.8C12.2176 15.8 12.7 16.2824 12.7 16.875V23.625V25.1309L12.2795 24.6806ZM15.375 22.55C15.9676 22.55 16.45 23.0324 16.45 23.625V29.1487L14.3 26.8453V23.625C14.3 23.0324 14.7824 22.55 15.375 22.55ZM6.8 12.375C6.8 11.7824 7.28236 11.3 7.875 11.3C8.46764 11.3 8.95 11.7824 8.95 12.375V16.875V24.5614C8.64256 24.8435 8.4074 25.2052 8.28869 25.618L6.8 23.7232V14.25V12.375Z" fill="#4F4F4F" stroke="#4F4F4F" stroke-width="0.1"/>
<path d="M35.5626 40.5554L35.5626 40.5554L41.3528 34.7652L45.7 26.796V14.25C45.7 13.4504 45.0496 12.8 44.25 12.8C43.4504 12.8 42.8 13.4504 42.8 14.25V24C42.8 24.1792 42.74 24.3528 42.6288 24.4936L35.5626 40.5554ZM35.5626 40.5554C34.8453 41.2735 34.45 42.2275 34.45 43.2428V45.7H27.05V37.1828C27.05 36.6232 27.2604 36.0901 27.6418 35.6816L27.6052 35.6475L27.6418 35.6816L36.8908 25.7726L36.8909 25.7726C37.0224 25.6312 37.2087 25.55 37.4017 25.55H37.5C37.8856 25.55 38.2 25.8644 38.2 26.25V27.5415L33.1212 34.0056L33.0903 34.0449L33.1296 34.0758L34.3086 35.0021L34.3479 35.033L34.3788 34.9936L42.6287 24.4937L35.5626 40.5554ZM42.7022 35.6335L42.7024 35.6332L47.2024 27.3832L47.2024 27.3832C47.2664 27.2656 47.3 27.1336 47.3 27V14.25C47.3 12.5679 45.9321 11.2 44.25 11.2C43.6773 11.2 43.145 11.3645 42.6869 11.6404C42.3665 10.5241 41.3439 9.7 40.125 9.7C38.6499 9.7 37.45 10.8999 37.45 12.375V14.4351C37.121 14.2884 36.7595 14.2 36.375 14.2C34.8999 14.2 33.7 15.3999 33.7 16.875V21.1851C33.371 21.0384 33.0095 20.95 32.625 20.95C31.1499 20.95 29.95 22.1499 29.95 23.625V30.863L26.4722 34.5896C25.8133 35.2956 25.45 36.2168 25.45 37.1828V46.5C25.45 46.9416 25.8084 47.3 26.25 47.3H35.25C35.6916 47.3 36.05 46.9416 36.05 46.5V43.2428C36.05 42.6635 36.2847 42.0972 36.6939 41.6873L42.5656 35.8156C42.6193 35.7619 42.6656 35.6996 42.7022 35.6335ZM35.7204 24.6807L35.3 25.1316V23.625V16.875C35.3 16.2824 35.7824 15.8 36.375 15.8C36.9676 15.8 37.45 16.2824 37.45 16.875V23.95H37.4017C36.7661 23.95 36.1536 24.2168 35.7205 24.6806L35.7204 24.6807ZM39.05 12.375C39.05 11.7824 39.5324 11.3 40.125 11.3C40.7176 11.3 41.2 11.7824 41.2 12.375V14.25V23.7232L39.7113 25.6173C39.5926 25.2045 39.3574 24.8434 39.05 24.5607V16.875V12.375ZM31.55 23.625C31.55 23.0324 32.0324 22.55 32.625 22.55C33.2176 22.55 33.7 23.0324 33.7 23.625V26.8453L31.55 29.1487V23.625Z" fill="#4F4F4F" stroke="#4F4F4F" stroke-width="0.1"/>
<path d="M32.4536 1.92603L32.4824 1.88515C34.1367 3.04972 35.1591 4.88694 35.286 6.92543C35.4137 8.96992 34.6248 10.9265 33.1217 12.2935L24.538 20.1003L24.5379 20.1003C24.3852 20.2387 24.1924 20.3083 23.9996 20.3083C23.8068 20.3083 23.614 20.2387 23.4613 20.1003L23.4612 20.1003L14.8775 12.2935C14.8775 12.2935 14.8774 12.2935 14.8774 12.2935C13.3736 10.9265 12.5847 8.96992 12.7124 6.92543C12.7124 6.92542 12.7124 6.92542 12.7124 6.92542L12.7623 6.92853C12.8883 4.90503 13.9031 3.08178 15.5448 1.92603H32.4536ZM32.4536 1.92603L32.4824 1.88514C30.0675 0.186018 26.8054 0.334201 24.5493 2.24488L24.5492 2.2449L23.9996 2.711L32.4536 1.92603ZM14.31 7.02615L14.31 7.02614C14.4066 5.47432 15.1827 4.07757 16.4376 3.19468L16.4376 3.19467C17.2832 2.59927 18.2661 2.30528 19.2476 2.30528C20.3776 2.30528 21.5053 2.69506 22.4147 3.46641L22.4148 3.46643L23.482 4.37093L23.4821 4.37098C23.7805 4.62297 24.218 4.62297 24.5163 4.37098L24.5164 4.37092L25.5844 3.46568C25.5844 3.46568 25.5844 3.46568 25.5844 3.46568C27.2838 2.0261 29.7427 1.91332 31.5615 3.19392L31.5616 3.19393C32.8165 4.07682 33.5926 5.47357 33.6892 7.02539L33.7391 7.02228L33.6892 7.0254C33.7865 8.5832 33.1871 10.0721 32.045 11.1103L32.0449 11.1103L23.9996 18.4282L15.9542 11.111C14.8121 10.0721 14.2127 8.58319 14.31 7.02615Z" fill="#4F4F4F" stroke="#4F4F4F" stroke-width="0.1"/>
</svg>
