<svg width="48" height="48" viewBox="0 0 48 48" fill="none" xmlns="http://www.w3.org/2000/svg">
<g clip-path="url(#clip0_382:1477)">
<path d="M47.9973 1.60498H46.3975V3.20482H47.9973V1.60498Z" fill="#4F4F4F"/>
<path d="M46.3967 0.00512695H44.7969V1.60496H46.3967V0.00512695Z" fill="#4F4F4F"/>
<path d="M44.7971 1.60498H43.1973V3.20482H44.7971V1.60498Z" fill="#4F4F4F"/>
<path d="M46.3967 3.20483H44.7969V4.80467H46.3967V3.20483Z" fill="#4F4F4F"/>
<path d="M41.5979 1.60498H39.998V3.20482H41.5979V1.60498Z" fill="#4F4F4F"/>
<path d="M39.9973 17.6033H38.3975V19.2031H39.9973V17.6033Z" fill="#4F4F4F"/>
<path d="M43.1975 17.6033H41.5977V19.2031H43.1975V17.6033Z" fill="#4F4F4F"/>
<path d="M41.5979 16.0034H39.998V17.6033H41.5979V16.0034Z" fill="#4F4F4F"/>
<path d="M41.5979 19.2031H39.998V20.803H41.5979V19.2031Z" fill="#4F4F4F"/>
<path d="M10.4016 15.2036H8.80176V16.8034H10.4016V15.2036Z" fill="#4F4F4F"/>
<path d="M8.80199 13.6038H7.20215V15.2036H8.80199V13.6038Z" fill="#4F4F4F"/>
<path d="M7.2014 15.2036H5.60156V16.8034H7.2014V15.2036Z" fill="#4F4F4F"/>
<path d="M8.80199 16.8035H7.20215V18.4033H8.80199V16.8035Z" fill="#4F4F4F"/>
<path d="M4.0012 15.2036H2.40137V16.8034H4.0012V15.2036Z" fill="#4F4F4F"/>
<path d="M1.60179 4.80469H0.00195312V6.40452H1.60179V4.80469Z" fill="#4F4F4F"/>
<path d="M4.80101 4.80469H3.20117V6.40452H4.80101V4.80469Z" fill="#4F4F4F"/>
<path d="M3.2014 3.20483H1.60156V4.80467H3.2014V3.20483Z" fill="#4F4F4F"/>
<path d="M3.2014 6.40454H1.60156V8.00438H3.2014V6.40454Z" fill="#4F4F4F"/>
<path d="M12.802 0.00512695H11.2021V1.60496H12.802V0.00512695Z" fill="#4F4F4F"/>
<path d="M43.0599 37.5934C42.7199 36.637 41.8135 35.999 40.7984 36.0014H38.8634L35.9989 30.9891V22.4028C35.9989 20.6357 34.5663 19.2031 32.7992 19.2031V8.8042C32.9615 4.10688 29.2851 0.167383 24.5878 0.00509948C24.3919 -0.00169983 24.196 -0.00169983 24.0001 0.00509948C18.4998 0.00509948 15.361 4.52304 15.201 8.7738C15.201 8.7842 15.2066 8.7938 15.2066 8.8042H15.201V19.2031C13.4339 19.2031 12.0013 20.6357 12.0013 22.4028V30.9891L9.1368 36.0014H7.20189C5.87963 35.9987 4.80554 37.0683 4.80274 38.3906C4.80064 39.4054 5.43857 40.3113 6.39478 40.6513C5.2394 41.9573 5.36148 43.9527 6.66755 45.1081C7.1395 45.5256 7.72574 45.7924 8.35058 45.874L23.8922 47.993C23.9642 48.0024 24.037 48.0024 24.109 47.993L39.6506 45.874C41.3796 45.6481 42.5982 44.0634 42.3723 42.3344C42.2907 41.7095 42.0239 41.1233 41.6064 40.6513C42.8522 40.2084 43.503 38.8393 43.0599 37.5934ZM24.0002 1.60504C27.7998 1.42865 31.0231 4.36585 31.1994 8.16556C31.2093 8.37834 31.2093 8.59152 31.1994 8.8043H29.5996C27.3918 8.8017 25.6026 7.01248 25.6 4.80471C25.5999 4.36295 25.2418 4.00489 24.7999 4.00499C24.5878 4.00499 24.3845 4.08928 24.2346 4.23916C22.2515 6.22986 19.6729 7.51903 16.8905 7.91079C17.3304 4.31636 20.3788 1.61253 24.0002 1.60504ZM22.4003 20.0031V16.5819C22.9218 16.7249 23.4595 16.7994 24.0002 16.8035C24.5411 16.7989 25.0791 16.7227 25.6 16.5771V20.0031C25.6 20.4449 25.9582 20.8031 26.3999 20.8031H27.9998V21.8262L24.0002 23.1596L20.0006 21.8262V20.8031H21.6004C22.0422 20.8031 22.4003 20.4449 22.4003 20.0031ZM17.7544 9.37944C20.1295 8.94008 22.3568 7.91359 24.2338 6.39334C24.9402 8.7687 27.1215 10.3991 29.5996 10.4041H29.9484C28.9485 13.0879 26.4127 15.2036 24.0002 15.2036C21.2221 15.2036 18.416 12.5111 17.7544 9.37944ZM27.1999 19.2032V15.9356C28.9659 14.9417 30.3674 13.4086 31.1994 11.5608V19.2032H28.7997H27.1999ZM16.8009 11.5632C17.6279 13.4149 19.0307 14.9501 20.8005 15.9404V19.2032H16.8009V11.5632ZM18.4008 20.8031V22.4029C18.4011 22.7471 18.6213 23.0524 18.9479 23.1612V23.162L23.7474 24.7619C23.9117 24.8171 24.0895 24.8171 24.2538 24.7619L29.0533 23.162C29.3797 23.0529 29.5998 22.7472 29.5996 22.4029V20.8031H31.7746L28.175 35.2016H19.8254L16.2258 20.8031H18.4008ZM19.5686 36.8014H28.4317L31.6458 40.5506L24.0002 41.5937L16.3546 40.5538L19.5686 36.8014ZM14.4716 40.2939L12.9957 40.0931L18.0072 34.5241L18.3272 35.7951L14.4716 40.2939ZM29.6796 35.7951L29.9996 34.5241L35.0111 40.0931L33.532 40.2939L29.6796 35.7951ZM6.40198 38.4013C6.40198 37.9595 6.76014 37.6013 7.20189 37.6013H9.60165C9.88802 37.6019 10.1528 37.4494 10.296 37.2014L13.4957 31.602C13.5653 31.4802 13.6017 31.3423 13.6012 31.202V22.4029C13.6012 21.7495 13.9987 21.1616 14.6051 20.9183L16.0722 26.7857L17.5384 32.653L11.6454 39.2012H7.20189C6.76004 39.2012 6.40198 38.843 6.40198 38.4013ZM24.0002 46.3932L8.56656 44.2879C7.70284 44.1738 7.09521 43.3811 7.20929 42.5174C7.31328 41.7302 7.98611 41.1431 8.78013 41.1466C8.85133 41.1466 8.92242 41.1517 8.99291 41.1618L14.6811 41.9377L23.7202 43.1704L28.0022 45.8469L24.0002 46.3932ZM39.4338 44.2879L30.4795 45.5093L26.2967 42.8952L33.3136 41.9353L39.001 41.1594C39.8643 41.0383 40.6621 41.6399 40.7832 42.5031C40.7935 42.5765 40.7986 42.6506 40.7985 42.7248C40.7957 43.5127 40.2141 44.1788 39.4338 44.2879ZM40.7985 39.2012H36.3549L30.4611 32.6522L31.9274 26.7849L33.3944 20.9175C34.0015 21.1607 34.3993 21.749 34.3991 22.4029V31.202C34.3986 31.3423 34.435 31.4802 34.5047 31.602L37.7044 37.2014C37.8476 37.4494 38.1123 37.6019 38.3987 37.6013H40.7985C41.2402 37.6013 41.5984 37.9595 41.5984 38.4013C41.5984 38.843 41.2402 39.2012 40.7985 39.2012Z" fill="#4F4F4F"/>
</g>
<defs>
<clipPath id="clip0_382:1477">
<rect width="48" height="48" fill="white"/>
</clipPath>
</defs>
</svg>
